<svg xmlns="http://www.w3.org/2000/svg" id="_デザイン" data-name="デザイン" viewBox="0 0 420 210"><defs><style>.cls-1{fill:#fff;stroke-width:0}</style></defs><path d="M79.55 188.25c-2.81-.07-5.46-.14-8.15-.14-1.29 0-2.62 0-3.88.07h-.37c-1.45 0-2.63-.42-3.5-1.25-1.45-1.38-1.47-3.39-1.47-3.48 0-2.25 1.73-4.65 4.93-4.65h1.33l.06-.94c.4-6.49.4-25.87.4-35.18v-.99h-.99c-2.04-.04-5.45-.67-5.45-4.66 0-2.29 1.75-4.72 5-4.72h.29c2.62.1 4.97.14 7.15.14 3.01 0 6.27-.04 9.23-.08 2.46-.03 4.72-.06 6.44-.06 7.09 0 10.54 2.1 11.91 7.25.68 3.08.68 3.38.68 3.62 0 3.25-2.54 5-4.93 5s-4.17-1.64-4.56-3.98c-.45-2.36-1.14-2.6-3.88-2.6-1.34 0-3.43-.04-5.38-.08-1.71-.03-3.3-.06-4.2-.06h-.68l-.89.03-.08 1c-.02 1-.05 2.16-.08 3.42-.06 2.44-.13 5.28-.18 8.17l-.02 1.02h1.02c2.12-.02 4.77-.07 6.03-.12l.95-.04v-1.42c0-3.29 2.49-4.79 4.8-4.79 2.65 0 4.65 2 4.65 4.65v.29c-.07 1.64-.14 3.61-.14 5.51 0 2.67.09 5.01.14 6.18v.34c0 3.09-2.45 4.5-4.72 4.5s-4.72-1.58-4.72-4.5v-.29c0-.14 0-.28.02-.43l.08-1.06-3.68-.04c-1.16-.01-2.42-.03-3.49-.04h-1.01v1c0 6.15 0 11.36.14 12.86l.07.76.76.2c.31.05.73.1 1.24.13 3.02.09 4.59 2.4 4.59 4.65s-1.78 4.79-5.08 4.79h-.36ZM113.57 188.26c-.54 0-2.4-.1-3.79-1.43-.88-.84-1.34-1.98-1.34-3.29 0-2.29 1.73-4.72 4.93-4.72h1.33l.06-.94c.26-3.99.4-13.68.4-28.03v-8.21h-.99c-2.04-.04-5.45-.67-5.45-4.66 0-2.25 1.75-4.65 5-4.65h.29c1.93.07 5.05.11 8.73.11 2.35 0 4.8-.02 7.07-.05 2.42-.03 4.64-.06 6.37-.06 9.27 0 10.67 3.37 12.33 9.31l.06.23c.14.54.27 1.05.27 1.62 0 3.07-2.54 4.72-4.93 4.72s-4.38-1.6-4.78-3.98c-.45-2.28-1.11-2.74-3.95-2.74-1.89 0-4.77-.03-6.88-.05 0 0-2.12-.02-2.49-.02h-.98l-.02.98c-.06 2.74-.12 6.83-.18 10.96l-.03 1.86h1.02c1.95 0 4.34 0 5.59-.05l.91-.03.05-.91v-.37c-.04-1.76.67-2.87 1.28-3.49.88-.9 2.16-1.44 3.44-1.44 2.17 0 4.5 1.45 4.5 4.65v.29c-.07 1.62-.14 3.57-.14 5.44 0 2.48.09 4.8.14 5.96v.34c0 2.92-2.39 4.5-4.65 4.5s-4.58-1.58-4.58-4.5v-.29c0-.11 0-.22.02-.34l.1-1.08s-2.47-.02-3.33-.04c-1.12-.02-2.36-.03-3.44-.04h-1.01v1c0 6.54.01 11.66.14 13.14l.07.8.8.16c.96.13 2.88.13 4.14.13 10.42 0 11.04 0 12.2-3.93.63-2.13 2.41-3.51 4.54-3.51 2.42 0 4.93 1.79 4.93 4.79 0 1.12-1.02 3.88-1.51 5.03-1.85 4.82-5.49 6.77-12.58 6.77-1.81 0-3.94-.02-6.21-.03l-2.59-.02c-2.19-.02-4.43-.04-6.58-.04-3.48 0-6.05.05-8.09.16h-.22ZM196.04 188.26c-1.43 0-2.77-.51-3.68-1.39-.86-.83-1.31-1.93-1.31-3.19 0-2.05 1.43-4.29 4.17-4.61l1.18-.14-.34-1.14c-.49-1.64-1.51-5.01-2.19-7.09l-.23-.69h-16.87l-.21.72c-.53 1.82-1.53 5.25-2.04 7.02l-.35 1.22 1.27.06c1.37.06 2.59.55 3.43 1.37.85.83 1.3 1.96 1.3 3.27 0 2.2-1.54 4.58-4.93 4.58h-.37c-1.75-.07-3.57-.14-5.42-.14-2.3 0-4.44.08-6.04.14h-.33c-3.2 0-4.93-2.39-4.93-4.65s1.7-4.58 4.86-4.58h.66l.3-.33c.24-.26.46-.68.59-1.11 2.87-8.95 6.85-20.4 10.05-29.6 1.45-4.17 2.72-7.83 3.62-10.48 1.11-3.33 3.72-5.4 6.81-5.4s6.05 2.26 7.17 5.62c3.85 11.04 10.82 30.67 14.29 39.8.15.44.55 1 .88 1.28l.27.22h.35c1.88 0 3.03.74 3.66 1.36 1.3 1.27 1.4 2.84 1.4 3.29 0 2.22-1.75 4.58-5 4.58h-.37c-1.75-.07-3.57-.14-5.42-.14-2.3 0-4.44.08-6.04.14h-.2Zm-11.78-41.37c-1.29 3.77-3.13 9.75-4.11 12.97l-.39 1.29h10.96l-.4-1.3c-1.03-3.33-3.11-9.74-4.11-12.82l-.97-2.99-.97 2.85ZM239.75 189.04c-3.57 0-6.82-.67-9.68-1.98l-.62-.28-.49.47c-.92.88-2.17 1.36-3.52 1.36-2.73 0-4.79-1.94-4.79-4.5v-.29c.06-1.09.14-2.64.14-4.22 0-1.94-.08-3.96-.14-5.32v-.2c0-2.6 2-4.42 4.86-4.42s4.79 1.79 4.79 4.36v.57c0 3.22 5.5 5.01 9.3 5.01 7.02 0 8.87-4.49 8.87-6.87 0-2.78-1.82-5.41-5-7.21-3.08-1.75-7.09-3.97-10.86-5.68-6.1-2.77-9.74-7.93-9.74-13.78 0-9.38 8.47-14.45 16.45-14.45 2.73 0 5.44.54 7.83 1.57l.54.23.47-.36c.83-.64 2.04-1.01 3.32-1.01 2.82 0 4.86 1.68 4.86 4v.33c-.08 1.36-.14 2.65-.14 4.04 0 1.7.08 3.27.14 4.45.06 1.16-.3 2.19-1.04 2.97-1.06 1.12-2.67 1.52-3.82 1.52-2.73 0-4.79-1.78-4.79-4.15v-.29c0-.2.02-.4.05-.59l.03-.21v-.09c-.07-1.42-2.96-3.41-7.52-3.41-4.32 0-6.58 2.63-6.58 5.22 0 2.21 1.46 4.21 4.12 5.63 1.37.72 3.12 1.57 4.98 2.47 2.2 1.06 4.43 2.15 6.25 3.11 6.79 3.67 10.69 9.31 10.69 15.47 0 9.26-8.32 16.52-18.95 16.52ZM284.56 188.27c-1.29 0-2.48-.46-3.37-1.3-.95-.89-1.47-2.13-1.47-3.5 0-2.36 1.7-4.86 4.86-4.86h1.29v-1c0-2.52.03-5.55.06-8.87.04-4.4.08-9.2.08-14.01 0-4.14 0-8.42-.13-12.31l-.03-.93-.93-.04c-.71-.03-1.8-.03-2.99-.03-3.71 0-4.88.06-5.46.47l-.08.06-.07.07c-.23.23-.4.58-.79 1.91-.1.3-.17.58-.25.89-.12.48-.24.95-.4 1.43-.63 2.21-2.49 3.62-4.74 3.62-2.39 0-4.86-1.77-4.86-4.72 0-.64.13-1.35.41-2.18 2.22-6.67 3.57-10.7 12.03-10.7h1.36c2.14.07 5.86.14 9.8.14 4.91 0 10.04-.07 13.21-.14h.74c6.14 0 9.46 1.93 11.09 6.45.15.4.34.86.56 1.36l.05.12c.37.88.8 1.88 1.11 2.83.23.6.34 1.26.34 1.96 0 3-2.51 4.79-4.93 4.79-2.26 0-4.13-1.41-4.75-3.59-.21-.78-.42-1.48-.63-2.1-.85-2.6-1.41-2.68-4.63-2.68-1.68 0-3.13 0-4.01.05l-.92.05-.02.92c-.13 5.07-.2 12.39-.2 20.08 0 5.65.07 11.04.14 15.11l.02.98h.98c3.54 0 5.16 2.52 5.16 4.86s-1.73 4.79-4.93 4.79h-.29c-1.91-.08-3.83-.14-5.79-.14-2.46 0-4.76.08-6.25.14-.13 0-.24.01-.35.01ZM341.23 189.04c-3.57 0-6.82-.67-9.68-1.98l-.62-.28-.49.47c-.92.88-2.17 1.36-3.52 1.36-2.73 0-4.79-1.94-4.79-4.5v-.29c.06-1.09.14-2.64.14-4.22 0-1.94-.08-3.96-.14-5.32v-.2c0-2.6 2-4.42 4.86-4.42s4.79 1.79 4.79 4.36v.57c0 3.22 5.5 5.01 9.3 5.01 7.02 0 8.87-4.49 8.87-6.87 0-2.78-1.82-5.41-5-7.21-3.08-1.75-7.09-3.97-10.86-5.68-6.1-2.77-9.74-7.93-9.74-13.78 0-9.38 8.47-14.45 16.45-14.45 2.73 0 5.44.54 7.83 1.57l.54.23.47-.36c.83-.64 2.04-1.01 3.32-1.01 2.82 0 4.86 1.68 4.86 4v.33c-.08 1.36-.14 2.65-.14 4.04 0 1.7.08 3.27.14 4.45.06 1.16-.3 2.19-1.04 2.97-1.06 1.12-2.67 1.52-3.82 1.52-2.73 0-4.79-1.78-4.79-4.15v-.29c0-.2.02-.4.05-.59l.03-.21v-.09c-.07-1.42-2.96-3.41-7.52-3.41-4.32 0-6.58 2.63-6.58 5.22 0 2.21 1.46 4.21 4.12 5.63 1.38.72 3.13 1.57 4.99 2.47 2.16 1.05 4.4 2.13 6.24 3.11 6.79 3.67 10.69 9.31 10.69 15.47 0 9.26-8.32 16.52-18.95 16.52ZM373.56 190.84c-.25 0-.54-.05-.88-.15-.56-.17-1.05-.34-1.51-.54-.98-.42-1.35-.89-.82-2.44.86-2.49 1.72-4.97 2.59-7.45l1.02-2.91.97-2.81c.78-2.26 1.56-4.52 2.37-6.77 1.18-3.27 1.25-6.3.22-9.28-.33-.95-.62-1.96-.9-2.93-.21-.75-.43-1.49-.66-2.23-.32-1.01-.3-2.01.07-3.07 2.21-6.36 4.41-12.72 6.64-19.07.2-.57.67-1.52 1.54-1.52.18 0 .37.04.57.11 1.21.44.96 1.75.7 2.5-1.01 2.92-2.03 5.84-3.05 8.76l-1.56 4.48c-.08.23-.17.46-.23.7-.43 1.47.05 2.68 1.28 3.24.32.14.64.22.96.22.87 0 1.64-.52 2.19-1.45.25-.42.41-.88.54-1.29l1.68-4.83c.94-2.71 1.89-5.43 2.85-8.13.27-.77.77-1.69 1.56-1.69.08 0 .16 0 .24.02.48.09.82.31 1.03.66.27.46.28 1.11.04 1.82-1.05 3.05-2.12 6.1-3.18 9.15l-1.51 4.32c-.09.24-.17.48-.24.72-.35 1.32.11 2.48 1.2 3.03.35.18.72.27 1.08.27.84 0 1.6-.48 2.13-1.34.27-.44.44-.92.59-1.35l1.81-5.2c.92-2.65 1.84-5.29 2.77-7.94.25-.72.72-1.57 1.52-1.57.11 0 .23.02.36.05.46.11.79.35.97.69.24.44.24 1.05.01 1.72-.79 2.31-1.6 4.62-2.4 6.93l-1.98 5.66c-.74 2.12-1.48 4.24-2.21 6.37-.38 1.11-1.03 1.98-1.99 2.64l-1.52 1.05c-1.23.84-2.45 1.69-3.67 2.55-2.07 1.47-3.55 3.46-4.4 5.9-1.98 5.71-3.97 11.42-5.97 17.13l-1.22 3.48c-.61 1.76-1.28 1.76-1.63 1.76ZM46.9 188.5c-.31 0-.88 0-1.44-1.47-.95-2.46-1.89-4.93-2.83-7.4l-1.09-2.85-1.04-2.72c-.87-2.25-1.73-4.5-2.57-6.76-.66-1.78-1.55-3.33-2.67-4.61l-.22-.26-.33-.07c-4.55-.92-9.28-5.9-11.77-12.42-3.32-8.69-1.81-17.37 3.36-19.34.69-.26 1.42-.4 2.18-.4 4.87 0 10.42 5.29 13.2 12.58 2.34 6.14 2.31 12.61-.08 16.47l-.14.22v.26c-.08 1.61.19 3.23.8 4.81 1.98 5.17 3.95 10.34 5.92 15.51l1.86 4.89c.69 1.81.28 2.34-.89 2.85-.53.23-1.02.41-1.5.56-.29.09-.54.13-.75.13ZM79.66 117.29c-2.81-.07-5.46-.14-8.15-.14-1.29 0-2.62 0-3.88.07h-.38c-1.45 0-2.63-.42-3.5-1.25-1.45-1.38-1.47-3.39-1.47-3.48 0-2.25 1.73-4.65 4.93-4.65h1.33l.06-.94c.4-6.49.4-25.87.4-35.18v-.99h-.99c-2.04-.04-5.45-.67-5.45-4.66 0-2.29 1.75-4.72 5-4.72h.29c2.62.1 4.97.14 7.15.14 3.01 0 6.27-.04 9.23-.08 2.46-.03 4.72-.06 6.44-.06 7.09 0 10.54 2.1 11.91 7.25.68 3.08.68 3.38.68 3.62 0 3.25-2.54 5-4.93 5s-4.17-1.64-4.56-3.98c-.45-2.36-1.14-2.6-3.88-2.6-1.34 0-3.43-.04-5.38-.08-1.71-.03-3.3-.06-4.2-.06h-.68l-.89.03-.08 1c-.02 1-.05 2.16-.08 3.42-.06 2.44-.13 5.28-.18 8.17l-.02 1.02h1.02c2.12-.02 4.77-.07 6.03-.12l.95-.04v-1.42c0-3.29 2.49-4.79 4.8-4.79 2.65 0 4.65 2 4.65 4.65v.29c-.07 1.64-.14 3.61-.14 5.51 0 2.67.09 5.01.14 6.18v.34c0 3.09-2.45 4.5-4.72 4.5s-4.72-1.58-4.72-4.5v-.29c0-.14 0-.28.02-.43l.08-1.06-3.68-.04c-1.16-.01-2.43-.03-3.5-.04H78.3v1c0 6.15 0 11.36.14 12.86l.07.76.76.2c.31.05.73.1 1.24.13 3.02.09 4.59 2.4 4.59 4.65s-1.78 4.79-5.08 4.79h-.36ZM136.86 117.3c-1.43 0-2.77-.51-3.68-1.39-.86-.83-1.31-1.93-1.31-3.19 0-2.05 1.43-4.29 4.17-4.61l1.18-.14-.34-1.14c-.49-1.63-1.51-5-2.19-7.09l-.23-.69h-16.87l-.21.72c-.53 1.82-1.53 5.25-2.04 7.02l-.35 1.22 1.27.06c1.37.06 2.59.55 3.43 1.37.85.83 1.3 1.96 1.3 3.27 0 2.2-1.54 4.58-4.93 4.58h-.37c-1.75-.07-3.57-.14-5.42-.14-2.3 0-4.44.08-6.04.14h-.33c-3.2 0-4.93-2.39-4.93-4.65s1.7-4.58 4.86-4.58h.66l.3-.33c.24-.26.46-.68.59-1.11 2.87-8.95 6.85-20.4 10.05-29.6 1.45-4.17 2.72-7.83 3.62-10.48 1.11-3.33 3.72-5.4 6.81-5.4s6.05 2.26 7.17 5.62c3.85 11.04 10.82 30.67 14.29 39.8.15.44.55 1 .88 1.28l.27.22h.35c1.88 0 3.03.74 3.66 1.36 1.3 1.27 1.4 2.84 1.4 3.29 0 2.22-1.75 4.58-5 4.58h-.37c-1.75-.07-3.57-.14-5.42-.14-2.3 0-4.44.08-6.04.14h-.2Zm-11.78-41.37c-1.29 3.77-3.13 9.74-4.11 12.97l-.39 1.29h10.96l-.4-1.3c-1.05-3.4-3.23-10.09-4.16-12.95l-.93-2.86-.97 2.84ZM165.21 117.24c-1.42 0-2.6-.44-3.51-1.32-1.2-1.15-1.52-2.68-1.52-3.41 0-2.29 1.73-4.72 4.93-4.72h.96l.07-.96c.33-7.5.85-16.43 1.3-24.3l.06-1.08c.2-3.47.38-6.7.53-9.48l.05-.97-.97-.08c-3.04-.25-4.72-1.94-4.72-4.76 0-2.31 1.5-4.79 4.79-4.79h.43c.79.05 2.27.13 3.99.13.52 0 1.05 0 1.58-.02.55-.02 1.08-.04 1.59-.04h.36c4.2 0 7.58 2.49 8.82 6.5.84 2.64 2.04 6.67 3.32 10.93l.07.24c.78 2.62 1.61 5.36 2.41 8 1.44 4.71 2.91 9.47 3.93 12.43l.94 2.69.95-2.68c1.56-4.39 3.62-11.11 5.61-17.6 1.74-5.68 3.37-11 4.55-14.39 1.32-3.78 4.43-6.04 8.31-6.04h1.43c1.88 0 4.16-.07 5.68-.14h.27c3.33 0 4.85 2.48 4.85 4.79s-1.4 4.11-3.57 4.57l-.81.17v.82c.15 8.33 1.11 23.11 1.74 32.89l.2 3.16h.93c3.29.05 4.79 2.44 4.79 4.66 0 2.32-1.75 4.79-5 4.79h-.52c-1.78-.08-3.49-.14-5.2-.14-2.07 0-4.07.07-5.75.14h-.28c-1.79 0-2.91-.72-3.53-1.32-1.2-1.15-1.52-2.68-1.52-3.41 0-2.28 1.72-4.7 4.9-4.72h1.05l-.05-1.05c-.41-7.93-.67-19.89-.79-26.32l-1.96-.27c-3.03 10.01-7.94 25.23-10.16 31.07-1.06 2.78-3.65 4.65-6.44 4.65-2.58 0-4.74-1.66-5.93-4.55-1.52-3.67-4.74-14.68-7.57-24.4-.75-2.56-1.47-5.04-2.12-7.24l-1.96.24c-.4 8.76-.86 23.66-.94 26.86l-.02.9.96.12h.08c3.63 0 5.26 2.45 5.26 4.72s-1.78 4.72-5.08 4.72h-.52c-1.78-.08-3.49-.14-5.2-.14-2.07 0-4.07.07-5.75.14h-.31ZM244 117.09c-3.43 0-5-2.48-5-4.79s1.57-4.79 5-4.79h.29l1.49.12.02-1.07c.14-6.86.2-13.95.2-21.08 0-4.52 0-9.19-.13-13.51l-.03-1.04-1.49.1h-.29c-1.45 0-2.65-.44-3.56-1.31a4.974 4.974 0 0 1-1.51-3.48c0-2.32 1.73-4.79 4.93-4.79h.36c2.04.09 4.01.14 5.79.14 3.15 0 6.18-.1 7.33-.14h.19c3.58 0 5.21 2.48 5.21 4.79s-1.78 4.79-5.08 4.79h-1.78l-.02.98c-.07 4.41-.14 9.12-.14 13.89 0 6.8.07 13.74.21 20.63l.02 1.04 1.04-.06c.12 0 .22-.01.31-.01h.14c3.59 0 5.22 2.52 5.22 4.86s-1.59 4.72-5.08 4.72h-.29c-1.94-.07-4.06-.14-6.15-.14-2.76 0-5.28.08-6.9.14h-.33ZM299.93 117.23c-1.86 0-4.6-.03-6.69-.05-1.28-.01-2.32-.02-2.75-.02h-.29c-2.38-.07-5.06-.07-7.44-.07-1.75 0-3.41 0-4.74.07h-.34c-3.39 0-4.93-2.44-4.93-4.72s1.59-4.57 4.64-4.71l.83-.04.11-.83c.36-2.69.36-11.15.36-25.17V70.82l-1.06.06s-.45.02-.56.02c-1.36 0-2.49-.42-3.37-1.25-1.3-1.23-1.59-2.98-1.59-3.55 0-2.29 1.73-4.72 4.93-4.72h.36c1.51.07 3.38.14 5.36.14s4.09-.05 6.69-.14h.19c3.58 0 5.21 2.48 5.21 4.79s-1.78 4.72-5.08 4.72h-1.26l-.11.98c-.13 5.63-.27 16.1-.27 24.41 0 5.21 0 9.32.14 10.62l.09 1.11h11.15c3.41 0 4.76-1.29 6.57-6.28.73-1.95 2.52-3.16 4.66-3.16 2.54 0 5.29 1.89 5.29 4.93 0 1.08-.25 1.7-1.45 4.47l-.06.15c-2.31 5.92-5.31 9.11-14.58 9.11ZM332.19 117.31c-1.76 0-2.84-.67-3.43-1.22-1.3-1.23-1.44-2.91-1.44-3.58 0-2.32 1.75-4.79 5-4.79h1.28v-1c0-1.7.02-3.4.04-5.15.02-2.08.04-4.23.04-6.51 0-.56-.02-.74-.04-.88l-.03-.13-.06-.12c-.03-.06-.24-.38-.43-.67l-.05-.08c-4.8-7.28-10.92-16.49-14.57-21.93-.21-.34-.58-.52-1.12-.52-4.55 0-5.51-2.53-5.51-4.65 0-2.27 1.54-4.72 4.93-4.72h.36c2.07.1 3.81.14 5.44.14 1.97 0 4.26-.05 6.83-.14h.33c3.48 0 5.07 2.3 5.07 4.43 0 1.73-1.13 3.83-3.67 4.63l-1.25.39.72 1.1c3.77 5.81 6.2 9.54 7.48 11.4l.79 1.14.83-1.11c2.04-2.7 5.69-8.47 7.44-11.42l.65-1.1-1.22-.37c-2.44-.73-3.53-2.76-3.53-4.45 0-2.25 1.78-4.65 5.08-4.65h.36c1.47.07 3.25.14 5.15.14 2.32 0 4.68-.08 6.47-.14 3.32 0 5.4 1.81 5.4 4.72 0 2.24-1.59 4.65-5.08 4.65h-.21l-.57.1-.24.38c-3.11 4.8-10.13 15.51-14.47 21.63-.67.9-.75 1.12-.75 2.28 0 1.35.01 2.94.03 4.66v.65c.02 1.99.04 4.14.04 6.28v1h1.22c3.59 0 5.22 2.48 5.22 4.79s-1.78 4.79-5.08 4.79h-.29c-1.96-.07-4.08-.14-6.08-.14-2.77 0-5.33.09-6.61.14-.17 0-.31.01-.46.01ZM124.78 28.31c.12 1.45.42 2.97.92 4.39 1.31-.8 2.64-1.78 3.71-2.64.24-.21.53-.3.8-.3.83 0 1.6.74 1.6 1.51 0 .36-.18.74-.65 1.07-1.39.95-2.97 1.84-4.45 2.55 1.22 2.2 3.03 4.01 5.37 4.84.68.24.98.74.98 1.25 0 .74-.65 1.51-1.6 1.51-.21 0-.45-.03-.68-.12-4.96-1.81-7.98-8.96-8.43-14.13h-1.28c-.62.47-1.19.92-1.72 1.34 2.55 2.2 4.07 6.17 4.07 9.29 0 2.76-1.28 5.85-5.31 5.85-1.84 0-2.85-.5-2.85-1.63 0-.62.42-1.19 1.22-1.19.12 0 .24 0 .36.03.45.09.86.15 1.25.15 1.96 0 2.67-1.37 2.67-3.68 0-.39-.03-.8-.09-1.22-5.4 4.63-10.51 5.85-11.31 5.85s-1.28-.59-1.28-1.19.39-1.19 1.13-1.31c4.12-.74 7.36-2.7 10.89-5.67-.15-.42-.3-.83-.5-1.22-5.52 3.83-9.94 4.54-9.97 4.54-.8 0-1.22-.59-1.22-1.19 0-.5.33-1.04 1.04-1.19 3.5-.71 6.23-1.9 9.02-3.92-.3-.36-.65-.71-1.01-1.01-3 1.87-6.77 2.82-7.24 2.82-.83 0-1.28-.59-1.28-1.16 0-.53.36-1.1 1.07-1.25 3.26-.71 5.34-1.51 7.69-3.03l-4.07.09h-.03c-.83 0-1.25-.56-1.25-1.13 0-.59.42-1.19 1.28-1.19h13.15c.86 0 1.28.59 1.28 1.19s-.39 1.13-1.22 1.13h-.06l-1.99-.06Zm-2.97-6.71c2.43 0 4.84.03 7.12.06 1.6.03 3.23 1.25 3.29 2.88.03.42.03.92.03 1.4 0 1.04 0 2.23-1.57 2.23-.71 0-1.42-.42-1.42-1.19v-.06c0-2.61-.03-2.91-1.87-2.97-2.37-.03-5.22-.06-7.98-.06-2.29 0-4.48.03-6.29.06-1.63.03-1.87.44-1.96 1.48v1.6c0 .77-.74 1.22-1.45 1.22s-1.4-.42-1.42-1.28c0-.36-.03-.77-.03-1.22s.03-.89.03-1.34c.06-1.34 1.13-2.73 3.41-2.76 2.26-.03 4.66-.06 7.09-.06l-.03-1.9v-.03c0-.89.77-1.31 1.54-1.31s1.54.45 1.54 1.31v.03l-.03 1.9ZM168.29 23.86c-1.63-.03-4.72-.06-7.92-.06-3.89 0-7.92.03-9.7.06-.74 0-1.19.53-1.19 1.28.03 1.45.06 3.06.06 4.72 0 4.51-.36 9.47-2.82 13.3-.36.56-.86.77-1.34.77-.65 0-1.25-.44-1.25-1.1 0-.21.06-.45.21-.68 2.05-3.59 2.43-7.89 2.43-12.17 0-1.93-.09-3.86-.12-5.7v-.06c0-1.57.95-2.76 2.97-2.82 1.45-.03 4.01-.06 6.83-.06v-1.81c0-.89.74-1.34 1.51-1.34s1.51.45 1.51 1.34v1.81c3.53 0 7 .03 8.84.06.92 0 1.34.59 1.34 1.19 0 .65-.48 1.28-1.34 1.28h-.03Zm-9.65 15.4c-.86 0-1.25-.53-1.25-1.1 0-.59.45-1.19 1.25-1.19h2.88v-3.41h-3.32c-.27 0-.48-.06-.65-.15l-.09.36c-.65 2.31-1.37 4.24-2.46 5.91 1.93 1.6 4.81 1.99 7.86 1.99 1.99 0 4.04-.15 5.97-.27h.09c.83 0 1.31.62 1.31 1.28s-.47 1.34-1.45 1.42c-1.81.18-3.47.27-4.93.27-5.08 0-8.25-1.04-10.3-2.82-1.45 1.54-3.56 3.15-4.36 3.15-.74 0-1.42-.65-1.42-1.31 0-.39.21-.77.74-1.04 1.48-.77 2.61-1.66 3.47-2.64-1.04-1.57-1.6-3.65-1.6-4.07 0-.92 1.01-.98 1.16-.98.59 0 1.16.39 1.31 1.07.15.71.33 1.31.59 1.87 1.04-1.96 1.42-3.77 1.42-3.92 0-.3-.3-.42-.53-.42h-1.04l-.06.12c-.21.39-.65.56-1.13.56-.59 0-1.16-.3-1.16-.83 0-.15.03-.3.12-.47 1.19-2.23 1.87-4.04 1.87-4.13 0-.21-.18-.27-.39-.27-.27 0-1.22.06-1.45.06-.56 0-.92-.59-.92-1.19 0-1.04.62-1.1 2.4-1.1 2.05 0 3.09.09 3.09 1.48 0 .42-.06.86-1.31 3.56h1.01c.71 0 1.4.24 1.81.71.21-.3.56-.5 1.04-.5h3.32V28.5c-2.14.36-3.15.42-3.23.42-.8 0-1.25-.65-1.25-1.28 0-.5.3-.98.98-1.04 2.46-.24 5.19-.77 7.75-1.69.18-.06.39-.09.53-.09.74 0 1.19.56 1.19 1.19 0 .77-.42 1.25-3.41 1.96v3.29h3.89c.8 0 1.19.56 1.19 1.13 0 .59-.39 1.16-1.19 1.16h-3.89v3.41h3.03c.8 0 1.19.56 1.19 1.13 0 .59-.39 1.16-1.19 1.16h-8.46ZM200.12 31.81c0-3.29-2.58-6.11-6.88-6.11h-.06c.47.21.83.65.83 1.25v.15c0 3.12-3.06 8.52-6.32 11.72-.74.71-1.51 1.01-2.23 1.01-2.11 0-4.01-2.37-4.01-5.61 0-5.37 5.28-10.83 11.96-10.83 6 0 9.73 3.98 9.73 8.61 0 1.1-.21 2.23-.65 3.35-2.61 6.59-10.68 7.51-11.1 7.51-1.04 0-1.69-.71-1.69-1.45 0-.65.5-1.28 1.63-1.48 5.4-.89 8.78-4.21 8.78-8.1Zm-8.58-5.97c-3.71.74-7.42 4.69-7.42 8.22 0 2.23 1.48 2.49 1.57 2.49.18 0 .39-.06.56-.24.89-.8 4.6-5.19 4.72-9.2 0-.59.24-1.04.56-1.28ZM223.93 43.18c-6.14 0-9.44-2.85-9.44-4.54 0-.86.71-1.6 1.54-1.6.45 0 .92.24 1.34.74 1.42 1.72 3.53 2.26 5.64 2.26 1.84 0 3.68-.39 5.04-.74.24-.06.48-.09.68-.09 1.04 0 1.6.71 1.6 1.51s-.53 1.57-1.66 1.87c-1.48.39-3.12.59-4.75.59Zm2.17-15.43c-4.04 0-7.27-1.51-8.04-1.9-.68-.33-.98-.95-.98-1.51 0-.71.47-1.37 1.33-1.37.27 0 .53.06.86.18 2.11.89 3.98 1.37 7.15 1.54 1.01.06 1.54.77 1.54 1.51s-.59 1.54-1.87 1.54Zm3.71-3.12c-.33-.5-1.6-1.69-2.17-2.02-.42-.24-.59-.56-.59-.86 0-.53.53-1.04 1.22-1.04s3.56 1.78 3.56 3.06c0 .71-.62 1.31-1.22 1.31-.3 0-.59-.12-.8-.44Zm3.44-1.96c-.36-.5-1.69-1.63-2.26-1.93-.45-.24-.62-.56-.62-.86 0-.56.56-1.1 1.22-1.1.74 0 3.65 1.75 3.65 3 0 .71-.62 1.31-1.22 1.31-.3 0-.56-.12-.77-.42ZM253.47 23.23c.53-.42 1.04-.59 1.45-.59.74 0 1.28.5 1.28 1.22 0 .92-.92 1.87-3.62 3.32-.39 2.67-1.01 6.17-1.04 7.95 1.87-2.08 4.81-3.98 7.54-3.98 2.08 0 5.43 1.19 5.43 4.3 0 1.63-.83 3.35-2.11 4.69-3.15 3.32-8.13 4.21-8.81 4.21-1.1 0-1.66-.71-1.66-1.42 0-.62.45-1.25 1.37-1.4 6.11-.89 8.22-4.45 8.22-5.88s-1.57-1.96-2.7-1.96c-2.37 0-5.37 2.4-6.83 4.66-.39.62-.33 1.01-1.13 1.34-.18.06-.39.12-.62.12-.71 0-1.51-.42-1.51-1.51 0-.83.27-3.68 1.1-10.06-.62.15-1.22.24-1.78.24-.86 0-2.97-.18-2.97-1.63 0-.71.53-1.39 1.4-1.39.24 0 .5.03.77.15.27.09.53.15.89.15.56 0 1.25-.15 2.05-.5.53-4.42.71-5.43 2.17-5.43.71 0 1.39.45 1.39 1.25 0 .45-.47 2.2-.53 2.4l.27-.24ZM288.03 44.43c-1.78 0-8.78-3.53-8.78-8.99 0-1.07.33-2.02.86-2.67.09-.12.15-.24.15-.3l-.03-.03c-.09 0-1.99 1.07-2.43 1.37-.33.21-.68.3-1.04.3-.92 0-1.78-.68-1.78-1.48 0-.53.39-1.1 1.31-1.54 1.28-.62 2.55-1.37 3.32-2.26 1.75-2.02 4.75-6.26 4.75-6.47 0-.06-.03-.09-.12-.09-.06 0-.12.03-.21.09-.56.33-3.12 1.45-4.36 1.45-1.01 0-1.54-.71-1.54-1.42 0-.62.42-1.22 1.31-1.34 2.08-.24 3.53-.62 5.04-1.16.39-.15.71-.42 1.28-.42.92 0 2.02.59 2.02 1.84 0 .53-.21 1.13-.65 1.72-2.02 2.76-3.24 4.1-4.87 5.82-.15.15-.21.24-.21.3 0 .03.03.03.09.03.03 0 .12 0 .18-.03 3.86-1.39 6.26-2.2 8.16-2.2 1.13 0 1.69.83 1.69 1.6 0 .71-.42 1.51-2.43 1.54-.98.03-2.73.3-3.41.5-1.72.53-2.29.56-3.53 1.81-.71.71-1.04 1.54-1.04 2.43 0 2.55 2.67 5.4 6.2 6.02 1.28.24 1.87 1.07 1.87 1.9s-.65 1.66-1.78 1.66ZM305.08 43.45c0-.5.27-.98.86-1.25 5.46-2.4 7.24-5.85 7.24-9.08 0-.83-.27-5.13-2.55-5.13-.68 0-1.46.36-2.34.92-1.54.95-2.38 1.34-3.12 1.34-1.13 0-1.75-.8-1.75-1.57 0-.71.5-1.42 1.6-1.57.74-.09 1.25-.39 2.02-.74 1.22-.56 2.52-.95 3.77-.95 5.22 0 5.34 7.06 5.34 7.66 0 7.95-8.28 11.96-9.5 11.96-.92 0-1.57-.8-1.57-1.57Zm7.48-20.51c-1.63 0-3.95-.36-5.76-1.28-.53-.3-.8-.74-.8-1.22 0-.65.53-1.31 1.37-1.31.24 0 .5.06.8.18 1.16.5 2.23.65 3.47.65.36 0 .68 0 1.04-.03h.12c1.01 0 1.51.65 1.51 1.34 0 1.22-.98 1.66-1.75 1.66Z" class="cls-1"/></svg>