<svg xmlns="http://www.w3.org/2000/svg" id="_デザイン" data-name="デザイン" viewBox="0 0 420 210"><defs><style>.cls-1{fill:none;stroke:#e1e472;stroke-linecap:round;stroke-linejoin:round;stroke-width:16px}.cls-2,.cls-3{fill:#e1e472;stroke-width:0}.cls-3{fill:#00a400}</style></defs><path d="M90.57 131.33c-1.73 0-3.98.03-6.45.06-2.95.04-6.21.08-9.21.08-2.18 0-4.5-.05-7.15-.14h-.29c-3.9 0-6 2.95-6 5.72 0 3.5 2.4 5.6 6.44 5.65 0 9.62 0 28.74-.4 35.12h-.39c-3.85 0-5.93 2.91-5.93 5.65 0 .26.05 2.56 1.78 4.2.8.76 2.23 1.63 4.62 1.51 1.23-.07 2.55-.07 3.82-.07 2.68 0 5.32.07 8.12.14h.39c3.95 0 6.08-2.98 6.08-5.79s-1.92-5.54-5.53-5.64c-.56-.03-.91-.08-1.12-.11v-.07c-.13-1.47-.13-6.85-.13-12.77 1.16 0 2.54.02 3.78.04.89.01 1.71.02 2.32.03-.01.17-.02.35-.02.51v.29c0 3.58 2.95 5.5 5.72 5.5s5.72-1.89 5.72-5.5v-.38c-.05-1.16-.14-3.5-.14-6.13 0-1.95.08-4.03.14-5.51v-.29c0-3.22-2.43-5.65-5.65-5.65-2.88 0-5.79 1.99-5.79 5.79v.45c-1.26.05-3.91.1-5.99.11.05-2.9.12-5.73.18-8.17.03-1.27.06-2.43.08-3.41v-.07h.64c.89 0 2.49.03 4.18.06 1.96.04 4.06.08 5.4.08 2.55 0 2.58.14 2.89 1.76.47 2.84 2.75 4.82 5.55 4.82s5.93-2.1 5.93-6c0-.33 0-.65-.71-3.88-1.49-5.6-5.34-7.99-12.88-7.99ZM146.42 170.6c-2.58 0-4.73 1.66-5.49 4.22q-.95 3.21-11.24 3.21c-1.22 0-3.11 0-4.01-.12v-.06c-.13-1.49-.14-7.03-.14-13.06 1.07 0 2.31.02 3.43.04.86.01 1.65.02 2.25.03-.01.15-.02.3-.02.43v.29c0 3.58 2.87 5.5 5.58 5.5s5.65-1.93 5.65-5.5v-.38c-.05-1.15-.14-3.45-.14-5.92 0-1.88.08-3.85.14-5.44v-.29c0-3.71-2.77-5.65-5.5-5.65-1.54 0-3.09.65-4.15 1.74-.74.76-1.62 2.12-1.57 4.19v.31c-1.24.04-3.64.05-5.56.05v-.85c.07-4.13.14-8.22.2-10.96.38 0 1.25 0 2.34.02 2.12.02 5.1.05 7.03.05 2.59 0 2.65.3 2.96 1.9.48 2.88 2.8 4.82 5.76 4.82s5.93-2 5.93-5.72c0-.69-.15-1.29-.3-1.86l-.06-.25c-1.75-6.25-3.52-10.04-13.3-10.04-1.75 0-3.97.03-6.39.06-5.58.07-12.29.06-15.78-.06h-.29c-3.9 0-6 2.91-6 5.65 0 3.5 2.4 5.6 6.44 5.65v7.23c0 14.36-.14 23.99-.39 27.97h-.4c-3.85 0-5.93 2.95-5.93 5.72 0 1.6.57 2.99 1.65 4.02 1.32 1.26 3.12 1.7 4.48 1.7h.27c4.62-.25 11.32-.14 17.19-.1 2.28.02 4.42.03 6.23.03 7.48 0 11.52-2.22 13.5-7.37.07-.15 1.59-3.79 1.59-5.42 0-3.62-3.02-5.79-5.93-5.79ZM208.03 178.03h-.02c-.19-.16-.47-.57-.58-.85-3.48-9.15-10.45-28.77-14.28-39.76-1.26-3.77-4.52-6.3-8.12-6.3s-6.51 2.33-7.76 6.08c-.9 2.65-2.17 6.3-3.62 10.47-3.21 9.23-7.2 20.71-10.06 29.63-.11.36-.28.62-.38.73H163c-3.81 0-5.86 2.87-5.86 5.58s2.08 5.65 5.93 5.65h.37c1.58-.07 3.7-.14 6-.14 1.88 0 3.76.08 5.51.14h.29c3.9 0 5.93-2.8 5.93-5.58 0-1.59-.56-2.97-1.61-3.99-1.03-1-2.48-1.58-4.08-1.65.51-1.77 1.51-5.2 2.04-7.02h15.39c.65 1.97 1.65 5.26 2.19 7.06-3.29.38-5.06 3.06-5.06 5.6 0 1.53.56 2.89 1.62 3.91 1.1 1.07 2.68 1.67 4.37 1.67h.24c1.58-.07 3.7-.14 6-.14 1.88 0 3.76.08 5.51.14h.29c3.9 0 6-2.87 6-5.58 0-.55-.12-2.46-1.7-4.01-.77-.76-2.15-1.64-4.34-1.64Zm-26.93-17.88c.97-3.18 2.82-9.18 4.1-12.94.96 2.95 3.11 9.57 4.15 12.94h-8.25ZM248.48 156.17c-1.84-.98-4.09-2.07-6.27-3.12-1.86-.9-3.61-1.75-4.96-2.46-2.32-1.23-3.59-2.92-3.59-4.74 0-2.1 1.92-4.22 5.58-4.22 4.41 0 6.49 1.92 6.51 2.45l-.02.13c-.03.23-.06.47-.06.71v.29c0 2.93 2.49 5.15 5.79 5.15 1.36 0 3.27-.48 4.55-1.83.93-.98 1.39-2.26 1.31-3.71-.07-1.17-.14-2.73-.14-4.4 0-1.38.07-2.67.14-4.04v-.31c0-2.9-2.47-5-5.86-5-1.54 0-2.95.45-3.94 1.22-2.51-1.08-5.34-1.65-8.22-1.65-8.46 0-17.45 5.41-17.45 15.45 0 6.26 3.86 11.75 10.33 14.7 3.73 1.69 7.72 3.9 10.78 5.64 2.85 1.62 4.49 3.93 4.49 6.34 0 2.03-1.64 5.87-7.87 5.87-3.84 0-8.3-1.75-8.3-4.01v-.57c0-3.11-2.44-5.36-5.79-5.36s-5.86 2.28-5.86 5.43v.24c.07 1.35.14 3.36.14 5.27 0 1.55-.08 3.08-.14 4.1v.41c0 3.14 2.49 5.5 5.79 5.5 1.6 0 3.1-.59 4.21-1.64 2.99 1.37 6.38 2.07 10.09 2.07 11.19 0 19.95-7.7 19.95-17.52 0-6.54-4.08-12.5-11.22-16.36ZM315.45 139.81c-.23-.53-.44-1.03-.59-1.44-1.78-4.92-5.49-7.11-12.04-7.11h-.76c-3.16.07-8.28.14-13.19.14-3.94 0-7.61-.07-9.8-.14h-1.36c-9.19 0-10.78 4.77-12.98 11.38-.31.93-.46 1.74-.46 2.49 0 3.58 2.98 5.72 5.86 5.72 2.71 0 4.95-1.72 5.69-4.3.17-.51.29-.99.41-1.44.08-.3.15-.59.25-.91.11-.36.39-1.33.55-1.5.42-.29 2.79-.29 4.89-.29 1.18 0 2.25 0 2.95.03.13 3.87.13 8.14.13 12.27 0 4.85-.04 9.68-.08 14-.03 3.33-.06 6.36-.06 8.88h-.29c-3.81 0-5.86 3.02-5.86 5.86 0 1.65.63 3.15 1.78 4.23 1.08 1.02 2.52 1.57 4.06 1.57.13 0 .26 0 .39-.01 1.49-.06 3.77-.14 6.21-.14 2 0 4 .07 5.79.14h.29c3.85 0 5.93-2.98 5.93-5.79s-2.11-5.86-6.15-5.86c-.07-4.15-.14-9.55-.14-15.09 0-7.74.07-14.99.2-20.05.84-.05 2.27-.05 3.95-.05q3.03 0 3.68 1.99c.2.61.41 1.29.62 2.06.75 2.62 2.99 4.31 5.71 4.31 2.92 0 5.93-2.17 5.93-5.79 0-.83-.14-1.62-.39-2.28-.33-.99-.76-2.01-1.14-2.9ZM349.96 156.17c-1.84-.98-4.09-2.07-6.27-3.12-1.86-.9-3.61-1.75-4.96-2.45-2.32-1.23-3.59-2.92-3.59-4.74 0-2.1 1.92-4.22 5.58-4.22 4.41 0 6.49 1.92 6.51 2.45l-.02.13c-.03.23-.06.47-.06.71v.29c0 2.93 2.49 5.15 5.79 5.15 1.36 0 3.27-.48 4.55-1.83.93-.98 1.39-2.26 1.31-3.71-.07-1.17-.14-2.73-.14-4.4 0-1.38.07-2.67.14-4.04v-.31c0-2.9-2.47-5-5.86-5-1.54 0-2.95.45-3.94 1.22-2.51-1.08-5.34-1.65-8.22-1.65-8.46 0-17.45 5.41-17.45 15.45 0 6.26 3.86 11.75 10.33 14.7 3.73 1.69 7.72 3.9 10.78 5.64 2.85 1.62 4.49 3.93 4.49 6.34 0 2.03-1.64 5.87-7.87 5.87-3.84 0-8.3-1.75-8.3-4.01v-.57c0-3.11-2.44-5.36-5.79-5.36s-5.86 2.28-5.86 5.43v.24c.07 1.35.14 3.36.14 5.27 0 1.55-.08 3.08-.14 4.1v.41c0 3.14 2.49 5.5 5.79 5.5 1.6 0 3.1-.59 4.21-1.64 2.99 1.37 6.38 2.07 10.09 2.07 11.19 0 19.95-7.7 19.95-17.52 0-6.54-4.08-12.5-11.22-16.36ZM399.79 133.97c-1.34-.34-2.46.42-3.07 2.16-1.53 4.33-3.03 8.67-4.54 13.01-.15.44-.3.9-.54 1.28-.49.79-1.18 1.07-1.91.7-.67-.34-.92-1.02-.69-1.89.08-.3.2-.59.3-.88 1.54-4.41 3.08-8.82 4.6-13.23.65-1.9-.14-3.49-1.83-3.79-1.26-.23-2.29.55-2.92 2.32-1.51 4.26-2.98 8.52-4.47 12.79-.15.44-.3.9-.53 1.29-.46.79-1.12 1.18-1.88.83-.78-.36-1.02-1.09-.74-2.05.09-.3.2-.59.3-.88 1.51-4.34 3.02-8.67 4.53-13.01.63-1.82.13-3.24-1.3-3.76-1.46-.53-2.76.19-3.4 2.02-2.23 6.35-4.44 12.71-6.65 19.07-.43 1.25-.47 2.48-.08 3.7.55 1.72.98 3.49 1.57 5.18.98 2.82.85 5.66-.21 8.61-1.15 3.18-2.24 6.39-3.35 9.59-1.2 3.45-2.42 6.91-3.61 10.37-.65 1.88-.23 2.99 1.37 3.68.53.23 1.07.42 1.62.58 1.9.56 3-.1 3.74-2.24 2.4-6.87 4.8-13.74 7.18-20.62.8-2.3 2.17-4.09 4.03-5.41 1.71-1.22 3.45-2.4 5.18-3.59 1.1-.76 1.9-1.78 2.36-3.14 1.05-3.06 2.12-6.1 3.18-9.15 1.14-3.27 2.29-6.54 3.41-9.82.62-1.82-.08-3.31-1.69-3.71ZM43.2 164.2c-.57-1.48-.81-2.95-.74-4.41 2.48-4 2.71-10.68.17-17.36-3.52-9.22-10.98-14.93-16.68-12.76-5.69 2.17-7.45 11.41-3.94 20.63 2.7 7.08 7.74 12.08 12.5 13.04 1.05 1.21 1.87 2.65 2.48 4.3 1.17 3.18 2.41 6.33 3.61 9.49 1.3 3.42 2.6 6.84 3.92 10.25.72 1.86 1.75 2.44 3.42 1.94.55-.17 1.09-.37 1.61-.6 1.82-.79 2.23-2 1.42-4.12-2.59-6.8-5.18-13.6-7.78-20.4ZM67.22 106.86c-3.85 0-5.93 2.91-5.93 5.65 0 .26.05 2.56 1.78 4.2.8.76 2.23 1.63 4.62 1.51 1.23-.07 2.55-.07 3.82-.07 2.68 0 5.32.07 8.12.14h.39c3.95 0 6.08-2.98 6.08-5.79s-1.92-5.54-5.53-5.64c-.56-.03-.91-.08-1.12-.11v-.07c-.13-1.47-.13-6.85-.13-12.77 1.16 0 2.54.02 3.78.04.89.01 1.71.02 2.32.03-.01.17-.02.35-.02.51v.29c0 3.58 2.95 5.5 5.72 5.5s5.72-1.89 5.72-5.5v-.38c-.05-1.16-.14-3.5-.14-6.13 0-1.95.08-4.03.14-5.51v-.29c0-3.22-2.43-5.65-5.65-5.65-2.88 0-5.79 1.99-5.79 5.79v.45c-1.26.05-3.91.1-5.99.11.05-2.9.12-5.73.18-8.17.03-1.27.06-2.43.08-3.41v-.07h.64c.89 0 2.49.03 4.18.06 1.96.04 4.06.08 5.4.08 2.55 0 2.58.14 2.89 1.76.47 2.84 2.75 4.82 5.55 4.82s5.93-2.1 5.93-6c0-.33 0-.65-.71-3.88-1.49-5.6-5.34-7.99-12.88-7.99-1.73 0-3.98.03-6.45.06-2.95.04-6.21.08-9.21.08-2.18 0-4.5-.05-7.15-.14h-.29c-3.9 0-6 2.95-6 5.72 0 3.5 2.4 5.6 6.44 5.65 0 9.62 0 28.74-.4 35.12h-.39ZM148.85 107.08h-.02c-.19-.16-.47-.57-.58-.85-3.48-9.15-10.45-28.77-14.28-39.76-1.26-3.77-4.52-6.3-8.12-6.3s-6.51 2.33-7.76 6.08c-.9 2.65-2.17 6.3-3.62 10.47-3.21 9.23-7.2 20.71-10.06 29.63-.11.36-.28.62-.38.73h-.21c-3.81 0-5.86 2.87-5.86 5.58s2.08 5.65 5.93 5.65h.37c1.58-.07 3.7-.14 6-.14 1.88 0 3.76.08 5.51.14h.29c3.9 0 5.93-2.8 5.93-5.58 0-1.59-.56-2.97-1.61-3.99-1.03-1-2.48-1.58-4.08-1.65.51-1.77 1.51-5.2 2.04-7.02h15.39c.65 1.97 1.65 5.26 2.19 7.06-3.29.38-5.06 3.06-5.06 5.6 0 1.53.56 2.89 1.62 3.91 1.1 1.07 2.68 1.67 4.37 1.67h.24c1.58-.07 3.7-.14 6-.14 1.88 0 3.76.08 5.51.14h.29c3.9 0 6-2.87 6-5.58 0-.55-.12-2.46-1.7-4.01-.77-.76-2.15-1.64-4.34-1.64ZM121.92 89.2c.97-3.18 2.82-9.18 4.1-12.94.96 2.96 3.11 9.57 4.15 12.94h-8.25ZM224.55 118.23c3.9 0 6-2.98 6-5.79s-1.98-5.61-5.78-5.65l-.14-2.14c-.63-9.81-1.59-24.6-1.73-32.93 2.63-.56 4.36-2.74 4.36-5.55s-2.01-5.79-5.86-5.79h-.31c-1.5.07-3.77.14-5.63.14h-1.43c-4.33 0-7.79 2.51-9.25 6.71-1.19 3.41-2.83 8.76-4.56 14.43-2 6.52-4.05 13.22-5.59 17.56-1.04-2.99-2.53-7.81-3.92-12.39-.8-2.64-1.62-5.38-2.4-8-1.31-4.36-2.54-8.48-3.39-11.18-1.38-4.44-5.12-7.2-9.78-7.2h-.36c-.51 0-1.06.02-1.62.04-2.09.07-4.2-.02-5.4-.1h-.56c-3.8 0-5.79 2.91-5.79 5.79 0 3.36 2.09 5.47 5.64 5.76-.16 3.05-.37 6.66-.59 10.52-.45 7.9-.97 16.83-1.3 24.35h-.03c-3.85 0-5.93 2.95-5.93 5.72 0 1.1.48 2.84 1.82 4.13.81.78 2.23 1.69 4.55 1.59 1.67-.07 3.65-.14 5.71-.14 1.69 0 3.39.07 5.19.13h.54c3.95 0 6.08-2.94 6.08-5.71s-2.14-5.72-6.22-5.72h-.06c.08-3.42.55-18.27.93-26.83.65 2.2 1.37 4.68 2.12 7.24 2.84 9.75 6.06 20.79 7.6 24.5 1.35 3.29 3.85 5.17 6.86 5.17 3.2 0 6.17-2.13 7.38-5.29 2.32-6.1 7.34-21.73 10.18-31.14.13 7.08.39 18.59.79 26.35-3.83.02-5.9 2.95-5.9 5.72 0 1.1.48 2.84 1.82 4.13.77.74 2.12 1.6 4.23 1.6h.33c1.67-.07 3.66-.14 5.71-.14 1.69 0 3.39.07 5.19.13h.54ZM257.73 72.03c3.95 0 6.08-2.98 6.08-5.79s-2.14-5.79-6.22-5.79h-.22c-1.15.04-4.15.14-7.29.14-2.39 0-4.6-.09-5.79-.14h-.36c-3.85 0-5.93 2.98-5.93 5.79 0 1.19.48 2.92 1.82 4.2.81.78 2.26 1.68 4.6 1.58l.45-.03c.13 4.31.13 8.97.13 13.48 0 7.13-.07 14.2-.2 21.06l-.35-.03H243.99c-3.94 0-6 2.91-6 5.79s2.06 5.79 6 5.79h.37c1.61-.07 4.1-.14 6.86-.14 2.12 0 4.26.07 6.15.14h.29c3.99 0 6.08-2.88 6.08-5.72s-2.14-5.86-6.22-5.86h-.14c-.1 0-.23 0-.37.01-.14-6.87-.21-13.81-.21-20.61 0-4.66.06-9.21.14-13.88h.8ZM310.72 97.57c-2.57 0-4.71 1.46-5.6 3.82-1.77 4.88-2.85 5.62-5.63 5.62h-10.23c0-.06 0-.13-.01-.21-.13-1.25-.13-5.55-.13-10.52 0-8.1.13-18.51.27-24.39h.38c3.95 0 6.08-2.95 6.08-5.72s-2.14-5.79-6.22-5.79h-.22c-2.58.1-4.76.14-6.65.14-2.06 0-4-.08-5.36-.14h-.36c-3.85 0-5.93 2.95-5.93 5.72 0 .86.4 2.86 1.9 4.28.8.76 2.21 1.63 4.45 1.51h.23v9.81c0 13.61 0 22.41-.35 25.04-3.63.17-5.59 3.02-5.59 5.71 0 2.84 2.04 5.72 5.93 5.72h.39c1.31-.07 2.95-.07 4.69-.07 2.37 0 5.05 0 7.38.07h.35c.43 0 1.47.01 2.75.02 2.09.02 4.83.05 6.7.05 9.79 0 13.11-3.59 15.5-9.72l.06-.15c1.18-2.72 1.53-3.54 1.53-4.87 0-3.66-3.27-5.93-6.29-5.93ZM360.07 60.38c-1.79.07-4.13.14-6.43.14-1.84 0-3.59-.07-5.15-.14h-.36c-3.95 0-6.08 2.91-6.08 5.65 0 2.21 1.46 4.58 4.24 5.41-1.81 3.07-5.43 8.76-7.37 11.33-1.26-1.83-3.67-5.52-7.46-11.37 2.88-.91 4.37-3.31 4.37-5.58 0-2.7-2.09-5.43-6.08-5.43h-.36c-2.55.1-4.83.14-6.79.14-1.6 0-3.34-.05-5.44-.14h-.36c-3.9 0-5.93 2.88-5.93 5.72 0 1.7.63 5.65 6.51 5.65.19 0 .26.02.27.04 3.63 5.42 9.77 14.65 14.59 21.95l.06.08c.16.24.34.52.37.57.02.07.02.3.02.67 0 2.28-.02 4.42-.04 6.5-.02 1.75-.03 3.46-.03 5.16h-.29c-3.9 0-6 2.98-6 5.79 0 .8.17 2.81 1.76 4.31.74.7 2.05 1.5 4.12 1.5.16 0 .33 0 .5-.02 1.27-.05 3.81-.14 6.57-.14 2.04 0 4.18.07 6.08.14h.29c3.95 0 6.08-2.98 6.08-5.79s-2.14-5.79-6.22-5.79h-.22c0-2.21-.02-4.42-.04-6.47-.02-1.9-.03-3.65-.03-5.12q0-.95.56-1.7c4.37-6.16 11.38-16.84 14.49-21.66.04 0 .08-.01.13-.02h.05c3.99 0 6.08-2.84 6.08-5.65 0-3.47-2.5-5.72-6.43-5.72ZM107.78 31.99c.04 1.04.83 1.76 1.92 1.76.96 0 1.95-.64 1.95-1.75v-1.53c.06-.77.08-1 1.47-1.03 3.99-.07 9.93-.05 14.25 0q1.39.04 1.39 2.53c0 1.1.99 1.69 1.92 1.69 2.07 0 2.07-1.71 2.07-2.73 0-.49 0-1-.03-1.41-.07-1.97-2.02-3.33-3.79-3.36-2.13-.03-4.36-.06-6.62-.06l.02-1.43c0-1.19-1.03-1.81-2.04-1.81-1.2 0-2.04.74-2.04 1.84l.02 1.39c-2.26 0-4.49.03-6.59.06-2.59.03-3.84 1.7-3.91 3.26 0 .22 0 .43-.01.65 0 .23-.02.46-.02.68 0 .24 0 .47.02.69 0 .18.01.36.01.54Z" class="cls-2"/><path d="M109.34 48.53c.69 0 5.51-1.01 10.89-5.35v.22c0 2.8-1.1 3.18-2.17 3.18-.31 0-.67-.04-1.12-.13-.18-.04-.34-.04-.48-.04-1.13 0-1.72.85-1.72 1.69 0 .97.58 2.13 3.35 2.13 4.29 0 5.81-3.28 5.81-6.35 0-3.33-1.54-7.04-3.79-9.26.35-.28.72-.57 1.12-.87h.65c.62 5.6 3.81 12.31 8.71 14.1.27.1.56.15.86.15 1.26 0 2.1-1.04 2.1-2.01 0-.78-.5-1.44-1.31-1.72-2.38-.84-3.92-2.64-4.84-4.15 1.4-.7 2.82-1.53 4.03-2.35.56-.39.87-.91.87-1.48 0-1.05-1-2.01-2.1-2.01-.42 0-.82.15-1.12.41-1.03.83-2.11 1.62-3.12 2.27-.3-.98-.52-2.04-.64-3.11l1.5.04c1.13 0 1.72-.82 1.72-1.63s-.61-1.69-1.78-1.69h-13.15c-1.17 0-1.78.85-1.78 1.69s.6 1.63 1.79 1.63l2.14-.05c-1.68.88-3.44 1.46-5.87 2-.86.18-1.47.89-1.47 1.74s.62 1.66 1.78 1.66c.53 0 4.15-.9 7.19-2.7.11.1.21.2.31.31-2.58 1.79-5.12 2.85-8.38 3.51-.99.21-1.44.99-1.44 1.68 0 .82.6 1.69 1.72 1.69.04 0 4.34-.67 9.77-4.3.04.1.08.21.12.31-3.79 3.14-6.82 4.69-10.38 5.33-.91.15-1.55.89-1.55 1.8 0 .82.62 1.69 1.78 1.69ZM145.38 49.42c.72 0 1.35-.36 1.76-1 .04-.07.08-.13.13-.2v.17c0 .95.92 1.81 1.92 1.81s3.07-1.64 4.4-2.97c2.28 1.78 5.64 2.64 10.26 2.64 1.49 0 3.16-.09 4.97-.27 1.31-.12 1.91-1.08 1.91-1.92s-.63-1.78-1.81-1.78h-.12l-.78.05c-1.7.11-3.45.22-5.15.22-3.4 0-5.65-.5-7.2-1.61.86-1.41 1.55-3.1 2.24-5.52.1.01.2.02.3.02h2.82v2.41h-2.38c-1.13 0-1.75.87-1.75 1.69 0 .77.55 1.6 1.75 1.6h8.46c1.11 0 1.69-.83 1.69-1.66s-.58-1.63-1.69-1.63h-2.53v-2.41h3.39c1.11 0 1.69-.83 1.69-1.66s-.58-1.63-1.69-1.63h-3.39v-2.4c2.64-.66 3.41-1.21 3.41-2.35s-1.14-1.98-2.39-1.57c-2.91 1.05-5.75 1.48-7.62 1.66-.86.07-1.43.69-1.43 1.54s.65 1.78 1.75 1.78c.14 0 1.03-.06 2.73-.33v1.67h-2.82c-.4 0-.76.11-1.05.32-.48-.34-1.11-.53-1.79-.53h-.23c.95-2.12 1.03-2.59 1.03-3.06 0-1.98-1.74-1.98-3.59-1.98-1.12 0-2.08 0-2.57.53 0-.31-.01-.62-.02-.92 0-.23.07-.78.7-.78 1.74-.03 5.73-.06 9.7-.06 3.2 0 6.28.03 7.92.06h.04c1.19 0 1.84-.92 1.84-1.78 0-.81-.57-1.69-1.83-1.69-1.75-.03-4.96-.06-8.35-.06v-1.31c0-2.41-4.03-2.41-4.03 0v1.31c-2.68 0-5.01.03-6.34.06-2.13.06-3.45 1.33-3.45 3.39.01.72.03 1.46.05 2.2.03 1.15.07 2.32.07 3.49 0 3.84-.28 8.26-2.36 11.9-.19.3-.28.62-.28.95 0 .9.77 1.6 1.75 1.6Zm8.18-10.65h.76c-.07.37-.33 1.37-.84 2.55-.06-.21-.11-.44-.17-.69-.11-.52-.43-.95-.86-1.21.46-.08.85-.3 1.1-.65Zm-3.53-3.92v-1.59c.24.32.6.54 1.05.54.12 0 .41-.01.71-.03.18 0 .36-.02.51-.02-.24.63-.83 2.02-1.71 3.66-.12.23-.17.46-.17.7 0 .47.25.85.67 1.09-.65.14-1.23.6-1.23 1.43 0 .49.52 2.41 1.48 4.01-.83.87-1.84 1.61-3.07 2.25-.17.08-.3.17-.42.27 1.91-3.76 2.18-8.29 2.18-12.32ZM185.46 45.73c1.01 0 1.99-.44 2.86-1.27 3.17-3.11 6.59-8.73 6.59-12.36v-.32c2.61.57 4.32 2.48 4.32 5.04 0 3.52-3.23 6.42-8.05 7.22-1.75.32-2.37 1.43-2.37 2.37 0 1.16.97 2.35 2.59 2.35.09 0 9.02-.73 11.94-8.08.48-1.2.72-2.44.72-3.68 0-5.51-4.47-9.51-10.63-9.51-6.85 0-12.86 5.48-12.86 11.73 0 3.59 2.2 6.51 4.91 6.51Zm4.61-13.44c-.21 3.5-3.43 7.46-4.35 8.35-.21-.09-.69-.42-.69-1.57 0-2.53 2.31-5.48 5.05-6.78ZM227.19 28.39c.44.26 1.61 1.34 1.86 1.73.35.54.92.86 1.56.86 1.13 0 2.12-1.03 2.12-2.21 0-.12-.01-.25-.04-.37.35.38.82.59 1.34.59 1.13 0 2.12-1.03 2.12-2.21 0-1.87-3.41-3.9-4.55-3.9s-2.12.92-2.12 2c0 .11.01.22.03.33-.5-.25-.95-.4-1.24-.4-1.15 0-2.12.89-2.12 1.94 0 .66.38 1.26 1.04 1.64ZM223.93 49.08c1.69 0 3.41-.22 4.98-.62 1.42-.37 2.33-1.45 2.33-2.74 0-1.67-1.52-2.77-3.41-2.3-4.75 1.24-8.04.87-9.76-1.21-.57-.69-1.29-1.07-2.03-1.07-1.32 0-2.44 1.15-2.44 2.5 0 2.22 3.68 5.44 10.34 5.44Z" class="cls-2"/><path d="M217.65 31.65c.94.47 4.31 1.99 8.45 1.99 1.82 0 2.77-1.23 2.77-2.44 0-1.13-.82-2.32-2.39-2.41-3.24-.18-4.97-.68-6.89-1.49-.44-.16-.8-.23-1.17-.23-1.27 0-2.24.97-2.24 2.27 0 .99.57 1.89 1.48 2.32ZM248.03 34.39c.24 0 .48-.01.73-.04-.61 4.8-.95 7.96-.95 8.96 0 1.66 1.25 2.41 2.41 2.41.36 0 .66-.08.96-.19.91-.37 1.16-.9 1.36-1.32.05-.11.11-.23.19-.36 1.32-2.05 4.08-4.25 6.07-4.25.47 0 1.8.19 1.8 1.06 0 1-1.83 4.17-7.46 4.99-1.47.24-2.12 1.32-2.12 2.28 0 1.13.9 2.32 2.56 2.32.68 0 6.01-.84 9.46-4.49 1.5-1.57 2.36-3.5 2.36-5.31 0-3.79-3.88-5.2-6.33-5.2s-4.64 1.17-6.43 2.61c.14-1.05.32-2.25.5-3.43.09-.57.18-1.14.26-1.68 2.23-1.24 3.7-2.4 3.7-3.9 0-1.33-1.16-2.3-2.56-2.09.06-.29.09-.54.09-.7 0-1.22-.99-2.15-2.29-2.15-2.21 0-2.51 1.68-3 5.69-.76.27-1.49.24-1.74.17-.34-.15-.71-.23-1.14-.23-1.29 0-2.3 1.01-2.3 2.29 0 1.56 1.48 2.53 3.87 2.53ZM276.75 40c.55 0 1.07-.15 1.54-.45a.77.77 0 0 0 .13-.09c-.05.31-.08.64-.08.97 0 6.18 7.68 9.89 9.68 9.89 1.53 0 2.68-1.1 2.68-2.56s-1.02-2.49-2.61-2.79c-3.22-.57-5.46-3.16-5.46-5.14 0-.69.25-1.27.78-1.8.92-.92 1.32-1.03 2.51-1.39l.65-.2c.57-.18 2.25-.44 3.16-.47 3-.04 3.32-1.72 3.32-2.44 0-1.21-.91-2.5-2.59-2.5-1.52 0-3.25.45-5.55 1.22.86-.99 1.76-2.11 2.92-3.7.54-.73.83-1.51.83-2.26 0-1.78-1.5-2.74-2.92-2.74-.62 0-1.04.21-1.36.36-.08.04-.16.08-.22.1-1.66.59-3.06.91-4.86 1.11-1.44.19-2.09 1.26-2.09 2.23 0 1.13.86 2.32 2.44 2.32.66 0 1.55-.24 2.39-.53-.96 1.33-2.2 2.98-3.13 4.06-.56.64-1.55 1.31-3.04 2.03-1.58.76-1.81 1.8-1.81 2.35 0 1.29 1.23 2.38 2.68 2.38ZM306.39 27.46c1.99 1.01 4.49 1.37 6.17 1.37 1.32 0 2.65-.88 2.65-2.56 0-1.11-.83-2.24-2.41-2.24h-.19c-.33.03-.63.03-.96.03-1.27 0-2.17-.17-3.14-.59-.41-.16-.78-.24-1.13-.24-1.25 0-2.27.99-2.27 2.21 0 .83.46 1.56 1.29 2.02ZM305.17 36.14c1.01 0 2-.49 3.6-1.48.83-.52 1.44-.78 1.86-.78 1.15 0 1.65 2.8 1.65 4.23 0 3.47-2.32 6.33-6.71 8.26-.87.39-1.39 1.17-1.39 2.07 0 1.19.99 2.47 2.47 2.47 1.69 0 10.4-4.48 10.4-12.86 0-3.18-1.32-8.56-6.24-8.56-1.27 0-2.67.35-4.15 1.03l-.39.19c-.54.26-.89.42-1.37.48-1.65.22-2.38 1.4-2.38 2.46 0 1.22.99 2.47 2.65 2.47Z" class="cls-2"/><path d="M90.57 131.33c-1.73 0-3.98.03-6.45.06-2.95.04-6.21.08-9.21.08-2.18 0-4.5-.05-7.15-.14h-.29c-3.9 0-6 2.95-6 5.72 0 3.5 2.4 5.6 6.44 5.65 0 9.62 0 28.74-.4 35.12h-.39c-3.85 0-5.93 2.91-5.93 5.65 0 .26.05 2.56 1.78 4.2.8.76 2.23 1.63 4.62 1.51 1.23-.07 2.55-.07 3.82-.07 2.68 0 5.32.07 8.12.14h.39c3.95 0 6.08-2.98 6.08-5.79s-1.92-5.54-5.53-5.64c-.56-.03-.91-.08-1.12-.11v-.07c-.13-1.47-.13-6.85-.13-12.77 1.16 0 2.54.02 3.78.04.89.01 1.71.02 2.32.03-.01.17-.02.35-.02.51v.29c0 3.58 2.95 5.5 5.72 5.5s5.72-1.89 5.72-5.5v-.38c-.05-1.16-.14-3.5-.14-6.13 0-1.95.08-4.03.14-5.51v-.29c0-3.22-2.43-5.65-5.65-5.65-2.88 0-5.79 1.99-5.79 5.79v.45c-1.26.05-3.91.1-5.99.11.05-2.9.12-5.73.18-8.17.03-1.27.06-2.43.08-3.41v-.07h.64c.89 0 2.49.03 4.18.06 1.96.04 4.06.08 5.4.08 2.55 0 2.58.14 2.89 1.76.47 2.84 2.75 4.82 5.55 4.82s5.93-2.1 5.93-6c0-.33 0-.65-.71-3.88-1.49-5.6-5.34-7.99-12.88-7.99ZM146.42 170.6c-2.58 0-4.73 1.66-5.49 4.22q-.95 3.21-11.24 3.21c-1.22 0-3.11 0-4.01-.12v-.06c-.13-1.49-.14-7.03-.14-13.06 1.07 0 2.31.02 3.43.04.86.01 1.65.02 2.25.03-.01.15-.02.3-.02.43v.29c0 3.58 2.87 5.5 5.58 5.5s5.65-1.93 5.65-5.5v-.38c-.05-1.15-.14-3.45-.14-5.92 0-1.88.08-3.85.14-5.44v-.29c0-3.71-2.77-5.65-5.5-5.65-1.54 0-3.09.65-4.15 1.74-.74.76-1.62 2.12-1.57 4.19v.31c-1.24.04-3.64.05-5.56.05v-.85c.07-4.13.14-8.22.2-10.96.38 0 1.25 0 2.34.02 2.12.02 5.1.05 7.03.05 2.59 0 2.65.3 2.96 1.9.48 2.88 2.8 4.82 5.76 4.82s5.93-2 5.93-5.72c0-.69-.15-1.29-.3-1.86l-.06-.25c-1.75-6.25-3.52-10.04-13.3-10.04-1.75 0-3.97.03-6.39.06-5.58.07-12.29.06-15.78-.06h-.29c-3.9 0-6 2.91-6 5.65 0 3.5 2.4 5.6 6.44 5.65v7.23c0 14.36-.14 23.99-.39 27.97h-.4c-3.85 0-5.93 2.95-5.93 5.72 0 1.6.57 2.99 1.65 4.02 1.32 1.26 3.12 1.7 4.48 1.7h.27c4.62-.25 11.32-.14 17.19-.1 2.28.02 4.42.03 6.23.03 7.48 0 11.52-2.22 13.5-7.37.07-.15 1.59-3.79 1.59-5.42 0-3.62-3.02-5.79-5.93-5.79ZM208.03 178.03h-.02c-.19-.16-.47-.57-.58-.85-3.48-9.15-10.45-28.77-14.28-39.76-1.26-3.77-4.52-6.3-8.12-6.3s-6.51 2.33-7.76 6.08c-.9 2.65-2.17 6.3-3.62 10.47-3.21 9.23-7.2 20.71-10.06 29.63-.11.36-.28.62-.38.73H163c-3.81 0-5.86 2.87-5.86 5.58s2.08 5.65 5.93 5.65h.37c1.58-.07 3.7-.14 6-.14 1.88 0 3.76.08 5.51.14h.29c3.9 0 5.93-2.8 5.93-5.58 0-1.59-.56-2.97-1.61-3.99-1.03-1-2.48-1.58-4.08-1.65.51-1.77 1.51-5.2 2.04-7.02h15.39c.65 1.97 1.65 5.26 2.19 7.06-3.29.38-5.06 3.06-5.06 5.6 0 1.53.56 2.89 1.62 3.91 1.1 1.07 2.68 1.67 4.37 1.67h.24c1.58-.07 3.7-.14 6-.14 1.88 0 3.76.08 5.51.14h.29c3.9 0 6-2.87 6-5.58 0-.55-.12-2.46-1.7-4.01-.77-.76-2.15-1.64-4.34-1.64Zm-26.93-17.88c.97-3.18 2.82-9.18 4.1-12.94.96 2.95 3.11 9.57 4.15 12.94h-8.25ZM248.48 156.17c-1.84-.98-4.09-2.07-6.27-3.12-1.86-.9-3.61-1.75-4.96-2.46-2.32-1.23-3.59-2.92-3.59-4.74 0-2.1 1.92-4.22 5.58-4.22 4.41 0 6.49 1.92 6.51 2.45l-.02.13c-.03.23-.06.47-.06.71v.29c0 2.93 2.49 5.15 5.79 5.15 1.36 0 3.27-.48 4.55-1.83.93-.98 1.39-2.26 1.31-3.71-.07-1.17-.14-2.73-.14-4.4 0-1.38.07-2.67.14-4.04v-.31c0-2.9-2.47-5-5.86-5-1.54 0-2.95.45-3.94 1.22-2.51-1.08-5.34-1.65-8.22-1.65-8.46 0-17.45 5.41-17.45 15.45 0 6.26 3.86 11.75 10.33 14.7 3.73 1.69 7.72 3.9 10.78 5.64 2.85 1.62 4.49 3.93 4.49 6.34 0 2.03-1.64 5.87-7.87 5.87-3.84 0-8.3-1.75-8.3-4.01v-.57c0-3.11-2.44-5.36-5.79-5.36s-5.86 2.28-5.86 5.43v.24c.07 1.35.14 3.36.14 5.27 0 1.55-.08 3.08-.14 4.1v.41c0 3.14 2.49 5.5 5.79 5.5 1.6 0 3.1-.59 4.21-1.64 2.99 1.37 6.38 2.07 10.09 2.07 11.19 0 19.95-7.7 19.95-17.52 0-6.54-4.08-12.5-11.22-16.36ZM315.45 139.81c-.23-.53-.44-1.03-.59-1.44-1.78-4.92-5.49-7.11-12.04-7.11h-.76c-3.16.07-8.28.14-13.19.14-3.94 0-7.61-.07-9.8-.14h-1.36c-9.19 0-10.78 4.77-12.98 11.38-.31.93-.46 1.74-.46 2.49 0 3.58 2.98 5.72 5.86 5.72 2.71 0 4.95-1.72 5.69-4.3.17-.51.29-.99.41-1.44.08-.3.15-.59.25-.91.11-.36.39-1.33.55-1.5.42-.29 2.79-.29 4.89-.29 1.18 0 2.25 0 2.95.03.13 3.87.13 8.14.13 12.27 0 4.85-.04 9.68-.08 14-.03 3.33-.06 6.36-.06 8.88h-.29c-3.81 0-5.86 3.02-5.86 5.86 0 1.65.63 3.15 1.78 4.23 1.08 1.02 2.52 1.57 4.06 1.57.13 0 .26 0 .39-.01 1.49-.06 3.77-.14 6.21-.14 2 0 4 .07 5.79.14h.29c3.85 0 5.93-2.98 5.93-5.79s-2.11-5.86-6.15-5.86c-.07-4.15-.14-9.55-.14-15.09 0-7.74.07-14.99.2-20.05.84-.05 2.27-.05 3.95-.05q3.03 0 3.68 1.99c.2.61.41 1.29.62 2.06.75 2.62 2.99 4.31 5.71 4.31 2.92 0 5.93-2.17 5.93-5.79 0-.83-.14-1.62-.39-2.28-.33-.99-.76-2.01-1.14-2.9ZM349.96 156.17c-1.84-.98-4.09-2.07-6.27-3.12-1.86-.9-3.61-1.75-4.96-2.45-2.32-1.23-3.59-2.92-3.59-4.74 0-2.1 1.92-4.22 5.58-4.22 4.41 0 6.49 1.92 6.51 2.45l-.02.13c-.03.23-.06.47-.06.71v.29c0 2.93 2.49 5.15 5.79 5.15 1.36 0 3.27-.48 4.55-1.83.93-.98 1.39-2.26 1.31-3.71-.07-1.17-.14-2.73-.14-4.4 0-1.38.07-2.67.14-4.04v-.31c0-2.9-2.47-5-5.86-5-1.54 0-2.95.45-3.94 1.22-2.51-1.08-5.34-1.65-8.22-1.65-8.46 0-17.45 5.41-17.45 15.45 0 6.26 3.86 11.75 10.33 14.7 3.73 1.69 7.72 3.9 10.78 5.64 2.85 1.62 4.49 3.93 4.49 6.34 0 2.03-1.64 5.87-7.87 5.87-3.84 0-8.3-1.75-8.3-4.01v-.57c0-3.11-2.44-5.36-5.79-5.36s-5.86 2.28-5.86 5.43v.24c.07 1.35.14 3.36.14 5.27 0 1.55-.08 3.08-.14 4.1v.41c0 3.14 2.49 5.5 5.79 5.5 1.6 0 3.1-.59 4.21-1.64 2.99 1.37 6.38 2.07 10.09 2.07 11.19 0 19.95-7.7 19.95-17.52 0-6.54-4.08-12.5-11.22-16.36ZM399.79 133.97c-1.34-.34-2.46.42-3.07 2.16-1.53 4.33-3.03 8.67-4.54 13.01-.15.44-.3.9-.54 1.28-.49.79-1.18 1.07-1.91.7-.67-.34-.92-1.02-.69-1.89.08-.3.2-.59.3-.88 1.54-4.41 3.08-8.82 4.6-13.23.65-1.9-.14-3.49-1.83-3.79-1.26-.23-2.29.55-2.92 2.32-1.51 4.26-2.98 8.52-4.47 12.79-.15.44-.3.9-.53 1.29-.46.79-1.12 1.18-1.88.83-.78-.36-1.02-1.09-.74-2.05.09-.3.2-.59.3-.88 1.51-4.34 3.02-8.67 4.53-13.01.63-1.82.13-3.24-1.3-3.76-1.46-.53-2.76.19-3.4 2.02-2.23 6.35-4.44 12.71-6.65 19.07-.43 1.25-.47 2.48-.08 3.7.55 1.72.98 3.49 1.57 5.18.98 2.82.85 5.66-.21 8.61-1.15 3.18-2.24 6.39-3.35 9.59-1.2 3.45-2.42 6.91-3.61 10.37-.65 1.88-.23 2.99 1.37 3.68.53.23 1.07.42 1.62.58 1.9.56 3-.1 3.74-2.24 2.4-6.87 4.8-13.74 7.18-20.62.8-2.3 2.17-4.09 4.03-5.41 1.71-1.22 3.45-2.4 5.18-3.59 1.1-.76 1.9-1.78 2.36-3.14 1.05-3.06 2.12-6.1 3.18-9.15 1.14-3.27 2.29-6.54 3.41-9.82.62-1.82-.08-3.31-1.69-3.71ZM43.2 164.2c-.57-1.48-.81-2.95-.74-4.41 2.48-4 2.71-10.68.17-17.36-3.52-9.22-10.98-14.93-16.68-12.76-5.69 2.17-7.45 11.41-3.94 20.63 2.7 7.08 7.74 12.08 12.5 13.04 1.05 1.21 1.87 2.65 2.48 4.3 1.17 3.18 2.41 6.33 3.61 9.49 1.3 3.42 2.6 6.84 3.92 10.25.72 1.86 1.75 2.44 3.42 1.94.55-.17 1.09-.37 1.61-.6 1.82-.79 2.23-2 1.42-4.12-2.59-6.8-5.18-13.6-7.78-20.4ZM67.22 106.86c-3.85 0-5.93 2.91-5.93 5.65 0 .26.05 2.56 1.78 4.2.8.76 2.23 1.63 4.62 1.51 1.23-.07 2.55-.07 3.82-.07 2.68 0 5.32.07 8.12.14h.39c3.95 0 6.08-2.98 6.08-5.79s-1.92-5.54-5.53-5.64c-.56-.03-.91-.08-1.12-.11v-.07c-.13-1.47-.13-6.85-.13-12.77 1.16 0 2.54.02 3.78.04.89.01 1.71.02 2.32.03-.01.17-.02.35-.02.51v.29c0 3.58 2.95 5.5 5.72 5.5s5.72-1.89 5.72-5.5v-.38c-.05-1.16-.14-3.5-.14-6.13 0-1.95.08-4.03.14-5.51v-.29c0-3.22-2.43-5.65-5.65-5.65-2.88 0-5.79 1.99-5.79 5.79v.45c-1.26.05-3.91.1-5.99.11.05-2.9.12-5.73.18-8.17.03-1.27.06-2.43.08-3.41v-.07h.64c.89 0 2.49.03 4.18.06 1.96.04 4.06.08 5.4.08 2.55 0 2.58.14 2.89 1.76.47 2.84 2.75 4.82 5.55 4.82s5.93-2.1 5.93-6c0-.33 0-.65-.71-3.88-1.49-5.6-5.34-7.99-12.88-7.99-1.73 0-3.98.03-6.45.06-2.95.04-6.21.08-9.21.08-2.18 0-4.5-.05-7.15-.14h-.29c-3.9 0-6 2.95-6 5.72 0 3.5 2.4 5.6 6.44 5.65 0 9.62 0 28.74-.4 35.12h-.39ZM148.85 107.08h-.02c-.19-.16-.47-.57-.58-.85-3.48-9.15-10.45-28.77-14.28-39.76-1.26-3.77-4.52-6.3-8.12-6.3s-6.51 2.33-7.76 6.08c-.9 2.65-2.17 6.3-3.62 10.47-3.21 9.23-7.2 20.71-10.06 29.63-.11.36-.28.62-.38.73h-.21c-3.81 0-5.86 2.87-5.86 5.58s2.08 5.65 5.93 5.65h.37c1.58-.07 3.7-.14 6-.14 1.88 0 3.76.08 5.51.14h.29c3.9 0 5.93-2.8 5.93-5.58 0-1.59-.56-2.97-1.61-3.99-1.03-1-2.48-1.58-4.08-1.65.51-1.77 1.51-5.2 2.04-7.02h15.39c.65 1.97 1.65 5.26 2.19 7.06-3.29.38-5.06 3.06-5.06 5.6 0 1.53.56 2.89 1.62 3.91 1.1 1.07 2.68 1.67 4.37 1.67h.24c1.58-.07 3.7-.14 6-.14 1.88 0 3.76.08 5.51.14h.29c3.9 0 6-2.87 6-5.58 0-.55-.12-2.46-1.7-4.01-.77-.76-2.15-1.64-4.34-1.64ZM121.92 89.2c.97-3.18 2.82-9.18 4.1-12.94.96 2.96 3.11 9.57 4.15 12.94h-8.25ZM224.55 118.23c3.9 0 6-2.98 6-5.79s-1.98-5.61-5.78-5.65l-.14-2.14c-.63-9.81-1.59-24.6-1.73-32.93 2.63-.56 4.36-2.74 4.36-5.55s-2.01-5.79-5.86-5.79h-.31c-1.5.07-3.77.14-5.63.14h-1.43c-4.33 0-7.79 2.51-9.25 6.71-1.19 3.41-2.83 8.76-4.56 14.43-2 6.52-4.05 13.22-5.59 17.56-1.04-2.99-2.53-7.81-3.92-12.39-.8-2.64-1.62-5.38-2.4-8-1.31-4.36-2.54-8.48-3.39-11.18-1.38-4.44-5.12-7.2-9.78-7.2h-.36c-.51 0-1.06.02-1.62.04-2.09.07-4.2-.02-5.4-.1h-.56c-3.8 0-5.79 2.91-5.79 5.79 0 3.36 2.09 5.47 5.64 5.76-.16 3.05-.37 6.66-.59 10.52-.45 7.9-.97 16.83-1.3 24.35h-.03c-3.85 0-5.93 2.95-5.93 5.72 0 1.1.48 2.84 1.82 4.13.81.78 2.23 1.69 4.55 1.59 1.67-.07 3.65-.14 5.71-.14 1.69 0 3.39.07 5.19.13h.54c3.95 0 6.08-2.94 6.08-5.71s-2.14-5.72-6.22-5.72h-.06c.08-3.42.55-18.27.93-26.83.65 2.2 1.37 4.68 2.12 7.24 2.84 9.75 6.06 20.79 7.6 24.5 1.35 3.29 3.85 5.17 6.86 5.17 3.2 0 6.17-2.13 7.38-5.29 2.32-6.1 7.34-21.73 10.18-31.14.13 7.08.39 18.59.79 26.35-3.83.02-5.9 2.95-5.9 5.72 0 1.1.48 2.84 1.82 4.13.77.74 2.12 1.6 4.23 1.6h.33c1.67-.07 3.66-.14 5.71-.14 1.69 0 3.39.07 5.19.13h.54ZM257.73 72.03c3.95 0 6.08-2.98 6.08-5.79s-2.14-5.79-6.22-5.79h-.22c-1.15.04-4.15.14-7.29.14-2.39 0-4.6-.09-5.79-.14h-.36c-3.85 0-5.93 2.98-5.93 5.79 0 1.19.48 2.92 1.82 4.2.81.78 2.26 1.68 4.6 1.58l.45-.03c.13 4.31.13 8.97.13 13.48 0 7.13-.07 14.2-.2 21.06l-.35-.03H243.99c-3.94 0-6 2.91-6 5.79s2.06 5.79 6 5.79h.37c1.61-.07 4.1-.14 6.86-.14 2.12 0 4.26.07 6.15.14h.29c3.99 0 6.08-2.88 6.08-5.72s-2.14-5.86-6.22-5.86h-.14c-.1 0-.23 0-.37.01-.14-6.87-.21-13.81-.21-20.61 0-4.66.06-9.21.14-13.88h.8ZM310.72 97.57c-2.57 0-4.71 1.46-5.6 3.82-1.77 4.88-2.85 5.62-5.63 5.62h-10.23c0-.06 0-.13-.01-.21-.13-1.25-.13-5.55-.13-10.52 0-8.1.13-18.51.27-24.39h.38c3.95 0 6.08-2.95 6.08-5.72s-2.14-5.79-6.22-5.79h-.22c-2.58.1-4.76.14-6.65.14-2.06 0-4-.08-5.36-.14h-.36c-3.85 0-5.93 2.95-5.93 5.72 0 .86.4 2.86 1.9 4.28.8.76 2.21 1.63 4.45 1.51h.23v9.81c0 13.61 0 22.41-.35 25.04-3.63.17-5.59 3.02-5.59 5.71 0 2.84 2.04 5.72 5.93 5.72h.39c1.31-.07 2.95-.07 4.69-.07 2.37 0 5.05 0 7.38.07h.35c.43 0 1.47.01 2.75.02 2.09.02 4.83.05 6.7.05 9.79 0 13.11-3.59 15.5-9.72l.06-.15c1.18-2.72 1.53-3.54 1.53-4.87 0-3.66-3.27-5.93-6.29-5.93ZM360.07 60.38c-1.79.07-4.13.14-6.43.14-1.84 0-3.59-.07-5.15-.14h-.36c-3.95 0-6.08 2.91-6.08 5.65 0 2.21 1.46 4.58 4.24 5.41-1.81 3.07-5.43 8.76-7.37 11.33-1.26-1.83-3.67-5.52-7.46-11.37 2.88-.91 4.37-3.31 4.37-5.58 0-2.7-2.09-5.43-6.08-5.43h-.36c-2.55.1-4.83.14-6.79.14-1.6 0-3.34-.05-5.44-.14h-.36c-3.9 0-5.93 2.88-5.93 5.72 0 1.7.63 5.65 6.51 5.65.19 0 .26.02.27.04 3.63 5.42 9.77 14.65 14.59 21.95l.06.08c.16.24.34.52.37.57.02.07.02.3.02.67 0 2.28-.02 4.42-.04 6.5-.02 1.75-.03 3.46-.03 5.16h-.29c-3.9 0-6 2.98-6 5.79 0 .8.17 2.81 1.76 4.31.74.7 2.05 1.5 4.12 1.5.16 0 .33 0 .5-.02 1.27-.05 3.81-.14 6.57-.14 2.04 0 4.18.07 6.08.14h.29c3.95 0 6.08-2.98 6.08-5.79s-2.14-5.79-6.22-5.79h-.22c0-2.21-.02-4.42-.04-6.47-.02-1.9-.03-3.65-.03-5.12q0-.95.56-1.7c4.37-6.16 11.38-16.84 14.49-21.66.04 0 .08-.01.13-.02h.05c3.99 0 6.08-2.84 6.08-5.65 0-3.47-2.5-5.72-6.43-5.72ZM107.78 31.99c.04 1.04.83 1.76 1.92 1.76.96 0 1.95-.64 1.95-1.75v-1.53c.06-.77.08-1 1.47-1.03 3.99-.07 9.93-.05 14.25 0q1.39.04 1.39 2.53c0 1.1.99 1.69 1.92 1.69 2.07 0 2.07-1.71 2.07-2.73 0-.49 0-1-.03-1.41-.07-1.97-2.02-3.33-3.79-3.36-2.13-.03-4.36-.06-6.62-.06l.02-1.43c0-1.19-1.03-1.81-2.04-1.81-1.2 0-2.04.74-2.04 1.84l.02 1.39c-2.26 0-4.49.03-6.59.06-2.59.03-3.84 1.7-3.91 3.26 0 .22 0 .43-.01.65 0 .23-.02.46-.02.68 0 .24 0 .47.02.69 0 .18.01.36.01.54Z" class="cls-3"/><path d="M109.34 48.53c.69 0 5.51-1.01 10.89-5.35v.22c0 2.8-1.1 3.18-2.17 3.18-.31 0-.67-.04-1.12-.13-.18-.04-.34-.04-.48-.04-1.13 0-1.72.85-1.72 1.69 0 .97.58 2.13 3.35 2.13 4.29 0 5.81-3.28 5.81-6.35 0-3.33-1.54-7.04-3.79-9.26.35-.28.72-.57 1.12-.87h.65c.62 5.6 3.81 12.31 8.71 14.1.27.1.56.15.86.15 1.26 0 2.1-1.04 2.1-2.01 0-.78-.5-1.44-1.31-1.72-2.38-.84-3.92-2.64-4.84-4.15 1.4-.7 2.82-1.53 4.03-2.35.56-.39.87-.91.87-1.48 0-1.05-1-2.01-2.1-2.01-.42 0-.82.15-1.12.41-1.03.83-2.11 1.62-3.12 2.27-.3-.98-.52-2.04-.64-3.11l1.5.04c1.13 0 1.72-.82 1.72-1.63s-.61-1.69-1.78-1.69h-13.15c-1.17 0-1.78.85-1.78 1.69s.6 1.63 1.79 1.63l2.14-.05c-1.68.88-3.44 1.46-5.87 2-.86.18-1.47.89-1.47 1.74s.62 1.66 1.78 1.66c.53 0 4.15-.9 7.19-2.7.11.1.21.2.31.31-2.58 1.79-5.12 2.85-8.38 3.51-.99.21-1.44.99-1.44 1.68 0 .82.6 1.69 1.72 1.69.04 0 4.34-.67 9.77-4.3.04.1.08.21.12.31-3.79 3.14-6.82 4.69-10.38 5.33-.91.15-1.55.89-1.55 1.8 0 .82.62 1.69 1.78 1.69ZM145.38 49.42c.72 0 1.35-.36 1.76-1 .04-.07.08-.13.13-.2v.17c0 .95.92 1.81 1.92 1.81s3.07-1.64 4.4-2.97c2.28 1.78 5.64 2.64 10.26 2.64 1.49 0 3.16-.09 4.97-.27 1.31-.12 1.91-1.08 1.91-1.92s-.63-1.78-1.81-1.78h-.12l-.78.05c-1.7.11-3.45.22-5.15.22-3.4 0-5.65-.5-7.2-1.61.86-1.41 1.55-3.1 2.24-5.52.1.01.2.02.3.02h2.82v2.41h-2.38c-1.13 0-1.75.87-1.75 1.69 0 .77.55 1.6 1.75 1.6h8.46c1.11 0 1.69-.83 1.69-1.66s-.58-1.63-1.69-1.63h-2.53v-2.41h3.39c1.11 0 1.69-.83 1.69-1.66s-.58-1.63-1.69-1.63h-3.39v-2.4c2.64-.66 3.41-1.21 3.41-2.35s-1.14-1.98-2.39-1.57c-2.91 1.05-5.75 1.48-7.62 1.66-.86.07-1.43.69-1.43 1.54s.65 1.78 1.75 1.78c.14 0 1.03-.06 2.73-.33v1.67h-2.82c-.4 0-.76.11-1.05.32-.48-.34-1.11-.53-1.79-.53h-.23c.95-2.12 1.03-2.59 1.03-3.06 0-1.98-1.74-1.98-3.59-1.98-1.12 0-2.08 0-2.57.53 0-.31-.01-.62-.02-.92 0-.23.07-.78.7-.78 1.74-.03 5.73-.06 9.7-.06 3.2 0 6.28.03 7.92.06h.04c1.19 0 1.84-.92 1.84-1.78 0-.81-.57-1.69-1.83-1.69-1.75-.03-4.96-.06-8.35-.06v-1.31c0-2.41-4.03-2.41-4.03 0v1.31c-2.68 0-5.01.03-6.34.06-2.13.06-3.45 1.33-3.45 3.39.01.72.03 1.46.05 2.2.03 1.15.07 2.32.07 3.49 0 3.84-.28 8.26-2.36 11.9-.19.3-.28.62-.28.95 0 .9.77 1.6 1.75 1.6Zm8.18-10.65h.76c-.07.37-.33 1.37-.84 2.55-.06-.21-.11-.44-.17-.69-.11-.52-.43-.95-.86-1.21.46-.08.85-.3 1.1-.65Zm-3.53-3.92v-1.59c.24.32.6.54 1.05.54.12 0 .41-.01.71-.03.18 0 .36-.02.51-.02-.24.63-.83 2.02-1.71 3.66-.12.23-.17.46-.17.7 0 .47.25.85.67 1.09-.65.14-1.23.6-1.23 1.43 0 .49.52 2.41 1.48 4.01-.83.87-1.84 1.61-3.07 2.25-.17.08-.3.17-.42.27 1.91-3.76 2.18-8.29 2.18-12.32ZM185.46 45.73c1.01 0 1.99-.44 2.86-1.27 3.17-3.11 6.59-8.73 6.59-12.36v-.32c2.61.57 4.32 2.48 4.32 5.04 0 3.52-3.23 6.42-8.05 7.22-1.75.32-2.37 1.43-2.37 2.37 0 1.16.97 2.35 2.59 2.35.09 0 9.02-.73 11.94-8.08.48-1.2.72-2.44.72-3.68 0-5.51-4.47-9.51-10.63-9.51-6.85 0-12.86 5.48-12.86 11.73 0 3.59 2.2 6.51 4.91 6.51Zm4.61-13.44c-.21 3.5-3.43 7.46-4.35 8.35-.21-.09-.69-.42-.69-1.57 0-2.53 2.31-5.48 5.05-6.78ZM227.19 28.39c.44.26 1.61 1.34 1.86 1.73.35.54.92.86 1.56.86 1.13 0 2.12-1.03 2.12-2.21 0-.12-.01-.25-.04-.37.35.38.82.59 1.34.59 1.13 0 2.12-1.03 2.12-2.21 0-1.87-3.41-3.9-4.55-3.9s-2.12.92-2.12 2c0 .11.01.22.03.33-.5-.25-.95-.4-1.24-.4-1.15 0-2.12.89-2.12 1.94 0 .66.38 1.26 1.04 1.64ZM223.93 49.08c1.69 0 3.41-.22 4.98-.62 1.42-.37 2.33-1.45 2.33-2.74 0-1.67-1.52-2.77-3.41-2.3-4.75 1.24-8.04.87-9.76-1.21-.57-.69-1.29-1.07-2.03-1.07-1.32 0-2.44 1.15-2.44 2.5 0 2.22 3.68 5.44 10.34 5.44Z" class="cls-3"/><path d="M217.65 31.65c.94.47 4.31 1.99 8.45 1.99 1.82 0 2.77-1.23 2.77-2.44 0-1.13-.82-2.32-2.39-2.41-3.24-.18-4.97-.68-6.89-1.49-.44-.16-.8-.23-1.17-.23-1.27 0-2.24.97-2.24 2.27 0 .99.57 1.89 1.48 2.32ZM248.03 34.39c.24 0 .48-.01.73-.04-.61 4.8-.95 7.96-.95 8.96 0 1.66 1.25 2.41 2.41 2.41.36 0 .66-.08.96-.19.91-.37 1.16-.9 1.36-1.32.05-.11.11-.23.19-.36 1.32-2.05 4.08-4.25 6.07-4.25.47 0 1.8.19 1.8 1.06 0 1-1.83 4.17-7.46 4.99-1.47.24-2.12 1.32-2.12 2.28 0 1.13.9 2.32 2.56 2.32.68 0 6.01-.84 9.46-4.49 1.5-1.57 2.36-3.5 2.36-5.31 0-3.79-3.88-5.2-6.33-5.2s-4.64 1.17-6.43 2.61c.14-1.05.32-2.25.5-3.43.09-.57.18-1.14.26-1.68 2.23-1.24 3.7-2.4 3.7-3.9 0-1.33-1.16-2.3-2.56-2.09.06-.29.09-.54.09-.7 0-1.22-.99-2.15-2.29-2.15-2.21 0-2.51 1.68-3 5.69-.76.27-1.49.24-1.74.17-.34-.15-.71-.23-1.14-.23-1.29 0-2.3 1.01-2.3 2.29 0 1.56 1.48 2.53 3.87 2.53ZM276.75 40c.55 0 1.07-.15 1.54-.45a.77.77 0 0 0 .13-.09c-.05.31-.08.64-.08.97 0 6.18 7.68 9.89 9.68 9.89 1.53 0 2.68-1.1 2.68-2.56s-1.02-2.49-2.61-2.79c-3.22-.57-5.46-3.16-5.46-5.14 0-.69.25-1.27.78-1.8.92-.92 1.32-1.03 2.51-1.39l.65-.2c.57-.18 2.25-.44 3.16-.47 3-.04 3.32-1.72 3.32-2.44 0-1.21-.91-2.5-2.59-2.5-1.52 0-3.25.45-5.55 1.22.86-.99 1.76-2.11 2.92-3.7.54-.73.83-1.51.83-2.26 0-1.78-1.5-2.74-2.92-2.74-.62 0-1.04.21-1.36.36-.08.04-.16.08-.22.1-1.66.59-3.06.91-4.86 1.11-1.44.19-2.09 1.26-2.09 2.23 0 1.13.86 2.32 2.44 2.32.66 0 1.55-.24 2.39-.53-.96 1.33-2.2 2.98-3.13 4.06-.56.64-1.55 1.31-3.04 2.03-1.58.76-1.81 1.8-1.81 2.35 0 1.29 1.23 2.38 2.68 2.38ZM306.39 27.46c1.99 1.01 4.49 1.37 6.17 1.37 1.32 0 2.65-.88 2.65-2.56 0-1.11-.83-2.24-2.41-2.24h-.19c-.33.03-.63.03-.96.03-1.27 0-2.17-.17-3.14-.59-.41-.16-.78-.24-1.13-.24-1.25 0-2.27.99-2.27 2.21 0 .83.46 1.56 1.29 2.02ZM305.17 36.14c1.01 0 2-.49 3.6-1.48.83-.52 1.44-.78 1.86-.78 1.15 0 1.65 2.8 1.65 4.23 0 3.47-2.32 6.33-6.71 8.26-.87.39-1.39 1.17-1.39 2.07 0 1.19.99 2.47 2.47 2.47 1.69 0 10.4-4.48 10.4-12.86 0-3.18-1.32-8.56-6.24-8.56-1.27 0-2.67.35-4.15 1.03l-.39.19c-.54.26-.89.42-1.37.48-1.65.22-2.38 1.4-2.38 2.46 0 1.22.99 2.47 2.65 2.47Z" class="cls-3"/><path d="M90.57 131.33c-1.73 0-3.98.03-6.45.06-2.95.04-6.21.08-9.21.08-2.18 0-4.5-.05-7.15-.14h-.29c-3.9 0-6 2.95-6 5.72 0 3.5 2.4 5.6 6.44 5.65 0 9.62 0 28.74-.4 35.12h-.39c-3.85 0-5.93 2.91-5.93 5.65 0 .26.05 2.56 1.78 4.2.8.76 2.23 1.63 4.62 1.51 1.23-.07 2.55-.07 3.82-.07 2.68 0 5.32.07 8.12.14h.39c3.95 0 6.08-2.98 6.08-5.79s-1.92-5.54-5.53-5.64c-.56-.03-.91-.08-1.12-.11v-.07c-.13-1.47-.13-6.85-.13-12.77 1.16 0 2.54.02 3.78.04.89.01 1.71.02 2.32.03-.01.17-.02.35-.02.51v.29c0 3.58 2.95 5.5 5.72 5.5s5.72-1.89 5.72-5.5v-.38c-.05-1.16-.14-3.5-.14-6.13 0-1.95.08-4.03.14-5.51v-.29c0-3.22-2.43-5.65-5.65-5.65-2.88 0-5.79 1.99-5.79 5.79v.45c-1.26.05-3.91.1-5.99.11.05-2.9.12-5.73.18-8.17.03-1.27.06-2.43.08-3.41v-.07h.64c.89 0 2.49.03 4.18.06 1.96.04 4.06.08 5.4.08 2.55 0 2.58.14 2.89 1.76.47 2.84 2.75 4.82 5.55 4.82s5.93-2.1 5.93-6c0-.33 0-.65-.71-3.88-1.49-5.6-5.34-7.99-12.88-7.99ZM146.42 170.6c-2.58 0-4.73 1.66-5.49 4.22q-.95 3.21-11.24 3.21c-1.22 0-3.11 0-4.01-.12v-.06c-.13-1.49-.14-7.03-.14-13.06 1.07 0 2.31.02 3.43.04.86.01 1.65.02 2.25.03-.01.15-.02.3-.02.43v.29c0 3.58 2.87 5.5 5.58 5.5s5.65-1.93 5.65-5.5v-.38c-.05-1.15-.14-3.45-.14-5.92 0-1.88.08-3.85.14-5.44v-.29c0-3.71-2.77-5.65-5.5-5.65-1.54 0-3.09.65-4.15 1.74-.74.76-1.62 2.12-1.57 4.19v.31c-1.24.04-3.64.05-5.56.05v-.85c.07-4.13.14-8.22.2-10.96.38 0 1.25 0 2.34.02 2.12.02 5.1.05 7.03.05 2.59 0 2.65.3 2.96 1.9.48 2.88 2.8 4.82 5.76 4.82s5.93-2 5.93-5.72c0-.69-.15-1.29-.3-1.86l-.06-.25c-1.75-6.25-3.52-10.04-13.3-10.04-1.75 0-3.97.03-6.39.06-5.58.07-12.29.06-15.78-.06h-.29c-3.9 0-6 2.91-6 5.65 0 3.5 2.4 5.6 6.44 5.65v7.23c0 14.36-.14 23.99-.39 27.97h-.4c-3.85 0-5.93 2.95-5.93 5.72 0 1.6.57 2.99 1.65 4.02 1.32 1.26 3.12 1.7 4.48 1.7h.27c4.62-.25 11.32-.14 17.19-.1 2.28.02 4.42.03 6.23.03 7.48 0 11.52-2.22 13.5-7.37.07-.15 1.59-3.79 1.59-5.42 0-3.62-3.02-5.79-5.93-5.79ZM208.03 178.03h-.02c-.19-.16-.47-.57-.58-.85-3.48-9.15-10.45-28.77-14.28-39.76-1.26-3.77-4.52-6.3-8.12-6.3s-6.51 2.33-7.76 6.08c-.9 2.65-2.17 6.3-3.62 10.47-3.21 9.23-7.2 20.71-10.06 29.63-.11.36-.28.62-.38.73H163c-3.81 0-5.86 2.87-5.86 5.58s2.08 5.65 5.93 5.65h.37c1.58-.07 3.7-.14 6-.14 1.88 0 3.76.08 5.51.14h.29c3.9 0 5.93-2.8 5.93-5.58 0-1.59-.56-2.97-1.61-3.99-1.03-1-2.48-1.58-4.08-1.65.51-1.77 1.51-5.2 2.04-7.02h15.39c.65 1.97 1.65 5.26 2.19 7.06-3.29.38-5.06 3.06-5.06 5.6 0 1.53.56 2.89 1.62 3.91 1.1 1.07 2.68 1.67 4.37 1.67h.24c1.58-.07 3.7-.14 6-.14 1.88 0 3.76.08 5.51.14h.29c3.9 0 6-2.87 6-5.58 0-.55-.12-2.46-1.7-4.01-.77-.76-2.15-1.64-4.34-1.64Zm-26.93-17.88c.97-3.18 2.82-9.18 4.1-12.94.96 2.95 3.11 9.57 4.15 12.94h-8.25ZM248.48 156.17c-1.84-.98-4.09-2.07-6.27-3.12-1.86-.9-3.61-1.75-4.96-2.46-2.32-1.23-3.59-2.92-3.59-4.74 0-2.1 1.92-4.22 5.58-4.22 4.41 0 6.49 1.92 6.51 2.45l-.02.13c-.03.23-.06.47-.06.71v.29c0 2.93 2.49 5.15 5.79 5.15 1.36 0 3.27-.48 4.55-1.83.93-.98 1.39-2.26 1.31-3.71-.07-1.17-.14-2.73-.14-4.4 0-1.38.07-2.67.14-4.04v-.31c0-2.9-2.47-5-5.86-5-1.54 0-2.95.45-3.94 1.22-2.51-1.08-5.34-1.65-8.22-1.65-8.46 0-17.45 5.41-17.45 15.45 0 6.26 3.86 11.75 10.33 14.7 3.73 1.69 7.72 3.9 10.78 5.64 2.85 1.62 4.49 3.93 4.49 6.34 0 2.03-1.64 5.87-7.87 5.87-3.84 0-8.3-1.75-8.3-4.01v-.57c0-3.11-2.44-5.36-5.79-5.36s-5.86 2.28-5.86 5.43v.24c.07 1.35.14 3.36.14 5.27 0 1.55-.08 3.08-.14 4.1v.41c0 3.14 2.49 5.5 5.79 5.5 1.6 0 3.1-.59 4.21-1.64 2.99 1.37 6.38 2.07 10.09 2.07 11.19 0 19.95-7.7 19.95-17.52 0-6.54-4.08-12.5-11.22-16.36ZM315.45 139.81c-.23-.53-.44-1.03-.59-1.44-1.78-4.92-5.49-7.11-12.04-7.11h-.76c-3.16.07-8.28.14-13.19.14-3.94 0-7.61-.07-9.8-.14h-1.36c-9.19 0-10.78 4.77-12.98 11.38-.31.93-.46 1.74-.46 2.49 0 3.58 2.98 5.72 5.86 5.72 2.71 0 4.95-1.72 5.69-4.3.17-.51.29-.99.41-1.44.08-.3.15-.59.25-.91.11-.36.39-1.33.55-1.5.42-.29 2.79-.29 4.89-.29 1.18 0 2.25 0 2.95.03.13 3.87.13 8.14.13 12.27 0 4.85-.04 9.68-.08 14-.03 3.33-.06 6.36-.06 8.88h-.29c-3.81 0-5.86 3.02-5.86 5.86 0 1.65.63 3.15 1.78 4.23 1.08 1.02 2.52 1.57 4.06 1.57.13 0 .26 0 .39-.01 1.49-.06 3.77-.14 6.21-.14 2 0 4 .07 5.79.14h.29c3.85 0 5.93-2.98 5.93-5.79s-2.11-5.86-6.15-5.86h0c-.07-4.15-.14-9.55-.14-15.09 0-7.74.07-14.99.2-20.05.84-.05 2.27-.05 3.95-.05q3.03 0 3.68 1.99c.2.61.41 1.29.62 2.06.75 2.62 2.99 4.31 5.71 4.31 2.92 0 5.93-2.17 5.93-5.79 0-.83-.14-1.62-.39-2.28-.33-.99-.76-2.01-1.14-2.9ZM349.96 156.17c-1.84-.98-4.09-2.07-6.27-3.12-1.86-.9-3.61-1.75-4.96-2.45-2.32-1.23-3.59-2.92-3.59-4.74 0-2.1 1.92-4.22 5.58-4.22 4.41 0 6.49 1.92 6.51 2.45l-.02.13c-.03.23-.06.47-.06.71v.29c0 2.93 2.49 5.15 5.79 5.15 1.36 0 3.27-.48 4.55-1.83.93-.98 1.39-2.26 1.31-3.71-.07-1.17-.14-2.73-.14-4.4 0-1.38.07-2.67.14-4.04v-.31c0-2.9-2.47-5-5.86-5-1.54 0-2.95.45-3.94 1.22-2.51-1.08-5.34-1.65-8.22-1.65-8.46 0-17.45 5.41-17.45 15.45 0 6.26 3.86 11.75 10.33 14.7 3.73 1.69 7.72 3.9 10.78 5.64 2.85 1.62 4.49 3.93 4.49 6.34 0 2.03-1.64 5.87-7.87 5.87-3.84 0-8.3-1.75-8.3-4.01v-.57c0-3.11-2.44-5.36-5.79-5.36s-5.86 2.28-5.86 5.43v.24c.07 1.35.14 3.36.14 5.27 0 1.55-.08 3.08-.14 4.1v.41c0 3.14 2.49 5.5 5.79 5.5 1.6 0 3.1-.59 4.21-1.64 2.99 1.37 6.38 2.07 10.09 2.07 11.19 0 19.95-7.7 19.95-17.52 0-6.54-4.08-12.5-11.22-16.36ZM399.79 133.97c-1.34-.34-2.46.42-3.07 2.16-1.53 4.33-3.03 8.67-4.54 13.01-.15.44-.3.9-.54 1.28-.49.79-1.18 1.07-1.91.7-.67-.34-.92-1.02-.69-1.89.08-.3.2-.59.3-.88 1.54-4.41 3.08-8.82 4.6-13.23.65-1.9-.14-3.49-1.83-3.79-1.26-.23-2.29.55-2.92 2.32-1.51 4.26-2.98 8.52-4.47 12.79-.15.44-.3.9-.53 1.29-.46.79-1.12 1.18-1.88.83-.78-.36-1.02-1.09-.74-2.05.09-.3.2-.59.3-.88 1.51-4.34 3.02-8.67 4.53-13.01.63-1.82.13-3.24-1.3-3.76-1.46-.53-2.76.19-3.4 2.02-2.23 6.35-4.44 12.71-6.65 19.07-.43 1.25-.47 2.48-.08 3.7.55 1.72.98 3.49 1.57 5.18.98 2.82.85 5.66-.21 8.61-1.15 3.18-2.24 6.39-3.35 9.59-1.2 3.45-2.42 6.91-3.61 10.37-.65 1.88-.23 2.99 1.37 3.68.53.23 1.07.42 1.62.58 1.9.56 3-.1 3.74-2.24 2.4-6.87 4.8-13.74 7.18-20.62.8-2.3 2.17-4.09 4.03-5.41 1.71-1.22 3.45-2.4 5.18-3.59 1.1-.76 1.9-1.78 2.36-3.14 1.05-3.06 2.12-6.1 3.18-9.15 1.14-3.27 2.29-6.54 3.41-9.82.62-1.82-.08-3.31-1.69-3.71ZM43.2 164.2c-.57-1.48-.81-2.95-.74-4.41 2.48-4 2.71-10.68.17-17.36-3.52-9.22-10.98-14.93-16.68-12.76-5.69 2.17-7.45 11.41-3.94 20.63 2.7 7.08 7.74 12.08 12.5 13.04 1.05 1.21 1.87 2.65 2.48 4.3 1.17 3.18 2.41 6.33 3.61 9.49 1.3 3.42 2.6 6.84 3.92 10.25.72 1.86 1.75 2.44 3.42 1.94.55-.17 1.09-.37 1.61-.6 1.82-.79 2.23-2 1.42-4.12-2.59-6.8-5.18-13.6-7.78-20.4ZM67.22 106.86c-3.85 0-5.93 2.91-5.93 5.65 0 .26.05 2.56 1.78 4.2.8.76 2.23 1.63 4.62 1.51 1.23-.07 2.55-.07 3.82-.07 2.68 0 5.32.07 8.12.14h.39c3.95 0 6.08-2.98 6.08-5.79s-1.92-5.54-5.53-5.64c-.56-.03-.91-.08-1.12-.11v-.07c-.13-1.47-.13-6.85-.13-12.77 1.16 0 2.54.02 3.78.04.89.01 1.71.02 2.32.03-.01.17-.02.35-.02.51v.29c0 3.58 2.95 5.5 5.72 5.5s5.72-1.89 5.72-5.5v-.38c-.05-1.16-.14-3.5-.14-6.13 0-1.95.08-4.03.14-5.51v-.29c0-3.22-2.43-5.65-5.65-5.65-2.88 0-5.79 1.99-5.79 5.79v.45c-1.26.05-3.91.1-5.99.11.05-2.9.12-5.73.18-8.17.03-1.27.06-2.43.08-3.41v-.07h.64c.89 0 2.49.03 4.18.06 1.96.04 4.06.08 5.4.08 2.55 0 2.58.14 2.89 1.76.47 2.84 2.75 4.82 5.55 4.82s5.93-2.1 5.93-6c0-.33 0-.65-.71-3.88-1.49-5.6-5.34-7.99-12.88-7.99-1.73 0-3.98.03-6.45.06-2.95.04-6.21.08-9.21.08-2.18 0-4.5-.05-7.15-.14h-.29c-3.9 0-6 2.95-6 5.72 0 3.5 2.4 5.6 6.44 5.65 0 9.62 0 28.74-.4 35.12h-.39ZM148.85 107.08h-.02c-.19-.16-.47-.57-.58-.85-3.48-9.15-10.45-28.77-14.28-39.76-1.26-3.77-4.52-6.3-8.12-6.3s-6.51 2.33-7.76 6.08c-.9 2.65-2.17 6.3-3.62 10.47-3.21 9.23-7.2 20.71-10.06 29.63-.11.36-.28.62-.38.73h-.21c-3.81 0-5.86 2.87-5.86 5.58s2.08 5.65 5.93 5.65h.37c1.58-.07 3.7-.14 6-.14 1.88 0 3.76.08 5.51.14h.29c3.9 0 5.93-2.8 5.93-5.58 0-1.59-.56-2.97-1.61-3.99-1.03-1-2.48-1.58-4.08-1.65.51-1.77 1.51-5.2 2.04-7.02h15.39c.65 1.97 1.65 5.26 2.19 7.06-3.29.38-5.06 3.06-5.06 5.6 0 1.53.56 2.89 1.62 3.91 1.1 1.07 2.68 1.67 4.37 1.67h.24c1.58-.07 3.7-.14 6-.14 1.88 0 3.76.08 5.51.14h.29c3.9 0 6-2.87 6-5.58 0-.55-.12-2.46-1.7-4.01-.77-.76-2.15-1.64-4.34-1.64ZM121.92 89.2c.97-3.18 2.82-9.18 4.1-12.94.96 2.96 3.11 9.57 4.15 12.94h-8.25ZM224.55 118.23c3.9 0 6-2.98 6-5.79s-1.98-5.61-5.78-5.65l-.14-2.14c-.63-9.81-1.59-24.6-1.73-32.93 2.63-.56 4.36-2.74 4.36-5.55s-2.01-5.79-5.86-5.79h-.31c-1.5.07-3.77.14-5.63.14h-1.43c-4.33 0-7.79 2.51-9.25 6.71-1.19 3.41-2.83 8.76-4.56 14.43-2 6.52-4.05 13.22-5.59 17.56-1.04-2.99-2.53-7.81-3.92-12.39-.8-2.64-1.62-5.38-2.4-8-1.31-4.36-2.54-8.48-3.39-11.18-1.38-4.44-5.12-7.2-9.78-7.2h-.36c-.51 0-1.06.02-1.62.04-2.09.07-4.2-.02-5.4-.1h-.56c-3.8 0-5.79 2.91-5.79 5.79 0 3.36 2.09 5.47 5.64 5.76-.16 3.05-.37 6.66-.59 10.52-.45 7.9-.97 16.83-1.3 24.35h-.03c-3.85 0-5.93 2.95-5.93 5.72 0 1.1.48 2.84 1.82 4.13.81.78 2.23 1.69 4.55 1.59 1.67-.07 3.65-.14 5.71-.14 1.69 0 3.39.07 5.19.13h.54c3.95 0 6.08-2.94 6.08-5.71s-2.14-5.72-6.22-5.72h-.06c.08-3.42.55-18.27.93-26.83.65 2.2 1.37 4.68 2.12 7.24 2.84 9.75 6.06 20.79 7.6 24.5 1.35 3.29 3.85 5.17 6.86 5.17 3.2 0 6.17-2.13 7.38-5.29 2.32-6.1 7.34-21.73 10.18-31.14.13 7.08.39 18.59.79 26.35-3.83.02-5.9 2.95-5.9 5.72 0 1.1.48 2.84 1.82 4.13.77.74 2.12 1.6 4.23 1.6h.33c1.67-.07 3.66-.14 5.71-.14 1.69 0 3.39.07 5.19.13h.54ZM257.73 72.03c3.95 0 6.08-2.98 6.08-5.79s-2.14-5.79-6.22-5.79h-.22c-1.15.04-4.15.14-7.29.14-2.39 0-4.6-.09-5.79-.14h-.36c-3.85 0-5.93 2.98-5.93 5.79 0 1.19.48 2.92 1.82 4.2.81.78 2.26 1.68 4.6 1.58l.45-.03c.13 4.31.13 8.97.13 13.48 0 7.13-.07 14.2-.2 21.06l-.35-.03H243.99c-3.94 0-6 2.91-6 5.79s2.06 5.79 6 5.79h.37c1.61-.07 4.1-.14 6.86-.14 2.12 0 4.26.07 6.15.14h.29c3.99 0 6.08-2.88 6.08-5.72s-2.14-5.86-6.22-5.86h-.14c-.1 0-.23 0-.37.01-.14-6.87-.21-13.81-.21-20.61 0-4.66.06-9.21.14-13.88h.8ZM310.72 97.57c-2.57 0-4.71 1.46-5.6 3.82-1.77 4.88-2.85 5.62-5.63 5.62h-10.23c0-.06 0-.13-.01-.21-.13-1.25-.13-5.55-.13-10.52 0-8.1.13-18.51.27-24.39h.38c3.95 0 6.08-2.95 6.08-5.72s-2.14-5.79-6.22-5.79h-.22c-2.58.1-4.76.14-6.65.14-2.06 0-4-.08-5.36-.14h-.36c-3.85 0-5.93 2.95-5.93 5.72 0 .86.4 2.86 1.9 4.28.8.76 2.21 1.63 4.45 1.51h.23v9.81c0 13.61 0 22.41-.35 25.04-3.63.17-5.59 3.02-5.59 5.71 0 2.84 2.04 5.72 5.93 5.72h.39c1.31-.07 2.95-.07 4.69-.07 2.37 0 5.05 0 7.38.07h.35c.43 0 1.47.01 2.75.02 2.09.02 4.83.05 6.7.05 9.79 0 13.11-3.59 15.5-9.72l.06-.15c1.18-2.72 1.53-3.54 1.53-4.87 0-3.66-3.27-5.93-6.29-5.93ZM360.07 60.38h0c-1.79.07-4.13.14-6.43.14-1.84 0-3.59-.07-5.15-.14h-.36c-3.95 0-6.08 2.91-6.08 5.65 0 2.21 1.46 4.58 4.24 5.41-1.81 3.07-5.43 8.76-7.37 11.33-1.26-1.83-3.67-5.52-7.46-11.37 2.88-.91 4.37-3.31 4.37-5.58 0-2.7-2.09-5.43-6.08-5.43h-.36c-2.55.1-4.83.14-6.79.14-1.6 0-3.34-.05-5.44-.14h-.36c-3.9 0-5.93 2.88-5.93 5.72 0 1.7.63 5.65 6.51 5.65.19 0 .26.02.27.04 3.63 5.42 9.77 14.65 14.59 21.95l.06.08c.16.24.34.52.37.57.02.07.02.3.02.67 0 2.28-.02 4.42-.04 6.5-.02 1.75-.03 3.46-.03 5.16h-.29c-3.9 0-6 2.98-6 5.79 0 .8.17 2.81 1.76 4.31.74.7 2.05 1.5 4.12 1.5.16 0 .33 0 .5-.02 1.27-.05 3.81-.14 6.57-.14 2.04 0 4.18.07 6.08.14h.29c3.95 0 6.08-2.98 6.08-5.79s-2.14-5.79-6.22-5.79h-.22c0-2.21-.02-4.42-.04-6.47-.02-1.9-.03-3.65-.03-5.12q0-.95.56-1.7c4.37-6.16 11.38-16.84 14.49-21.66.04 0 .08-.01.13-.02h.05c3.99 0 6.08-2.84 6.08-5.65 0-3.47-2.5-5.72-6.43-5.72ZM107.78 31.99c.04 1.04.83 1.76 1.92 1.76.96 0 1.95-.64 1.95-1.75v-1.53c.06-.77.08-1 1.47-1.03 3.99-.07 9.93-.05 14.25 0q1.39.04 1.39 2.53c0 1.1.99 1.69 1.92 1.69 2.07 0 2.07-1.71 2.07-2.73 0-.49 0-1-.03-1.41-.07-1.97-2.02-3.33-3.79-3.36-2.13-.03-4.36-.06-6.62-.06l.02-1.43c0-1.19-1.03-1.81-2.04-1.81-1.2 0-2.04.74-2.04 1.84l.02 1.39c-2.26 0-4.49.03-6.59.06-2.59.03-3.84 1.7-3.91 3.26 0 .22 0 .43-.01.65 0 .23-.02.46-.02.68 0 .24 0 .47.02.69 0 .18.01.36.01.54Z" class="cls-1"/><path d="M109.34 48.53c.69 0 5.51-1.01 10.89-5.35v.22c0 2.8-1.1 3.18-2.17 3.18-.31 0-.67-.04-1.12-.13-.18-.04-.34-.04-.48-.04-1.13 0-1.72.85-1.72 1.69 0 .97.58 2.13 3.35 2.13 4.29 0 5.81-3.28 5.81-6.35 0-3.33-1.54-7.04-3.79-9.26h0c.35-.28.72-.57 1.12-.87h.65c.62 5.6 3.81 12.31 8.71 14.1.27.1.56.15.86.15 1.26 0 2.1-1.04 2.1-2.01 0-.78-.5-1.44-1.31-1.72-2.38-.84-3.92-2.64-4.84-4.15 1.4-.7 2.82-1.53 4.03-2.35.56-.39.87-.91.87-1.48 0-1.05-1-2.01-2.1-2.01-.42 0-.82.15-1.12.41-1.03.83-2.11 1.62-3.12 2.27-.3-.98-.52-2.04-.64-3.11l1.5.04c1.13 0 1.72-.82 1.72-1.63s-.61-1.69-1.78-1.69h-13.15c-1.17 0-1.78.85-1.78 1.69s.6 1.63 1.79 1.63l2.14-.05c-1.68.88-3.44 1.46-5.87 2-.86.18-1.47.89-1.47 1.74s.62 1.66 1.78 1.66c.53 0 4.15-.9 7.19-2.7.11.1.21.2.31.31-2.58 1.79-5.12 2.85-8.38 3.51-.99.21-1.44.99-1.44 1.68 0 .82.6 1.69 1.72 1.69.04 0 4.34-.67 9.77-4.3.04.1.08.21.12.31-3.79 3.14-6.82 4.69-10.38 5.33-.91.15-1.55.89-1.55 1.8 0 .82.62 1.69 1.78 1.69ZM145.38 49.42c.72 0 1.35-.36 1.76-1 .04-.07.08-.13.13-.2v.17c0 .95.92 1.81 1.92 1.81s3.07-1.64 4.4-2.97c2.28 1.78 5.64 2.64 10.26 2.64 1.49 0 3.16-.09 4.97-.27 1.31-.12 1.91-1.08 1.91-1.92s-.63-1.78-1.81-1.78h-.12l-.78.05c-1.7.11-3.45.22-5.15.22-3.4 0-5.65-.5-7.2-1.61.86-1.41 1.55-3.1 2.24-5.52.1.01.2.02.3.02h2.82v2.41h-2.38c-1.13 0-1.75.87-1.75 1.69 0 .77.55 1.6 1.75 1.6h8.46c1.11 0 1.69-.83 1.69-1.66s-.58-1.63-1.69-1.63h-2.53v-2.41h3.39c1.11 0 1.69-.83 1.69-1.66s-.58-1.63-1.69-1.63h-3.39v-2.4c2.64-.66 3.41-1.21 3.41-2.35s-1.14-1.98-2.39-1.57c-2.91 1.05-5.75 1.48-7.62 1.66-.86.07-1.43.69-1.43 1.54s.65 1.78 1.75 1.78c.14 0 1.03-.06 2.73-.33v1.67h-2.82c-.4 0-.76.11-1.05.32-.48-.34-1.11-.53-1.79-.53h-.23c.95-2.12 1.03-2.59 1.03-3.06 0-1.98-1.74-1.98-3.59-1.98-1.12 0-2.08 0-2.57.53 0-.31-.01-.62-.02-.92 0-.23.07-.78.7-.78 1.74-.03 5.73-.06 9.7-.06 3.2 0 6.28.03 7.92.06h.04c1.19 0 1.84-.92 1.84-1.78 0-.81-.57-1.69-1.83-1.69-1.75-.03-4.96-.06-8.35-.06v-1.31c0-2.41-4.03-2.41-4.03 0v1.31c-2.68 0-5.01.03-6.34.06-2.13.06-3.45 1.33-3.45 3.39.01.72.03 1.46.05 2.2.03 1.15.07 2.32.07 3.49 0 3.84-.28 8.26-2.36 11.9-.19.3-.28.62-.28.95 0 .9.77 1.6 1.75 1.6Zm8.18-10.65h.76c-.07.37-.33 1.37-.84 2.55-.06-.21-.11-.44-.17-.69-.11-.52-.43-.95-.86-1.21.46-.08.85-.3 1.1-.65Zm-3.53-3.92v-1.59c.24.32.6.54 1.05.54.12 0 .41-.01.71-.03.18 0 .36-.02.51-.02-.24.63-.83 2.02-1.71 3.66-.12.23-.17.46-.17.7 0 .47.25.85.67 1.09-.65.14-1.23.6-1.23 1.43 0 .49.52 2.41 1.48 4.01-.83.87-1.84 1.61-3.07 2.25-.17.08-.3.17-.42.27 1.91-3.76 2.18-8.29 2.18-12.32ZM185.46 45.73c1.01 0 1.99-.44 2.86-1.27 3.17-3.11 6.59-8.73 6.59-12.36v-.32c2.61.57 4.32 2.48 4.32 5.04 0 3.52-3.23 6.42-8.05 7.22-1.75.32-2.37 1.43-2.37 2.37 0 1.16.97 2.35 2.59 2.35.09 0 9.02-.73 11.94-8.08.48-1.2.72-2.44.72-3.68 0-5.51-4.47-9.51-10.63-9.51-6.85 0-12.86 5.48-12.86 11.73 0 3.59 2.2 6.51 4.91 6.51Zm4.61-13.44c-.21 3.5-3.43 7.46-4.35 8.35-.21-.09-.69-.42-.69-1.57 0-2.53 2.31-5.48 5.05-6.78ZM227.19 28.39c.44.26 1.61 1.34 1.86 1.73.35.54.92.86 1.56.86 1.13 0 2.12-1.03 2.12-2.21 0-.12-.01-.25-.04-.37.35.38.82.59 1.34.59 1.13 0 2.12-1.03 2.12-2.21 0-1.87-3.41-3.9-4.55-3.9s-2.12.92-2.12 2c0 .11.01.22.03.33-.5-.25-.95-.4-1.24-.4-1.15 0-2.12.89-2.12 1.94 0 .66.38 1.26 1.04 1.64ZM223.93 49.08c1.69 0 3.41-.22 4.98-.62 1.42-.37 2.33-1.45 2.33-2.74 0-1.67-1.52-2.77-3.41-2.3-4.75 1.24-8.04.87-9.76-1.21-.57-.69-1.29-1.07-2.03-1.07-1.32 0-2.44 1.15-2.44 2.5 0 2.22 3.68 5.44 10.34 5.44Z" class="cls-1"/><path d="M217.65 31.65c.94.47 4.31 1.99 8.45 1.99 1.82 0 2.77-1.23 2.77-2.44 0-1.13-.82-2.32-2.39-2.41-3.24-.18-4.97-.68-6.89-1.49-.44-.16-.8-.23-1.17-.23-1.27 0-2.24.97-2.24 2.27 0 .99.57 1.89 1.48 2.32ZM248.03 34.39c.24 0 .48-.01.73-.04-.61 4.8-.95 7.96-.95 8.96 0 1.66 1.25 2.41 2.41 2.41.36 0 .66-.08.96-.19.91-.37 1.16-.9 1.36-1.32.05-.11.11-.23.19-.36 1.32-2.05 4.08-4.25 6.07-4.25.47 0 1.8.19 1.8 1.06 0 1-1.83 4.17-7.46 4.99-1.47.24-2.12 1.32-2.12 2.28 0 1.13.9 2.32 2.56 2.32.68 0 6.01-.84 9.46-4.49 1.5-1.57 2.36-3.5 2.36-5.31 0-3.79-3.88-5.2-6.33-5.2s-4.64 1.17-6.43 2.61c.14-1.05.32-2.25.5-3.43.09-.57.18-1.14.26-1.68 2.23-1.24 3.7-2.4 3.7-3.9 0-1.33-1.16-2.3-2.56-2.09.06-.29.09-.54.09-.7 0-1.22-.99-2.15-2.29-2.15-2.21 0-2.51 1.68-3 5.69-.76.27-1.49.24-1.74.17-.34-.15-.71-.23-1.14-.23-1.29 0-2.3 1.01-2.3 2.29 0 1.56 1.48 2.53 3.87 2.53ZM276.75 40c.55 0 1.07-.15 1.54-.45a.77.77 0 0 0 .13-.09c-.05.31-.08.64-.08.97 0 6.18 7.68 9.89 9.68 9.89 1.53 0 2.68-1.1 2.68-2.56s-1.02-2.49-2.61-2.79c-3.22-.57-5.46-3.16-5.46-5.14 0-.69.25-1.27.78-1.8.92-.92 1.32-1.03 2.51-1.39l.65-.2c.57-.18 2.25-.44 3.16-.47 3-.04 3.32-1.72 3.32-2.44 0-1.21-.91-2.5-2.59-2.5-1.52 0-3.25.45-5.55 1.22.86-.99 1.76-2.11 2.92-3.7.54-.73.83-1.51.83-2.26 0-1.78-1.5-2.74-2.92-2.74-.62 0-1.04.21-1.36.36-.08.04-.16.08-.22.1-1.66.59-3.06.91-4.86 1.11-1.44.19-2.09 1.26-2.09 2.23 0 1.13.86 2.32 2.44 2.32.66 0 1.55-.24 2.39-.53-.96 1.33-2.2 2.98-3.13 4.06-.56.64-1.55 1.31-3.04 2.03-1.58.76-1.81 1.8-1.81 2.35 0 1.29 1.23 2.38 2.68 2.38ZM306.39 27.46c1.99 1.01 4.49 1.37 6.17 1.37 1.32 0 2.65-.88 2.65-2.56 0-1.11-.83-2.24-2.41-2.24h-.19c-.33.03-.63.03-.96.03-1.27 0-2.17-.17-3.14-.59-.41-.16-.78-.24-1.13-.24-1.25 0-2.27.99-2.27 2.21 0 .83.46 1.56 1.29 2.02ZM305.17 36.14c1.01 0 2-.49 3.6-1.48.83-.52 1.44-.78 1.86-.78 1.15 0 1.65 2.8 1.65 4.23 0 3.47-2.32 6.33-6.71 8.26-.87.39-1.39 1.17-1.39 2.07 0 1.19.99 2.47 2.47 2.47 1.69 0 10.4-4.48 10.4-12.86 0-3.18-1.32-8.56-6.24-8.56-1.27 0-2.67.35-4.15 1.03l-.39.19c-.54.26-.89.42-1.37.48-1.65.22-2.38 1.4-2.38 2.46 0 1.22.99 2.47 2.65 2.47Z" class="cls-1"/><path d="m115.77 33.82-12.22 34.55-23.98 6.65-11.89 43.21 11.51 46.64 46.62-22.46 31.33 41.2 74.16-9.01 45.19-30.4 46.86 1.86 49.66 30.96 3.56-18.2-37.65-76.06-52.35-46.31-60.1-7.67-40.75 11.85s-35.66-5.36-35.69-7.37-34.26.56-34.26.56Z" class="cls-2"/><path d="M90.57 131.33c-1.73 0-3.98.03-6.45.06-2.95.04-6.21.08-9.21.08-2.18 0-4.5-.05-7.15-.14h-.29c-3.9 0-6 2.95-6 5.72 0 3.5 2.4 5.6 6.44 5.65 0 9.62 0 28.74-.4 35.12h-.39c-3.85 0-5.93 2.91-5.93 5.65 0 .26.05 2.56 1.78 4.2.8.76 2.23 1.63 4.62 1.51 1.23-.07 2.55-.07 3.82-.07 2.68 0 5.32.07 8.12.14h.39c3.95 0 6.08-2.98 6.08-5.79s-1.92-5.54-5.53-5.64c-.56-.03-.91-.08-1.12-.11v-.07c-.13-1.47-.13-6.85-.13-12.77 1.16 0 2.54.02 3.78.04.89.01 1.71.02 2.32.03-.01.17-.02.35-.02.51v.29c0 3.58 2.95 5.5 5.72 5.5s5.72-1.89 5.72-5.5v-.38c-.05-1.16-.14-3.5-.14-6.13 0-1.95.08-4.03.14-5.51v-.29c0-3.22-2.43-5.65-5.65-5.65-2.88 0-5.79 1.99-5.79 5.79v.45c-1.26.05-3.91.1-5.99.11.05-2.9.12-5.73.18-8.17.03-1.27.06-2.43.08-3.41v-.07h.64c.89 0 2.49.03 4.18.06 1.96.04 4.06.08 5.4.08 2.55 0 2.58.14 2.89 1.76.47 2.84 2.75 4.82 5.55 4.82s5.93-2.1 5.93-6c0-.33 0-.65-.71-3.88-1.49-5.6-5.34-7.99-12.88-7.99ZM146.42 170.6c-2.58 0-4.73 1.66-5.49 4.22q-.95 3.21-11.24 3.21c-1.22 0-3.11 0-4.01-.12v-.06c-.13-1.49-.14-7.03-.14-13.06 1.07 0 2.31.02 3.43.04.86.01 1.65.02 2.25.03-.01.15-.02.3-.02.43v.29c0 3.58 2.87 5.5 5.58 5.5s5.65-1.93 5.65-5.5v-.38c-.05-1.15-.14-3.45-.14-5.92 0-1.88.08-3.85.14-5.44v-.29c0-3.71-2.77-5.65-5.5-5.65-1.54 0-3.09.65-4.15 1.74-.74.76-1.62 2.12-1.57 4.19v.31c-1.24.04-3.64.05-5.56.05v-.85c.07-4.13.14-8.22.2-10.96.38 0 1.25 0 2.34.02 2.12.02 5.1.05 7.03.05 2.59 0 2.65.3 2.96 1.9.48 2.88 2.8 4.82 5.76 4.82s5.93-2 5.93-5.72c0-.69-.15-1.29-.3-1.86l-.06-.25c-1.75-6.25-3.52-10.04-13.3-10.04-1.75 0-3.97.03-6.39.06-5.58.07-12.29.06-15.78-.06h-.29c-3.9 0-6 2.91-6 5.65 0 3.5 2.4 5.6 6.44 5.65v7.23c0 14.36-.14 23.99-.39 27.97h-.4c-3.85 0-5.93 2.95-5.93 5.72 0 1.6.57 2.99 1.65 4.02 1.32 1.26 3.12 1.7 4.48 1.7h.27c4.62-.25 11.32-.14 17.19-.1 2.28.02 4.42.03 6.23.03 7.48 0 11.52-2.22 13.5-7.37.07-.15 1.59-3.79 1.59-5.42 0-3.62-3.02-5.79-5.93-5.79ZM208.03 178.03h-.02c-.19-.16-.47-.57-.58-.85-3.48-9.15-10.45-28.77-14.28-39.76-1.26-3.77-4.52-6.3-8.12-6.3s-6.51 2.33-7.76 6.08c-.9 2.65-2.17 6.3-3.62 10.47-3.21 9.23-7.2 20.71-10.06 29.63-.11.36-.28.62-.38.73H163c-3.81 0-5.86 2.87-5.86 5.58s2.08 5.65 5.93 5.65h.37c1.58-.07 3.7-.14 6-.14 1.88 0 3.76.08 5.51.14h.29c3.9 0 5.93-2.8 5.93-5.58 0-1.59-.56-2.97-1.61-3.99-1.03-1-2.48-1.58-4.08-1.65.51-1.77 1.51-5.2 2.04-7.02h15.39c.65 1.97 1.65 5.26 2.19 7.06-3.29.38-5.06 3.06-5.06 5.6 0 1.53.56 2.89 1.62 3.91 1.1 1.07 2.68 1.67 4.37 1.67h.24c1.58-.07 3.7-.14 6-.14 1.88 0 3.76.08 5.51.14h.29c3.9 0 6-2.87 6-5.58 0-.55-.12-2.46-1.7-4.01-.77-.76-2.15-1.64-4.34-1.64Zm-26.93-17.88c.97-3.18 2.82-9.18 4.1-12.94.96 2.95 3.11 9.57 4.15 12.94h-8.25ZM248.48 156.17c-1.84-.98-4.09-2.07-6.27-3.12-1.86-.9-3.61-1.75-4.96-2.46-2.32-1.23-3.59-2.92-3.59-4.74 0-2.1 1.92-4.22 5.58-4.22 4.41 0 6.49 1.92 6.51 2.45l-.02.13c-.03.23-.06.47-.06.71v.29c0 2.93 2.49 5.15 5.79 5.15 1.36 0 3.27-.48 4.55-1.83.93-.98 1.39-2.26 1.31-3.71-.07-1.17-.14-2.73-.14-4.4 0-1.38.07-2.67.14-4.04v-.31c0-2.9-2.47-5-5.86-5-1.54 0-2.95.45-3.94 1.22-2.51-1.08-5.34-1.65-8.22-1.65-8.46 0-17.45 5.41-17.45 15.45 0 6.26 3.86 11.75 10.33 14.7 3.73 1.69 7.72 3.9 10.78 5.64 2.85 1.62 4.49 3.93 4.49 6.34 0 2.03-1.64 5.87-7.87 5.87-3.84 0-8.3-1.75-8.3-4.01v-.57c0-3.11-2.44-5.36-5.79-5.36s-5.86 2.28-5.86 5.43v.24c.07 1.35.14 3.36.14 5.27 0 1.55-.08 3.08-.14 4.1v.41c0 3.14 2.49 5.5 5.79 5.5 1.6 0 3.1-.59 4.21-1.64 2.99 1.37 6.38 2.07 10.09 2.07 11.19 0 19.95-7.7 19.95-17.52 0-6.54-4.08-12.5-11.22-16.36ZM315.45 139.81c-.23-.53-.44-1.03-.59-1.44-1.78-4.92-5.49-7.11-12.04-7.11h-.76c-3.16.07-8.28.14-13.19.14-3.94 0-7.61-.07-9.8-.14h-1.36c-9.19 0-10.78 4.77-12.98 11.38-.31.93-.46 1.74-.46 2.49 0 3.58 2.98 5.72 5.86 5.72 2.71 0 4.95-1.72 5.69-4.3.17-.51.29-.99.41-1.44.08-.3.15-.59.25-.91.11-.36.39-1.33.55-1.5.42-.29 2.79-.29 4.89-.29 1.18 0 2.25 0 2.95.03.13 3.87.13 8.14.13 12.27 0 4.85-.04 9.68-.08 14-.03 3.33-.06 6.36-.06 8.88h-.29c-3.81 0-5.86 3.02-5.86 5.86 0 1.65.63 3.15 1.78 4.23 1.08 1.02 2.52 1.57 4.06 1.57.13 0 .26 0 .39-.01 1.49-.06 3.77-.14 6.21-.14 2 0 4 .07 5.79.14h.29c3.85 0 5.93-2.98 5.93-5.79s-2.11-5.86-6.15-5.86c-.07-4.15-.14-9.55-.14-15.09 0-7.74.07-14.99.2-20.05.84-.05 2.27-.05 3.95-.05q3.03 0 3.68 1.99c.2.61.41 1.29.62 2.06.75 2.62 2.99 4.31 5.71 4.31 2.92 0 5.93-2.17 5.93-5.79 0-.83-.14-1.62-.39-2.28-.33-.99-.76-2.01-1.14-2.9ZM349.96 156.17c-1.84-.98-4.09-2.07-6.27-3.12-1.86-.9-3.61-1.75-4.96-2.45-2.32-1.23-3.59-2.92-3.59-4.74 0-2.1 1.92-4.22 5.58-4.22 4.41 0 6.49 1.92 6.51 2.45l-.02.13c-.03.23-.06.47-.06.71v.29c0 2.93 2.49 5.15 5.79 5.15 1.36 0 3.27-.48 4.55-1.83.93-.98 1.39-2.26 1.31-3.71-.07-1.17-.14-2.73-.14-4.4 0-1.38.07-2.67.14-4.04v-.31c0-2.9-2.47-5-5.86-5-1.54 0-2.95.45-3.94 1.22-2.51-1.08-5.34-1.65-8.22-1.65-8.46 0-17.45 5.41-17.45 15.45 0 6.26 3.86 11.75 10.33 14.7 3.73 1.69 7.72 3.9 10.78 5.64 2.85 1.62 4.49 3.93 4.49 6.34 0 2.03-1.64 5.87-7.87 5.87-3.84 0-8.3-1.75-8.3-4.01v-.57c0-3.11-2.44-5.36-5.79-5.36s-5.86 2.28-5.86 5.43v.24c.07 1.35.14 3.36.14 5.27 0 1.55-.08 3.08-.14 4.1v.41c0 3.14 2.49 5.5 5.79 5.5 1.6 0 3.1-.59 4.21-1.64 2.99 1.37 6.38 2.07 10.09 2.07 11.19 0 19.95-7.7 19.95-17.52 0-6.54-4.08-12.5-11.22-16.36ZM399.79 133.97c-1.34-.34-2.46.42-3.07 2.16-1.53 4.33-3.03 8.67-4.54 13.01-.15.44-.3.9-.54 1.28-.49.79-1.18 1.07-1.91.7-.67-.34-.92-1.02-.69-1.89.08-.3.2-.59.3-.88 1.54-4.41 3.08-8.82 4.6-13.23.65-1.9-.14-3.49-1.83-3.79-1.26-.23-2.29.55-2.92 2.32-1.51 4.26-2.98 8.52-4.47 12.79-.15.44-.3.9-.53 1.29-.46.79-1.12 1.18-1.88.83-.78-.36-1.02-1.09-.74-2.05.09-.3.2-.59.3-.88 1.51-4.34 3.02-8.67 4.53-13.01.63-1.82.13-3.24-1.3-3.76-1.46-.53-2.76.19-3.4 2.02-2.23 6.35-4.44 12.71-6.65 19.07-.43 1.25-.47 2.48-.08 3.7.55 1.72.98 3.49 1.57 5.18.98 2.82.85 5.66-.21 8.61-1.15 3.18-2.24 6.39-3.35 9.59-1.2 3.45-2.42 6.91-3.61 10.37-.65 1.88-.23 2.99 1.37 3.68.53.23 1.07.42 1.62.58 1.9.56 3-.1 3.74-2.24 2.4-6.87 4.8-13.74 7.18-20.62.8-2.3 2.17-4.09 4.03-5.41 1.71-1.22 3.45-2.4 5.18-3.59 1.1-.76 1.9-1.78 2.36-3.14 1.05-3.06 2.12-6.1 3.18-9.15 1.14-3.27 2.29-6.54 3.41-9.82.62-1.82-.08-3.31-1.69-3.71ZM43.2 164.2c-.57-1.48-.81-2.95-.74-4.41 2.48-4 2.71-10.68.17-17.36-3.52-9.22-10.98-14.93-16.68-12.76-5.69 2.17-7.45 11.41-3.94 20.63 2.7 7.08 7.74 12.08 12.5 13.04 1.05 1.21 1.87 2.65 2.48 4.3 1.17 3.18 2.41 6.33 3.61 9.49 1.3 3.42 2.6 6.84 3.92 10.25.72 1.86 1.75 2.44 3.42 1.94.55-.17 1.09-.37 1.61-.6 1.82-.79 2.23-2 1.42-4.12-2.59-6.8-5.18-13.6-7.78-20.4ZM67.22 106.86c-3.85 0-5.93 2.91-5.93 5.65 0 .26.05 2.56 1.78 4.2.8.76 2.23 1.63 4.62 1.51 1.23-.07 2.55-.07 3.82-.07 2.68 0 5.32.07 8.12.14h.39c3.95 0 6.08-2.98 6.08-5.79s-1.92-5.54-5.53-5.64c-.56-.03-.91-.08-1.12-.11v-.07c-.13-1.47-.13-6.85-.13-12.77 1.16 0 2.54.02 3.78.04.89.01 1.71.02 2.32.03-.01.17-.02.35-.02.51v.29c0 3.58 2.95 5.5 5.72 5.5s5.72-1.89 5.72-5.5v-.38c-.05-1.16-.14-3.5-.14-6.13 0-1.95.08-4.03.14-5.51v-.29c0-3.22-2.43-5.65-5.65-5.65-2.88 0-5.79 1.99-5.79 5.79v.45c-1.26.05-3.91.1-5.99.11.05-2.9.12-5.73.18-8.17.03-1.27.06-2.43.08-3.41v-.07h.64c.89 0 2.49.03 4.18.06 1.96.04 4.06.08 5.4.08 2.55 0 2.58.14 2.89 1.76.47 2.84 2.75 4.82 5.55 4.82s5.93-2.1 5.93-6c0-.33 0-.65-.71-3.88-1.49-5.6-5.34-7.99-12.88-7.99-1.73 0-3.98.03-6.45.06-2.95.04-6.21.08-9.21.08-2.18 0-4.5-.05-7.15-.14h-.29c-3.9 0-6 2.95-6 5.72 0 3.5 2.4 5.6 6.44 5.65 0 9.62 0 28.74-.4 35.12h-.39ZM148.85 107.08h-.02c-.19-.16-.47-.57-.58-.85-3.48-9.15-10.45-28.77-14.28-39.76-1.26-3.77-4.52-6.3-8.12-6.3s-6.51 2.33-7.76 6.08c-.9 2.65-2.17 6.3-3.62 10.47-3.21 9.23-7.2 20.71-10.06 29.63-.11.36-.28.62-.38.73h-.21c-3.81 0-5.86 2.87-5.86 5.58s2.08 5.65 5.93 5.65h.37c1.58-.07 3.7-.14 6-.14 1.88 0 3.76.08 5.51.14h.29c3.9 0 5.93-2.8 5.93-5.58 0-1.59-.56-2.97-1.61-3.99-1.03-1-2.48-1.58-4.08-1.65.51-1.77 1.51-5.2 2.04-7.02h15.39c.65 1.97 1.65 5.26 2.19 7.06-3.29.38-5.06 3.06-5.06 5.6 0 1.53.56 2.89 1.62 3.91 1.1 1.07 2.68 1.67 4.37 1.67h.24c1.58-.07 3.7-.14 6-.14 1.88 0 3.76.08 5.51.14h.29c3.9 0 6-2.87 6-5.58 0-.55-.12-2.46-1.7-4.01-.77-.76-2.15-1.64-4.34-1.64ZM121.92 89.2c.97-3.18 2.82-9.18 4.1-12.94.96 2.96 3.11 9.57 4.15 12.94h-8.25ZM224.55 118.23c3.9 0 6-2.98 6-5.79s-1.98-5.61-5.78-5.65l-.14-2.14c-.63-9.81-1.59-24.6-1.73-32.93 2.63-.56 4.36-2.74 4.36-5.55s-2.01-5.79-5.86-5.79h-.31c-1.5.07-3.77.14-5.63.14h-1.43c-4.33 0-7.79 2.51-9.25 6.71-1.19 3.41-2.83 8.76-4.56 14.43-2 6.52-4.05 13.22-5.59 17.56-1.04-2.99-2.53-7.81-3.92-12.39-.8-2.64-1.62-5.38-2.4-8-1.31-4.36-2.54-8.48-3.39-11.18-1.38-4.44-5.12-7.2-9.78-7.2h-.36c-.51 0-1.06.02-1.62.04-2.09.07-4.2-.02-5.4-.1h-.56c-3.8 0-5.79 2.91-5.79 5.79 0 3.36 2.09 5.47 5.64 5.76-.16 3.05-.37 6.66-.59 10.52-.45 7.9-.97 16.83-1.3 24.35h-.03c-3.85 0-5.93 2.95-5.93 5.72 0 1.1.48 2.84 1.82 4.13.81.78 2.23 1.69 4.55 1.59 1.67-.07 3.65-.14 5.71-.14 1.69 0 3.39.07 5.19.13h.54c3.95 0 6.08-2.94 6.08-5.71s-2.14-5.72-6.22-5.72h-.06c.08-3.42.55-18.27.93-26.83.65 2.2 1.37 4.68 2.12 7.24 2.84 9.75 6.06 20.79 7.6 24.5 1.35 3.29 3.85 5.17 6.86 5.17 3.2 0 6.17-2.13 7.38-5.29 2.32-6.1 7.34-21.73 10.18-31.14.13 7.08.39 18.59.79 26.35-3.83.02-5.9 2.95-5.9 5.72 0 1.1.48 2.84 1.82 4.13.77.74 2.12 1.6 4.23 1.6h.33c1.67-.07 3.66-.14 5.71-.14 1.69 0 3.39.07 5.19.13h.54ZM257.73 72.03c3.95 0 6.08-2.98 6.08-5.79s-2.14-5.79-6.22-5.79h-.22c-1.15.04-4.15.14-7.29.14-2.39 0-4.6-.09-5.79-.14h-.36c-3.85 0-5.93 2.98-5.93 5.79 0 1.19.48 2.92 1.82 4.2.81.78 2.26 1.68 4.6 1.58l.45-.03c.13 4.31.13 8.97.13 13.48 0 7.13-.07 14.2-.2 21.06l-.35-.03H243.99c-3.94 0-6 2.91-6 5.79s2.06 5.79 6 5.79h.37c1.61-.07 4.1-.14 6.86-.14 2.12 0 4.26.07 6.15.14h.29c3.99 0 6.08-2.88 6.08-5.72s-2.14-5.86-6.22-5.86h-.14c-.1 0-.23 0-.37.01-.14-6.87-.21-13.81-.21-20.61 0-4.66.06-9.21.14-13.88h.8ZM310.72 97.57c-2.57 0-4.71 1.46-5.6 3.82-1.77 4.88-2.85 5.62-5.63 5.62h-10.23c0-.06 0-.13-.01-.21-.13-1.25-.13-5.55-.13-10.52 0-8.1.13-18.51.27-24.39h.38c3.95 0 6.08-2.95 6.08-5.72s-2.14-5.79-6.22-5.79h-.22c-2.58.1-4.76.14-6.65.14-2.06 0-4-.08-5.36-.14h-.36c-3.85 0-5.93 2.95-5.93 5.72 0 .86.4 2.86 1.9 4.28.8.76 2.21 1.63 4.45 1.51h.23v9.81c0 13.61 0 22.41-.35 25.04-3.63.17-5.59 3.02-5.59 5.71 0 2.84 2.04 5.72 5.93 5.72h.39c1.31-.07 2.95-.07 4.69-.07 2.37 0 5.05 0 7.38.07h.35c.43 0 1.47.01 2.75.02 2.09.02 4.83.05 6.7.05 9.79 0 13.11-3.59 15.5-9.72l.06-.15c1.18-2.72 1.53-3.54 1.53-4.87 0-3.66-3.27-5.93-6.29-5.93ZM360.07 60.38c-1.79.07-4.13.14-6.43.14-1.84 0-3.59-.07-5.15-.14h-.36c-3.95 0-6.08 2.91-6.08 5.65 0 2.21 1.46 4.58 4.24 5.41-1.81 3.07-5.43 8.76-7.37 11.33-1.26-1.83-3.67-5.52-7.46-11.37 2.88-.91 4.37-3.31 4.37-5.58 0-2.7-2.09-5.43-6.08-5.43h-.36c-2.55.1-4.83.14-6.79.14-1.6 0-3.34-.05-5.44-.14h-.36c-3.9 0-5.93 2.88-5.93 5.72 0 1.7.63 5.65 6.51 5.65.19 0 .26.02.27.04 3.63 5.42 9.77 14.65 14.59 21.95l.06.08c.16.24.34.52.37.57.02.07.02.3.02.67 0 2.28-.02 4.42-.04 6.5-.02 1.75-.03 3.46-.03 5.16h-.29c-3.9 0-6 2.98-6 5.79 0 .8.17 2.81 1.76 4.31.74.7 2.05 1.5 4.12 1.5.16 0 .33 0 .5-.02 1.27-.05 3.81-.14 6.57-.14 2.04 0 4.18.07 6.08.14h.29c3.95 0 6.08-2.98 6.08-5.79s-2.14-5.79-6.22-5.79h-.22c0-2.21-.02-4.42-.04-6.47-.02-1.9-.03-3.65-.03-5.12q0-.95.56-1.7c4.37-6.16 11.38-16.84 14.49-21.66.04 0 .08-.01.13-.02h.05c3.99 0 6.08-2.84 6.08-5.65 0-3.47-2.5-5.72-6.43-5.72ZM107.78 31.99c.04 1.04.83 1.76 1.92 1.76.96 0 1.95-.64 1.95-1.75v-1.53c.06-.77.08-1 1.47-1.03 3.99-.07 9.93-.05 14.25 0q1.39.04 1.39 2.53c0 1.1.99 1.69 1.92 1.69 2.07 0 2.07-1.71 2.07-2.73 0-.49 0-1-.03-1.41-.07-1.97-2.02-3.33-3.79-3.36-2.13-.03-4.36-.06-6.62-.06l.02-1.43c0-1.19-1.03-1.81-2.04-1.81-1.2 0-2.04.74-2.04 1.84l.02 1.39c-2.26 0-4.49.03-6.59.06-2.59.03-3.84 1.7-3.91 3.26 0 .22 0 .43-.01.65 0 .23-.02.46-.02.68 0 .24 0 .47.02.69 0 .18.01.36.01.54Z" class="cls-3"/><path d="M109.34 48.53c.69 0 5.51-1.01 10.89-5.35v.22c0 2.8-1.1 3.18-2.17 3.18-.31 0-.67-.04-1.12-.13-.18-.04-.34-.04-.48-.04-1.13 0-1.72.85-1.72 1.69 0 .97.58 2.13 3.35 2.13 4.29 0 5.81-3.28 5.81-6.35 0-3.33-1.54-7.04-3.79-9.26.35-.28.72-.57 1.12-.87h.65c.62 5.6 3.81 12.31 8.71 14.1.27.1.56.15.86.15 1.26 0 2.1-1.04 2.1-2.01 0-.78-.5-1.44-1.31-1.72-2.38-.84-3.92-2.64-4.84-4.15 1.4-.7 2.82-1.53 4.03-2.35.56-.39.87-.91.87-1.48 0-1.05-1-2.01-2.1-2.01-.42 0-.82.15-1.12.41-1.03.83-2.11 1.62-3.12 2.27-.3-.98-.52-2.04-.64-3.11l1.5.04c1.13 0 1.72-.82 1.72-1.63s-.61-1.69-1.78-1.69h-13.15c-1.17 0-1.78.85-1.78 1.69s.6 1.63 1.79 1.63l2.14-.05c-1.68.88-3.44 1.46-5.87 2-.86.18-1.47.89-1.47 1.74s.62 1.66 1.78 1.66c.53 0 4.15-.9 7.19-2.7.11.1.21.2.31.31-2.58 1.79-5.12 2.85-8.38 3.51-.99.21-1.44.99-1.44 1.68 0 .82.6 1.69 1.72 1.69.04 0 4.34-.67 9.77-4.3.04.1.08.21.12.31-3.79 3.14-6.82 4.69-10.38 5.33-.91.15-1.55.89-1.55 1.8 0 .82.62 1.69 1.78 1.69ZM145.38 49.42c.72 0 1.35-.36 1.76-1 .04-.07.08-.13.13-.2v.17c0 .95.92 1.81 1.92 1.81s3.07-1.64 4.4-2.97c2.28 1.78 5.64 2.64 10.26 2.64 1.49 0 3.16-.09 4.97-.27 1.31-.12 1.91-1.08 1.91-1.92s-.63-1.78-1.81-1.78h-.12l-.78.05c-1.7.11-3.45.22-5.15.22-3.4 0-5.65-.5-7.2-1.61.86-1.41 1.55-3.1 2.24-5.52.1.01.2.02.3.02h2.82v2.41h-2.38c-1.13 0-1.75.87-1.75 1.69 0 .77.55 1.6 1.75 1.6h8.46c1.11 0 1.69-.83 1.69-1.66s-.58-1.63-1.69-1.63h-2.53v-2.41h3.39c1.11 0 1.69-.83 1.69-1.66s-.58-1.63-1.69-1.63h-3.39v-2.4c2.64-.66 3.41-1.21 3.41-2.35s-1.14-1.98-2.39-1.57c-2.91 1.05-5.75 1.48-7.62 1.66-.86.07-1.43.69-1.43 1.54s.65 1.78 1.75 1.78c.14 0 1.03-.06 2.73-.33v1.67h-2.82c-.4 0-.76.11-1.05.32-.48-.34-1.11-.53-1.79-.53h-.23c.95-2.12 1.03-2.59 1.03-3.06 0-1.98-1.74-1.98-3.59-1.98-1.12 0-2.08 0-2.57.53 0-.31-.01-.62-.02-.92 0-.23.07-.78.7-.78 1.74-.03 5.73-.06 9.7-.06 3.2 0 6.28.03 7.92.06h.04c1.19 0 1.84-.92 1.84-1.78 0-.81-.57-1.69-1.83-1.69-1.75-.03-4.96-.06-8.35-.06v-1.31c0-2.41-4.03-2.41-4.03 0v1.31c-2.68 0-5.01.03-6.34.06-2.13.06-3.45 1.33-3.45 3.39.01.72.03 1.46.05 2.2.03 1.15.07 2.32.07 3.49 0 3.84-.28 8.26-2.36 11.9-.19.3-.28.62-.28.95 0 .9.77 1.6 1.75 1.6Zm8.18-10.65h.76c-.07.37-.33 1.37-.84 2.55-.06-.21-.11-.44-.17-.69-.11-.52-.43-.95-.86-1.21.46-.08.85-.3 1.1-.65Zm-3.53-3.92v-1.59c.24.32.6.54 1.05.54.12 0 .41-.01.71-.03.18 0 .36-.02.51-.02-.24.63-.83 2.02-1.71 3.66-.12.23-.17.46-.17.7 0 .47.25.85.67 1.09-.65.14-1.23.6-1.23 1.43 0 .49.52 2.41 1.48 4.01-.83.87-1.84 1.61-3.07 2.25-.17.08-.3.17-.42.27 1.91-3.76 2.18-8.29 2.18-12.32ZM185.46 45.73c1.01 0 1.99-.44 2.86-1.27 3.17-3.11 6.59-8.73 6.59-12.36v-.32c2.61.57 4.32 2.48 4.32 5.04 0 3.52-3.23 6.42-8.05 7.22-1.75.32-2.37 1.43-2.37 2.37 0 1.16.97 2.35 2.59 2.35.09 0 9.02-.73 11.94-8.08.48-1.2.72-2.44.72-3.68 0-5.51-4.47-9.51-10.63-9.51-6.85 0-12.86 5.48-12.86 11.73 0 3.59 2.2 6.51 4.91 6.51Zm4.61-13.44c-.21 3.5-3.43 7.46-4.35 8.35-.21-.09-.69-.42-.69-1.57 0-2.53 2.31-5.48 5.05-6.78ZM227.19 28.39c.44.26 1.61 1.34 1.86 1.73.35.54.92.86 1.56.86 1.13 0 2.12-1.03 2.12-2.21 0-.12-.01-.25-.04-.37.35.38.82.59 1.34.59 1.13 0 2.12-1.03 2.12-2.21 0-1.87-3.41-3.9-4.55-3.9s-2.12.92-2.12 2c0 .11.01.22.03.33-.5-.25-.95-.4-1.24-.4-1.15 0-2.12.89-2.12 1.94 0 .66.38 1.26 1.04 1.64ZM223.93 49.08c1.69 0 3.41-.22 4.98-.62 1.42-.37 2.33-1.45 2.33-2.74 0-1.67-1.52-2.77-3.41-2.3-4.75 1.24-8.04.87-9.76-1.21-.57-.69-1.29-1.07-2.03-1.07-1.32 0-2.44 1.15-2.44 2.5 0 2.22 3.68 5.44 10.34 5.44Z" class="cls-3"/><path d="M217.65 31.65c.94.47 4.31 1.99 8.45 1.99 1.82 0 2.77-1.23 2.77-2.44 0-1.13-.82-2.32-2.39-2.41-3.24-.18-4.97-.68-6.89-1.49-.44-.16-.8-.23-1.17-.23-1.27 0-2.24.97-2.24 2.27 0 .99.57 1.89 1.48 2.32ZM248.03 34.39c.24 0 .48-.01.73-.04-.61 4.8-.95 7.96-.95 8.96 0 1.66 1.25 2.41 2.41 2.41.36 0 .66-.08.96-.19.91-.37 1.16-.9 1.36-1.32.05-.11.11-.23.19-.36 1.32-2.05 4.08-4.25 6.07-4.25.47 0 1.8.19 1.8 1.06 0 1-1.83 4.17-7.46 4.99-1.47.24-2.12 1.32-2.12 2.28 0 1.13.9 2.32 2.56 2.32.68 0 6.01-.84 9.46-4.49 1.5-1.57 2.36-3.5 2.36-5.31 0-3.79-3.88-5.2-6.33-5.2s-4.64 1.17-6.43 2.61c.14-1.05.32-2.25.5-3.43.09-.57.18-1.14.26-1.68 2.23-1.24 3.7-2.4 3.7-3.9 0-1.33-1.16-2.3-2.56-2.09.06-.29.09-.54.09-.7 0-1.22-.99-2.15-2.29-2.15-2.21 0-2.51 1.68-3 5.69-.76.27-1.49.24-1.74.17-.34-.15-.71-.23-1.14-.23-1.29 0-2.3 1.01-2.3 2.29 0 1.56 1.48 2.53 3.87 2.53ZM276.75 40c.55 0 1.07-.15 1.54-.45a.77.77 0 0 0 .13-.09c-.05.31-.08.64-.08.97 0 6.18 7.68 9.89 9.68 9.89 1.53 0 2.68-1.1 2.68-2.56s-1.02-2.49-2.61-2.79c-3.22-.57-5.46-3.16-5.46-5.14 0-.69.25-1.27.78-1.8.92-.92 1.32-1.03 2.51-1.39l.65-.2c.57-.18 2.25-.44 3.16-.47 3-.04 3.32-1.72 3.32-2.44 0-1.21-.91-2.5-2.59-2.5-1.52 0-3.25.45-5.55 1.22.86-.99 1.76-2.11 2.92-3.7.54-.73.83-1.51.83-2.26 0-1.78-1.5-2.74-2.92-2.74-.62 0-1.04.21-1.36.36-.08.04-.16.08-.22.1-1.66.59-3.06.91-4.86 1.11-1.44.19-2.09 1.26-2.09 2.23 0 1.13.86 2.32 2.44 2.32.66 0 1.55-.24 2.39-.53-.96 1.33-2.2 2.98-3.13 4.06-.56.64-1.55 1.31-3.04 2.03-1.58.76-1.81 1.8-1.81 2.35 0 1.29 1.23 2.38 2.68 2.38ZM306.39 27.46c1.99 1.01 4.49 1.37 6.17 1.37 1.32 0 2.65-.88 2.65-2.56 0-1.11-.83-2.24-2.41-2.24h-.19c-.33.03-.63.03-.96.03-1.27 0-2.17-.17-3.14-.59-.41-.16-.78-.24-1.13-.24-1.25 0-2.27.99-2.27 2.21 0 .83.46 1.56 1.29 2.02ZM305.17 36.14c1.01 0 2-.49 3.6-1.48.83-.52 1.44-.78 1.86-.78 1.15 0 1.65 2.8 1.65 4.23 0 3.47-2.32 6.33-6.71 8.26-.87.39-1.39 1.17-1.39 2.07 0 1.19.99 2.47 2.47 2.47 1.69 0 10.4-4.48 10.4-12.86 0-3.18-1.32-8.56-6.24-8.56-1.27 0-2.67.35-4.15 1.03l-.39.19c-.54.26-.89.42-1.37.48-1.65.22-2.38 1.4-2.38 2.46 0 1.22.99 2.47 2.65 2.47Z" class="cls-3"/></svg>