<svg xmlns="http://www.w3.org/2000/svg" viewBox="0 0 1920 920"><defs><style>.cls-1{fill:none;stroke:#e1e472;stroke-miterlimit:10;stroke-width:4.62px}.cls-3{stroke-width:0;fill:#ececa6}</style></defs><path id="_背景" d="M-30-12.64h1974v948H-30z" data-name="背景" style="stroke-width:0;fill:#e1e472"/><g id="_デザイン" data-name="デザイン"><path d="M1331.61 523.53c-1.63-3.19-4.53-4.19-7.16-2.56-2.19 1.35-2.62 3.84-1.09 6.91 3.81 7.67 7.67 15.32 11.5 22.98.39.77.81 1.57 1.02 2.39.43 1.68-.1 2.98-1.54 3.47-1.33.45-2.56-.1-3.42-1.53-.3-.5-.53-1.03-.79-1.55-3.91-7.79-7.79-15.58-11.73-23.35-1.7-3.35-4.84-4.35-7.46-2.47-1.94 1.39-2.24 3.79-.69 6.92 3.74 7.55 7.54 15.06 11.3 22.59.39.78.82 1.56 1.05 2.38.46 1.64.12 3.02-1.33 3.59-1.49.59-2.78-.05-3.7-1.68-.29-.5-.53-1.03-.79-1.55-3.84-7.66-7.67-15.32-11.53-22.97-1.61-3.2-4.17-4.38-6.72-3.15-2.61 1.26-3.33 3.94-1.72 7.17 5.59 11.24 11.24 22.46 16.89 33.68 1.11 2.21 2.72 3.85 4.86 4.91 3.01 1.5 5.95 3.22 8.98 4.63 5.04 2.35 8.68 6.22 11.24 11.47 2.77 5.68 5.65 11.3 8.48 16.94 3.06 6.1 6.1 12.21 9.18 18.3 1.68 3.32 3.71 4.2 6.71 2.95.99-.41 1.95-.89 2.88-1.42 3.22-1.81 3.77-4.13 1.87-7.91-6.08-12.14-12.16-24.28-18.26-36.4-2.04-4.06-2.65-8.21-2-12.43.6-3.88 1.27-7.73 1.91-11.6.41-2.46.08-4.85-1.13-7.24-2.73-5.37-5.41-10.77-8.11-16.15-2.9-5.77-5.77-11.56-8.7-17.32ZM1516.05 487.19c-10.94-14.81-27.21-21.34-36.35-14.59s-7.69 24.23 3.25 39.04c8.4 11.38 19.95 17.84 29 17.17 2.5 1.65 4.69 3.82 6.61 6.48 3.7 5.12 7.49 10.17 11.25 15.25 4.05 5.49 8.09 10.99 12.17 16.46 2.22 2.98 4.37 3.5 7.11 1.77.9-.57 1.77-1.21 2.6-1.89 2.87-2.33 3.01-4.71.49-8.12-8.06-10.92-16.12-21.85-24.19-32.76-1.76-2.38-2.92-4.9-3.54-7.55 2.45-8.44-.47-20.54-8.39-31.27ZM1269.94 656c-2.5-2.56-5.57-2.65-7.6-.32-1.69 1.94-1.37 4.44 1.01 6.92 5.92 6.19 11.88 12.35 17.81 18.53.6.62 1.24 1.26 1.68 1.98.91 1.48.79 2.87-.44 3.77-1.13.82-2.47.67-3.72-.45-.43-.38-.82-.83-1.22-1.24-6.04-6.27-12.07-12.57-18.14-18.82-2.62-2.7-5.91-2.72-7.86-.15-1.44 1.91-1.01 4.29 1.4 6.81 5.81 6.09 11.67 12.14 17.5 18.22.6.63 1.24 1.25 1.71 1.96.92 1.43 1.01 2.85-.2 3.82-1.25 1.01-2.67.77-4.03-.5-.42-.4-.81-.83-1.22-1.25-5.94-6.17-11.88-12.35-17.83-18.51-2.49-2.58-5.28-2.95-7.35-1.01-2.12 1.98-2.01 4.75.49 7.36 8.68 9.07 17.4 18.11 26.13 27.14 1.72 1.78 3.74 2.87 6.1 3.25 3.32.54 6.63 1.31 9.95 1.76 5.51.75 10.13 3.36 14.14 7.62 4.33 4.6 8.75 9.11 13.13 13.66 4.73 4.92 9.45 9.84 14.2 14.74 2.59 2.67 4.79 2.91 7.28.83.82-.69 1.6-1.43 2.33-2.21 2.54-2.68 2.37-5.06-.56-8.11-9.41-9.78-18.82-19.57-28.25-29.34-3.16-3.27-4.97-7.05-5.6-11.28-.58-3.88-1.08-7.76-1.62-11.64-.34-2.47-1.36-4.66-3.23-6.57-4.2-4.32-8.36-8.67-12.54-13.02-4.48-4.65-8.94-9.33-13.45-13.95ZM1208.65 595.05c9.97-15.48 10.3-33.01.75-39.16-9.55-6.15-25.38 1.41-35.35 16.88-7.66 11.89-9.61 24.98-5.77 33.2-.66 2.92-1.91 5.74-3.72 8.48-3.48 5.27-6.85 10.61-10.27 15.92-3.69 5.74-7.4 11.46-11.08 17.22-2 3.13-1.73 5.33.87 7.28.86.64 1.76 1.23 2.69 1.76 3.2 1.85 5.47 1.14 7.77-2.42 7.35-11.41 14.71-22.82 22.05-34.24 1.6-2.49 3.55-4.47 5.8-5.99 8.76-.7 19.04-7.72 26.26-18.93ZM986.37 360.55c.84-3.48-.72-6.13-3.77-6.6-2.54-.39-4.49 1.21-5.32 4.54-2.09 8.31-4.13 16.63-6.2 24.94-.21.84-.4 1.72-.78 2.48-.77 1.56-2.01 2.2-3.42 1.64-1.3-.52-1.88-1.74-1.6-3.39.1-.57.26-1.13.4-1.69 2.1-8.46 4.21-16.91 6.28-25.37.89-3.65-.85-6.45-4.06-6.73-2.38-.21-4.17 1.42-5.02 4.81-2.07 8.16-4.07 16.34-6.11 24.51-.21.84-.39 1.72-.75 2.49-.72 1.54-1.87 2.37-3.35 1.86-1.52-.53-2.08-1.85-1.72-3.68.11-.57.27-1.13.41-1.69 2.06-8.31 4.13-16.63 6.18-24.94.86-3.48-.32-6.04-3.06-6.77-2.8-.74-5.09.83-5.97 4.33-3.06 12.18-6.07 24.37-9.07 36.57-.59 2.4-.44 4.69.49 6.89 1.31 3.09 2.42 6.31 3.81 9.36 2.3 5.06 2.55 10.37 1.08 16.03-1.59 6.11-3.06 12.26-4.57 18.39-1.64 6.62-3.3 13.24-4.92 19.87-.88 3.61.09 5.6 3.18 6.61 1.02.33 2.06.59 3.11.8 3.62.72 5.55-.69 6.57-4.8 3.27-13.17 6.55-26.35 9.8-39.53 1.09-4.42 3.33-7.96 6.56-10.74 2.97-2.56 5.99-5.05 9-7.57 1.91-1.6 3.22-3.63 3.85-6.23 1.42-5.86 2.89-11.7 4.34-17.55 1.55-6.27 3.14-12.54 4.65-18.82ZM1079.75 245.94c4.43-17.87-.92-34.57-11.95-37.3-11.03-2.74-23.56 9.53-27.99 27.4-3.4 13.73-1.02 26.74 5.26 33.29.32 2.98.05 6.04-.78 9.23-1.59 6.11-3.06 12.26-4.57 18.39-1.64 6.62-3.3 13.24-4.92 19.87-.88 3.61.09 5.6 3.18 6.61 1.02.33 2.06.59 3.11.8 3.62.72 5.55-.69 6.57-4.8 3.27-13.17 6.55-26.35 9.8-39.53.71-2.88 1.91-5.38 3.55-7.55 8.06-3.49 15.53-13.46 18.74-26.4ZM1676.38 612.19c-1.64-3.19-4.55-4.17-7.17-2.54-2.18 1.36-2.61 3.84-1.07 6.91 3.84 7.66 7.72 15.29 11.58 22.94.39.77.81 1.57 1.03 2.39.43 1.68-.09 2.98-1.53 3.47-1.32.46-2.56-.09-3.43-1.52-.3-.49-.54-1.03-.8-1.55-3.93-7.77-7.84-15.56-11.8-23.32-1.71-3.34-4.86-4.33-7.47-2.45-1.94 1.4-2.23 3.8-.67 6.92 3.76 7.53 7.59 15.04 11.38 22.56.39.78.82 1.56 1.05 2.38.46 1.63.13 3.02-1.32 3.6-1.49.59-2.78-.05-3.71-1.67-.29-.5-.53-1.03-.8-1.55-3.87-7.64-7.72-15.29-11.6-22.93-1.62-3.2-4.18-4.37-6.73-3.13-2.61 1.27-3.31 3.95-1.7 7.17 5.63 11.23 11.31 22.43 17 33.63 1.12 2.21 2.73 3.84 4.87 4.9 3.01 1.49 5.96 3.2 8.99 4.6 5.05 2.34 8.7 6.19 11.28 11.44 2.79 5.67 5.69 11.28 8.54 16.91 3.08 6.09 6.14 12.19 9.24 18.27 1.69 3.31 3.72 4.19 6.72 2.93.99-.41 1.95-.9 2.88-1.42 3.22-1.82 3.75-4.14 1.84-7.92-6.12-12.12-12.24-24.24-18.38-36.34-2.06-4.06-2.68-8.2-2.04-12.42.58-3.88 1.25-7.74 1.88-11.6.4-2.46.07-4.85-1.15-7.23-2.75-5.36-5.44-10.75-8.16-16.13-2.92-5.77-5.81-11.54-8.76-17.29ZM1647.97 741.68c-13.03-13-30.1-17.03-38.13-8.98-8.03 8.04-3.97 25.1 9.06 38.11 10.01 9.99 22.39 14.65 31.24 12.64 2.72 1.26 5.2 3.07 7.51 5.42 4.42 4.51 8.93 8.93 13.4 13.39 4.83 4.82 9.65 9.65 14.49 14.46 2.64 2.62 4.85 2.81 7.3.68.81-.7 1.57-1.46 2.29-2.25 2.49-2.73 2.27-5.11-.73-8.1-9.6-9.59-19.2-19.19-28.82-28.77-2.1-2.09-3.63-4.41-4.63-6.94 1.16-8.71-3.54-20.24-12.97-29.66ZM812.17 753.82c-2.75-2.3-5.81-2.08-7.59.44-1.48 2.1-.91 4.56 1.7 6.79 6.51 5.57 13.06 11.09 19.58 16.65.66.56 1.36 1.13 1.87 1.8 1.05 1.38 1.07 2.78-.06 3.79-1.04.93-2.39.91-3.75-.07-.47-.34-.89-.74-1.34-1.12-6.64-5.64-13.27-11.29-19.93-16.9-2.87-2.42-6.16-2.11-7.83.64-1.24 2.04-.58 4.37 2.07 6.64 6.39 5.48 12.83 10.91 19.24 16.37.66.56 1.36 1.12 1.89 1.78 1.06 1.33 1.29 2.73.18 3.83-1.15 1.13-2.58 1.04-4.06-.1-.46-.35-.89-.74-1.34-1.12-6.53-5.54-13.06-11.09-19.59-16.63-2.74-2.32-5.55-2.4-7.42-.27-1.91 2.18-1.52 4.93 1.22 7.27 9.55 8.16 19.13 16.27 28.72 24.39 1.89 1.6 4.01 2.48 6.39 2.62 3.35.2 6.73.63 10.07.75 5.56.2 10.42 2.33 14.84 6.16 4.77 4.14 9.62 8.19 14.44 12.27 5.2 4.42 10.39 8.85 15.61 13.24 2.84 2.4 5.06 2.41 7.33.09.75-.76 1.45-1.58 2.1-2.43 2.26-2.93 1.85-5.28-1.38-8.02-10.35-8.79-20.69-17.58-31.05-26.36-3.47-2.94-5.65-6.52-6.71-10.66-.97-3.8-1.86-7.61-2.78-11.42-.59-2.43-1.82-4.5-3.87-6.22-4.61-3.87-9.19-7.79-13.79-11.69-4.93-4.18-9.83-8.38-14.79-12.53ZM884.43 618.96c-8.31-16.43-23.26-25.59-33.4-20.46-10.14 5.13-11.63 22.6-3.32 39.03 6.38 12.62 16.68 20.92 25.72 21.78 2.19 2.05 3.98 4.55 5.43 7.5 2.79 5.67 5.69 11.28 8.54 16.91 3.08 6.09 6.14 12.19 9.24 18.27 1.69 3.31 3.72 4.19 6.72 2.93.99-.41 1.95-.9 2.88-1.42 3.22-1.82 3.75-4.14 1.84-7.92-6.12-12.12-12.24-24.24-18.38-36.34-1.34-2.64-2.06-5.32-2.23-8.04 3.83-7.91 2.98-20.33-3.04-32.23ZM654.81 790.62c2.72-2.33 3.01-5.39.81-7.56-1.83-1.81-4.34-1.65-6.97.56-6.56 5.51-13.09 11.06-19.64 16.58-.66.56-1.33 1.16-2.08 1.55-1.54.81-2.92.6-3.73-.68-.75-1.18-.51-2.51.69-3.69.41-.41.88-.76 1.32-1.14 6.65-5.63 13.32-11.23 19.95-16.88 2.86-2.44 3.09-5.73.65-7.83-1.81-1.56-4.21-1.29-6.89.95-6.46 5.41-12.87 10.86-19.31 16.29-.66.56-1.33 1.16-2.07 1.58-1.48.83-2.91.83-3.8-.45-.92-1.31-.6-2.72.76-3.99.42-.4.88-.76 1.32-1.13 6.54-5.53 13.09-11.06 19.62-16.6 2.74-2.32 3.28-5.08 1.49-7.27-1.84-2.24-4.61-2.31-7.37.01a7529.6 7529.6 0 0 0-28.77 24.32c-1.89 1.6-3.1 3.55-3.64 5.87-.75 3.28-1.73 6.53-2.4 9.81-1.11 5.45-4.01 9.89-8.51 13.62-4.87 4.02-9.66 8.14-14.48 12.22-5.21 4.41-10.43 8.8-15.63 13.22-2.83 2.41-3.21 4.59-1.3 7.22.63.86 1.32 1.69 2.05 2.47 2.51 2.71 4.9 2.69 8.13-.04 10.37-8.76 20.74-17.52 31.1-26.29 3.47-2.94 7.36-4.5 11.61-4.86 3.91-.33 7.82-.58 11.72-.86 2.49-.18 4.74-1.06 6.77-2.79 4.58-3.92 9.2-7.79 13.8-11.68 4.93-4.17 9.89-8.32 14.79-12.53ZM522.74 652.33c-8.31-16.43-23.26-25.59-33.4-20.46-10.14 5.13-11.63 22.6-3.32 39.03 6.38 12.62 16.68 20.92 25.72 21.78 2.19 2.05 3.98 4.55 5.43 7.5 2.79 5.67 5.69 11.28 8.54 16.91 3.08 6.09 6.14 12.19 9.24 18.27 1.69 3.31 3.72 4.19 6.72 2.93.99-.41 1.95-.9 2.88-1.42 3.22-1.82 3.75-4.14 1.84-7.92-6.12-12.12-12.24-24.24-18.38-36.34-1.34-2.64-2.06-5.32-2.23-8.04 3.83-7.91 2.98-20.33-3.04-32.23ZM473.06 563.07c2.14-2.87 1.75-5.92-.86-7.55-2.18-1.36-4.6-.66-6.68 2.07-5.2 6.81-10.35 13.65-15.53 20.47-.52.69-1.05 1.42-1.69 1.97-1.32 1.13-2.72 1.23-3.79.15-.99-.99-1.04-2.34-.14-3.75.31-.49.69-.93 1.04-1.4 5.26-6.94 10.54-13.88 15.77-20.84 2.26-3 1.76-6.27-1.08-7.79-2.11-1.13-4.39-.33-6.51 2.44-5.12 6.69-10.18 13.42-15.27 20.12-.53.69-1.04 1.42-1.67 1.99-1.27 1.13-2.66 1.44-3.81.39-1.19-1.08-1.18-2.52-.13-4.06.33-.48.69-.93 1.04-1.4 5.17-6.83 10.35-13.65 15.51-20.49 2.16-2.86 2.09-5.68-.14-7.42-2.28-1.78-5-1.24-7.19 1.62-7.61 9.99-15.18 20.01-22.75 30.03-1.49 1.98-2.25 4.14-2.26 6.53-.01 3.36-.26 6.75-.19 10.1.11 5.56-1.74 10.53-5.32 15.16-3.87 4.99-7.64 10.06-11.45 15.1-4.12 5.44-8.25 10.87-12.35 16.32-2.23 2.97-2.13 5.18.32 7.32.81.71 1.66 1.36 2.54 1.96 3.05 2.09 5.37 1.55 7.93-1.82 8.2-10.82 16.41-21.63 24.59-32.46 2.74-3.63 6.19-6 10.27-7.29 3.74-1.18 7.5-2.28 11.25-3.41 2.39-.72 4.39-2.07 5.99-4.21 3.61-4.82 7.27-9.61 10.91-14.41 3.9-5.15 7.82-10.28 11.69-15.46ZM645.33 481.74c9.6-15.71 9.52-33.25-.18-39.17-9.7-5.92-25.34 2.01-34.94 17.72-7.37 12.07-9.01 25.2-4.99 33.33-.59 2.94-1.77 5.78-3.52 8.57-3.35 5.35-6.6 10.77-9.89 16.16-3.56 5.82-7.13 11.64-10.67 17.47-1.93 3.18-1.6 5.37 1.04 7.26.87.62 1.79 1.18 2.73 1.7 3.24 1.78 5.5 1.01 7.71-2.6 7.08-11.58 14.17-23.16 21.23-34.75 1.54-2.53 3.44-4.56 5.66-6.13 8.74-.91 18.85-8.17 25.81-19.55ZM87.55 654.33c-2.13-2.88-5.17-3.37-7.49-1.34-1.93 1.7-1.95 4.22.07 7 5.04 6.93 10.12 13.83 15.17 20.75.51.7 1.06 1.41 1.4 2.19.7 1.59.4 2.95-.94 3.68-1.23.67-2.54.33-3.63-.94-.38-.44-.7-.93-1.04-1.4-5.15-7.03-10.28-14.07-15.45-21.08-2.23-3.02-5.5-3.48-7.77-1.2-1.68 1.7-1.58 4.11.47 6.94 4.94 6.82 9.94 13.6 14.9 20.4.51.7 1.07 1.4 1.43 2.17.72 1.54.62 2.96-.71 3.76-1.38.83-2.75.41-3.93-1.04-.37-.45-.7-.93-1.04-1.4-5.06-6.91-10.12-13.83-15.19-20.73-2.12-2.89-4.84-3.63-7.15-1.99-2.36 1.68-2.62 4.44-.5 7.35 7.39 10.16 14.82 20.28 22.25 30.4 1.46 2 3.32 3.34 5.61 4.04 3.22.98 6.4 2.18 9.62 3.08 5.36 1.48 9.59 4.69 13 9.44 3.67 5.14 7.45 10.2 11.18 15.29 4.03 5.51 8.05 11.02 12.1 16.51 2.21 2.99 4.36 3.52 7.11 1.8.91-.57 1.78-1.2 2.61-1.88 2.88-2.32 3.03-4.7.53-8.12-8.02-10.96-16.03-21.92-24.06-32.86-2.69-3.67-3.98-7.65-4.04-11.92-.06-3.92-.03-7.84-.04-11.75 0-2.5-.73-4.8-2.32-6.95-3.59-4.84-7.13-9.72-10.69-14.58-3.82-5.21-7.61-10.44-11.46-15.63ZM217.87 480.42c2.01-2.96 1.48-5.99-1.21-7.51-2.24-1.26-4.62-.45-6.58 2.37-4.88 7.04-9.72 14.11-14.59 21.16-.49.71-.98 1.47-1.6 2.04-1.27 1.18-2.66 1.35-3.78.33-1.03-.94-1.15-2.29-.31-3.74.29-.5.65-.96.98-1.44 4.94-7.18 9.9-14.34 14.81-21.53 2.12-3.1 1.48-6.34-1.43-7.73-2.16-1.03-4.4-.13-6.4 2.73-4.81 6.91-9.56 13.86-14.35 20.79-.49.71-.97 1.47-1.58 2.06-1.21 1.19-2.59 1.56-3.79.57-1.24-1.03-1.29-2.47-.31-4.05.3-.49.65-.96.98-1.44 4.86-7.06 9.72-14.11 14.57-21.17 2.03-2.96 1.83-5.76-.48-7.41-2.36-1.68-5.06-1.02-7.11 1.95-7.15 10.32-14.26 20.67-21.37 31.03-1.4 2.04-2.06 4.24-1.97 6.62.14 3.36.05 6.76.27 10.1.36 5.55-1.26 10.6-4.63 15.38-3.64 5.16-7.18 10.39-10.76 15.6-3.87 5.62-7.75 11.23-11.6 16.87-2.1 3.07-1.89 5.27.65 7.3.84.67 1.72 1.28 2.63 1.85 3.14 1.95 5.44 1.31 7.84-2.18 7.7-11.18 15.41-22.35 23.1-33.54 2.57-3.75 5.92-6.28 9.93-7.74 3.69-1.35 7.39-2.61 11.08-3.91 2.35-.83 4.29-2.27 5.8-4.48 3.39-4.98 6.83-9.93 10.24-14.89 3.66-5.32 7.35-10.63 10.98-15.97ZM5.18 7.24C-7.09-6.48-23.9-11.47-32.37-3.9c-8.47 7.57-5.4 24.84 6.87 38.56 9.43 10.55 21.52 15.9 30.47 14.4 2.64 1.41 5.02 3.36 7.19 5.84 4.16 4.75 8.41 9.43 12.62 14.14 4.55 5.09 9.08 10.19 13.65 15.26 2.49 2.76 4.68 3.08 7.25 1.1.85-.65 1.65-1.37 2.41-2.12 2.64-2.59 2.55-4.97-.26-8.13-9.04-10.12-18.08-20.25-27.14-30.36-1.98-2.21-3.37-4.61-4.23-7.19 1.66-8.63-2.38-20.41-11.26-30.35ZM549.34 157.57c2.27-2.77 2.02-5.83-.52-7.59-2.12-1.46-4.57-.87-6.77 1.77-5.5 6.57-10.96 13.17-16.44 19.75-.55.67-1.11 1.37-1.78 1.89-1.37 1.06-2.77 1.1-3.79-.02-.94-1.03-.94-2.38.03-3.75.33-.47.73-.9 1.1-1.35 5.57-6.7 11.15-13.39 16.69-20.11 2.39-2.9 2.04-6.18-.72-7.83-2.05-1.22-4.37-.53-6.62 2.14-5.41 6.45-10.78 12.94-16.17 19.41-.56.67-1.1 1.37-1.76 1.91-1.32 1.07-2.72 1.32-3.82.22-1.14-1.13-1.07-2.57.05-4.06.35-.46.73-.9 1.1-1.35 5.47-6.59 10.96-13.17 16.42-19.77 2.29-2.76 2.35-5.58.19-7.42-2.2-1.89-4.94-1.47-7.26 1.3-8.06 9.63-16.07 19.3-24.09 28.97-1.58 1.91-2.44 4.04-2.56 6.42-.17 3.36-.56 6.74-.65 10.08-.14 5.56-2.22 10.44-6 14.9-4.09 4.81-8.09 9.7-12.12 14.56-4.36 5.25-8.74 10.48-13.08 15.75-2.37 2.87-2.36 5.08-.02 7.33.77.74 1.6 1.43 2.45 2.08 2.95 2.23 5.3 1.79 8-1.46 8.68-10.44 17.37-20.87 26.03-31.32 2.9-3.5 6.46-5.72 10.59-6.82 3.79-1.01 7.59-1.93 11.39-2.89 2.42-.61 4.48-1.87 6.18-3.93 3.83-4.65 7.7-9.27 11.55-13.91 4.13-4.97 8.28-9.92 12.38-14.92ZM289.19 135.98c-12.27-13.73-29.08-18.71-37.55-11.14-8.47 7.57-5.4 24.84 6.87 38.56 9.43 10.55 21.52 15.9 30.47 14.4 2.64 1.41 5.02 3.36 7.19 5.84 4.16 4.75 8.41 9.43 12.62 14.14 4.55 5.09 9.08 10.19 13.65 15.26 2.49 2.76 4.68 3.08 7.25 1.1.85-.65 1.65-1.37 2.41-2.12 2.64-2.59 2.55-4.97-.26-8.13-9.04-10.12-18.08-20.25-27.14-30.36-1.98-2.21-3.37-4.61-4.23-7.19 1.66-8.63-2.38-20.41-11.26-30.35ZM628.05 99.47c2.67 2.39 5.74 2.27 7.6-.19 1.55-2.05 1.06-4.52-1.47-6.84-6.32-5.78-12.68-11.52-19.02-17.29-.64-.58-1.32-1.17-1.81-1.86-1-1.42-.98-2.81.18-3.79 1.07-.9 2.42-.83 3.75.19.46.35.87.77 1.3 1.16 6.45 5.85 12.89 11.73 19.36 17.56 2.79 2.51 6.08 2.31 7.85-.38 1.31-2 .72-4.34-1.85-6.7-6.21-5.69-12.46-11.33-18.69-17-.64-.58-1.33-1.16-1.83-1.84-1.02-1.36-1.2-2.77-.05-3.83 1.18-1.09 2.62-.95 4.06.23.45.37.87.77 1.3 1.16 6.34 5.76 12.68 11.52 19.03 17.27 2.66 2.41 5.47 2.59 7.41.52 1.98-2.11 1.68-4.87-.98-7.31-9.27-8.47-18.58-16.9-27.89-25.33-1.83-1.66-3.92-2.61-6.3-2.83-3.35-.31-6.7-.86-10.04-1.09-5.55-.38-10.34-2.67-14.62-6.65-4.63-4.3-9.34-8.5-14.02-12.74-5.05-4.59-10.09-9.19-15.16-13.75-2.76-2.49-4.97-2.58-7.32-.34-.77.74-1.5 1.54-2.18 2.36-2.35 2.85-2.02 5.21 1.11 8.06 10.05 9.13 20.09 18.26 30.15 27.37 3.37 3.05 5.43 6.7 6.35 10.87.84 3.83 1.6 7.67 2.4 11.51.51 2.44 1.67 4.56 3.66 6.34 4.48 4.03 8.93 8.09 13.39 12.14 4.78 4.34 9.55 8.71 14.36 13.02ZM676.28 222.7c13.63 12.37 30.87 15.58 38.51 7.17 7.64-8.41 2.78-25.26-10.85-37.64-10.47-9.51-23.06-13.58-31.8-11.15-2.77-1.13-5.34-2.82-7.75-5.06-4.63-4.3-9.34-8.5-14.02-12.74-5.05-4.59-10.09-9.19-15.16-13.75-2.76-2.49-4.97-2.58-7.32-.34-.77.74-1.5 1.54-2.18 2.36-2.35 2.85-2.02 5.21 1.11 8.06 10.05 9.13 20.09 18.26 30.15 27.37 2.2 1.99 3.83 4.23 4.96 6.71-.75 8.75 4.49 20.05 14.36 29.01ZM982.17 82.22c2.67 2.39 5.74 2.27 7.6-.19 1.55-2.05 1.06-4.52-1.47-6.84-6.32-5.78-12.68-11.52-19.02-17.29-.64-.58-1.32-1.17-1.81-1.86-1-1.42-.98-2.81.18-3.79 1.07-.9 2.42-.83 3.75.19.46.35.87.77 1.3 1.16 6.45 5.85 12.89 11.73 19.36 17.56 2.79 2.51 6.08 2.31 7.85-.38 1.31-2 .72-4.34-1.85-6.7-6.21-5.69-12.46-11.33-18.69-17-.64-.58-1.33-1.16-1.83-1.84-1.02-1.36-1.2-2.77-.05-3.83 1.18-1.09 2.62-.95 4.06.23.45.37.87.77 1.3 1.16 6.34 5.76 12.68 11.52 19.03 17.27 2.66 2.41 5.47 2.59 7.41.52 1.98-2.11 1.68-4.87-.98-7.31-9.27-8.47-18.58-16.9-27.89-25.33-1.83-1.66-3.92-2.61-6.3-2.83-3.35-.31-6.7-.86-10.04-1.09-5.55-.38-10.34-2.67-14.62-6.65-4.63-4.3-9.34-8.5-14.02-12.74-5.05-4.59-10.09-9.19-15.16-13.75-2.76-2.49-4.97-2.58-7.32-.34-.77.74-1.5 1.54-2.18 2.36-2.35 2.85-2.02 5.21 1.11 8.06 10.05 9.13 20.09 18.26 30.15 27.37 3.37 3.05 5.43 6.7 6.35 10.87.84 3.83 1.6 7.67 2.4 11.51.51 2.44 1.67 4.56 3.66 6.34 4.48 4.03 8.93 8.09 13.39 12.14 4.78 4.34 9.55 8.71 14.36 13.02ZM1339.8 227.87c13.63 12.37 30.87 15.58 38.51 7.17 7.64-8.41 2.78-25.26-10.85-37.64-10.47-9.51-23.06-13.58-31.8-11.15-2.77-1.13-5.34-2.82-7.75-5.06-4.63-4.3-9.34-8.5-14.02-12.74-5.05-4.59-10.09-9.19-15.16-13.75-2.76-2.49-4.97-2.58-7.32-.34-.77.74-1.5 1.54-2.18 2.36-2.35 2.85-2.02 5.21 1.11 8.06 10.05 9.13 20.09 18.26 30.15 27.37 2.2 1.99 3.83 4.23 4.96 6.71-.75 8.75 4.49 20.05 14.36 29.01ZM1704.39 308.83c2.31-2.73 2.11-5.8-.41-7.59-2.09-1.49-4.55-.93-6.79 1.67-5.6 6.49-11.15 13-16.74 19.5-.56.66-1.13 1.35-1.81 1.86-1.39 1.04-2.79 1.06-3.79-.07-.93-1.05-.9-2.4.09-3.75.34-.47.74-.89 1.12-1.33 5.67-6.62 11.35-13.22 17-19.85 2.43-2.86 2.14-6.15-.61-7.84-2.04-1.25-4.36-.6-6.65 2.04-5.51 6.37-10.97 12.78-16.46 19.17-.57.66-1.12 1.36-1.79 1.89-1.33 1.05-2.74 1.28-3.83.16-1.12-1.15-1.03-2.59.11-4.06.36-.46.75-.89 1.12-1.33 5.57-6.51 11.15-13 16.72-19.52 2.33-2.73 2.43-5.54.3-7.42-2.17-1.92-4.92-1.54-7.27 1.19-8.2 9.51-16.36 19.06-24.52 28.61-1.61 1.88-2.5 4-2.65 6.38-.22 3.35-.67 6.73-.8 10.07-.22 5.56-2.37 10.41-6.23 14.81-4.16 4.75-8.23 9.58-12.34 14.38-4.44 5.18-8.89 10.35-13.31 15.55-2.41 2.83-2.43 5.05-.13 7.33.76.75 1.58 1.45 2.42 2.11 2.92 2.27 5.27 1.87 8.02-1.34 8.84-10.31 17.68-20.61 26.5-30.92 2.96-3.46 6.54-5.62 10.69-6.66 3.81-.95 7.62-1.82 11.43-2.72 2.43-.58 4.51-1.8 6.24-3.84 3.9-4.6 7.83-9.16 11.76-13.73 4.2-4.91 8.43-9.79 12.6-14.73Z" class="cls-3"/><circle cx="1030.65" cy="549.84" r="60.52" class="cls-3"/><circle cx="1030.65" cy="549.84" r="46.8" class="cls-1"/><circle cx="1314.85" cy="400.15" r="60.52" class="cls-3"/><circle cx="1314.85" cy="400.15" r="46.8" class="cls-1"/><circle cx="1563" cy="15.4" r="60.52" class="cls-3"/><circle cx="1563" cy="15.4" r="46.8" class="cls-1"/><circle cx="1470.57" cy="817.67" r="60.52" class="cls-3"/><circle cx="1470.57" cy="817.67" r="46.8" class="cls-1"/><circle cx="793.37" cy="90.36" r="60.52" class="cls-3"/><circle cx="793.37" cy="90.36" r="46.8" class="cls-1"/><circle cx="609.17" cy="303.2" r="60.52" class="cls-3"/><circle cx="609.17" cy="303.2" r="46.8" class="cls-1"/><circle cx="676.46" cy="642.47" r="60.52" class="cls-3"/><circle cx="676.46" cy="642.47" r="46.8" class="cls-1"/><circle cx="398.54" cy="834.91" r="60.52" class="cls-3"/><circle cx="398.54" cy="834.91" r="46.8" class="cls-1"/><circle cx="42.04" cy="366.3" r="60.52" class="cls-3"/><circle cx="42.04" cy="366.3" r="46.8" class="cls-1"/><path d="M1532.96 316.01c3.75-4.06 3.5-10.39-.55-14.14-4.06-3.75-10.39-3.5-14.14.55-4.06-3.75-10.39-3.5-14.14.56-3.75 4.06-3.5 10.39.56 14.14a9.942 9.942 0 0 0 5.82 2.6l-3.15 3.41c-10.07-9-23.83-6.88-30.75 4.83l-3.17 5.36 11.91 11.01c.85.79.91 2.12.12 2.97-.58.63-1.46.82-2.22.57-.27-.09-.53-.24-.76-.45l-11.24-10.39-4.95 8.38 9.73 9c.85.79.91 2.12.12 2.97-.58.63-1.46.82-2.22.57-.27-.09-.53-.24-.76-.45l-9.06-8.38-4.95 8.38 7.56 6.99c.85.79.91 2.12.12 2.97-.58.63-1.46.82-2.22.57-.27-.09-.53-.24-.76-.45l-6.89-6.37-23.77 40.22c-6.99 11.84-3.51 15.06 7.74 7.16l69.85-49.04c11.14-7.82 12.17-21.7 2.41-31.04l3.15-3.41a9.974 9.974 0 0 0 3.05 5.6c4.06 3.75 10.39 3.51 14.14-.55s3.5-10.39-.55-14.14ZM786.48 306.67s8.43.49 14.02-5.16 5.01-14.07 5.01-14.07c-.05-.72-.68-1.34-1.4-1.38 0 0-8.43-.49-14.02 5.16s-5.01 14.07-5.01 14.07c.05.72.68 1.34 1.4 1.38Z" class="cls-3"/><path d="M823.28 309.33c-6.51-3.75-13.78-4.79-20.46-2.94-.92.25-1.83.56-2.71.92-4.85 1.96-9.01 5.4-12.17 10.02l-7.26-17.93c-.57-1.42-2.19-2.1-3.61-1.53s-2.1 2.19-1.53 3.61l7.26 17.93c-5.49-1.12-10.86-.7-15.72 1.27-.88.36-1.75.77-2.58 1.22-6.09 3.32-10.59 9.12-12.65 16.35-2.71 9.45-1.15 20.38 4.28 29.99 9.66 17.11 34.28 32.83 49.25 26.77.56-.23 1.11-.48 1.63-.77 2.63-1.43 4.8-3.62 6.46-6.5 3.19.92 6.27.98 9.16.18.57-.16 1.14-.35 1.7-.58 14.96-6.06 21.72-34.48 16.76-53.49-2.79-10.68-9.27-19.62-17.79-24.52ZM330.24 667.55l-30.98 4.67c-6.08-11.26-17.44-27.16-36.03-35.59-27.81-12.61-60.52 5.73-62.72 12.06-2.2 6.34 12.1 41.01 41.74 48.35 19.81 4.91 38.58-.53 50.34-5.59l21.42 22.87.37-26.06 15.88-20.7Zm-106.12-10.63a5.022 5.022 0 0 1 3.29-9.49c2.62.91 4.01 3.77 3.1 6.4s-3.77 4.01-6.4 3.1ZM1144.33 15.72c-26.19 0-47.5 21.31-47.5 47.5s21.31 47.5 47.5 47.5 47.5-21.31 47.5-47.5-21.31-47.5-47.5-47.5Zm0 90.42c-23.71 0-42.92-19.22-42.92-42.92s19.22-42.92 42.92-42.92 42.92 19.22 42.92 42.92-19.22 42.92-42.92 42.92Zm-1.31-77.94v29.57c0 1.44-.83 1.79-1.85.77l-20.85-20.85c-1.02-1.02-1-2.66.11-3.58a37.494 37.494 0 0 1 19.98-8.35c1.44-.15 2.61.99 2.61 2.44Zm-36.17 31.42c.71-7.51 3.62-14.38 8.08-19.95.9-1.13 2.53-1.15 3.55-.13l20.84 20.84c1.02 1.02.68 1.85-.77 1.85h-29.25c-1.44 0-2.59-1.17-2.46-2.61Zm32.48 7.07-20.52 20.52c-1.02 1.02-2.66 1-3.58-.11a37.434 37.434 0 0 1-8.32-19.65c-.16-1.43.97-2.61 2.41-2.61h29.24c1.44 0 1.79.83.77 1.85Zm6.31-8.93V28.19c0-1.44 1.17-2.58 2.61-2.44 7.54.78 14.42 3.78 19.98 8.35 1.12.92 1.13 2.56.11 3.58l-20.85 20.85c-1.02 1.02-1.85.68-1.85-.77Zm-2.61 11.54v28.92c0 1.44-1.17 2.58-2.61 2.44a37.46 37.46 0 0 1-19.62-8.05c-1.13-.9-1.15-2.53-.13-3.55l20.51-20.51c1.02-1.02 1.85-.68 1.85.77Zm38.73-1.86a37.434 37.434 0 0 1-8.32 19.65c-.92 1.12-2.56 1.13-3.58.11l-20.52-20.52c-1.02-1.02-.68-1.85.77-1.85h29.23c1.44 0 2.57 1.17 2.41 2.61Zm-32.41-7.07 20.84-20.84c1.02-1.02 2.65-.99 3.55.13a37.437 37.437 0 0 1 8.08 19.95c.14 1.44-1.01 2.61-2.46 2.61h-29.25c-1.44 0-1.79-.83-.77-1.85Zm18.66 28.67c1.02 1.02.99 2.65-.13 3.55a37.46 37.46 0 0 1-19.62 8.05c-1.44.15-2.61-.99-2.61-2.44V69.28c0-1.44.83-1.79 1.85-.77l20.51 20.51ZM1527.04 641.62l-11.18-12.14 2.73-8.49c.39-1.21-.12-2.53-1.24-3.16l-44.85-25.43c-.7-.4-1.55-.46-2.31-.17-.75.29-1.34.91-1.58 1.68l-2.89 8.97-25.27 14.18c-.59.33-1.04.88-1.24 1.52l-18.38 57.16a2.69 2.69 0 0 0 1.07 3.06l45.93 30.62c.62.41 1.37.55 2.09.38l36.76-8.41c.61.13 1.25.06 1.8-.22.63-.32 1.12-.9 1.33-1.57l17.8-55.35c.3-.92.08-1.93-.58-2.65Zm-6.42.98-27.16 3.12 18.07-12.99 9.09 9.87Zm-47.89-43.88 40.06 22.72-1.95 6.05-40.06-22.72 1.95-6.05Zm-3.71 105.05-42.43-28.3 5.75-17.87 43.15 26.08-6.46 20.09Zm-21.3-52.4-3.83 3.6c-.56.52-.94.55-1.42.28-.5-.29-.74-.67-.81-1.54l-.48-6.03-.09-.05-2.23 6.36c-.22.63-.74.77-1.28.46-.55-.31-.83-.9-.61-1.53l3.35-9.57c.26-.75.87-.96 1.56-.56.61.34.77.83.85 1.72l.66 8.08.07.04 5.09-4.82c.56-.54.95-.71 1.56-.36.69.39.96 1.1.7 1.85l-3.35 9.57c-.22.63-.74.76-1.28.46-.56-.31-.83-.9-.61-1.53l2.22-6.36-.09-.05Zm2.38 8.88 3.37-9.65c.23-.65.8-.81 1.39-.48.59.33.88.99.65 1.63l-3.37 9.65c-.23.65-.8.81-1.39.48-.59-.33-.88-.99-.65-1.64Zm7.07 3 4.64 2.63c.64.36.91.97.73 1.49-.18.53-.71.68-1.36.32l-5.76-3.26c-.62-.35-.88-.97-.67-1.58l3.36-9.62c.23-.65.8-.81 1.39-.48.59.33.88.99.65 1.63l-3.05 8.71c-.02.07 0 .12.07.16Zm17.09-1.65c.32-.14.67-.13.98.04.5.28.79.88.61 1.39-.09.26-.25.43-.48.53l-3.86 1.62 1.37 7.33c.05.27.04.55-.03.74-.19.53-.73.73-1.32.4-.41-.24-.67-.64-.76-1.15l-1.16-6.54-2.63 1.19-.78 2.22c-.23.65-.8.81-1.39.48-.59-.33-.88-.99-.65-1.63l3.37-9.65c.23-.65.8-.81 1.39-.48.59.33.88.99.65 1.64l-1.65 4.71 6.32-2.82Zm9.07-2.33-43.15-26.08 3.55-11.03 43.15 26.08-3.55 11.03Zm5.09-13.24-42.64-25.77 23.51-13.19s.03-.02.04-.03l40.81 23.14c0 .08.01.15.02.22l-21.75 15.63Zm16.85 50.18-33.45 7.66 6.29-19.56 32.18-3.69-5.01 15.59Zm12.92-40.18-32.18 3.7 3.49-10.85 32.18-3.69-3.49 10.85ZM358.16 513.3c-7.9-10.63-23.07-11.38-40.08-2.94-17 8.44-21.13 24.11-28.94 35.08-6.36 8.94-13.37 14.24-17.59 15.99 6.47-7.21 16.53-19.97 16.53-19.97s9.45-15.71 5.94-12.57c-2.78 2.49-20.45 20.73-27.66 28.19 1.07-4.41 5.26-12.19 13.19-19.86 9.68-9.36 34.24-22.83 40.05-40.91 5.8-18.08-2.55-41.4-14.58-42.52-5.43-.51-12.44 3.14-17.5 11.86-5.44 9.37-12.19 17.07-14.89 24.87-4.29 12.41 2.65 29.96-3.96 44.26-4.67 10.09-12.76 17.98-7.6 29.6.19.42.47.65.81.73.09 1.41.91 2.15 2.31 1.98.13.33.39.58.85.7 12.26 3.37 18.85-5.82 28.13-11.95 13.15-8.68 19.42-1.96 32.52-4.33 9.61-1.73 13.79-8.69 22.24-15.47 7.86-6.31 13.51-18.29 10.21-22.74Zm-61.47-29.03c5.09-12.53 7.58-17.31 9.07-15.26 1.8 2.48-18.77 49.2-23.04 53.22-4.27 4.02 8.88-25.43 13.97-37.96Zm28.26 47.37c-7.57 5.02-21.86 15.03-19.45 9.41 1.17-2.75 16.95-13.1 38.01-23.44 22.93-8.73-10.99 9-18.56 14.03Z" class="cls-3"/><path d="M324.36 496.72c3.7-4.14 19.43-21.59 20.92-20.82 1.42.73-14.23 19.81-21.4 27.1 7.47-4.1 23.52-1.25 23.52-1.25s4.06-1.89 3.54-6.95c-.52-5.06 13.42-22.29-3.75-28.21-14.55-5.02-24.64 2.46-24.64 2.46 2.71 7.21 2.73 19.08 1.8 27.67ZM1153.84 377.38l-3.56 3.29 11 4.28c1.49.58 2.4 2.1 2.21 3.69a3.5 3.5 0 0 1-3.03 3.06l-20.27 2.69-2.04 10.24a3.508 3.508 0 0 1-5.11 2.4l-9.18-4.98-15.04 13.85c-.27.25-.57.45-.89.6-1.08.5-2.36.44-3.4-.23a3.5 3.5 0 0 1-1.42-4.06l3.74-11.19-4.81.63c-3.48 9.7-3.28 20.72 1.43 30.78 9.46 20.18 33.49 28.88 53.68 19.42s28.88-33.49 19.42-53.68c-4.72-10.07-13.06-17.27-22.74-20.8Zm-34.41 56.67c-.8.91-2.19 1-3.1.2-1.67-1.47-3.07-3.3-4.07-5.43-.92-1.95-1.42-4.01-1.54-6.05a2.193 2.193 0 1 1 4.38-.26c.09 1.5.46 3 1.14 4.45.74 1.58 1.77 2.92 2.99 4 .91.8 1 2.18.2 3.09Z" class="cls-3"/><path d="m1094.87 399.06 15.52-2.05a.984.984 0 0 1 1.07 1.3l-3.79 11.34c-.14.43.02.9.4 1.15.38.25.88.2 1.21-.1l13.52-12.45c.31-.29.78-.35 1.15-.14l9.57 5.2c.28.15.61.16.9.03s.49-.4.55-.71l2.13-10.68c.08-.42.42-.74.85-.79l18.22-2.42c.45-.06.8-.42.86-.87.06-.45-.2-.88-.63-1.05l-11.14-4.34a.996.996 0 0 1-.62-.74c-.06-.34.05-.68.3-.92l11.5-10.61a.99.99 0 0 0 .2-1.21c-.22-.4-.69-.6-1.13-.48l-15.51 4.19a.996.996 0 0 1-1.23-1.16l1.29-6.34a.994.994 0 0 0-.48-1.06.996.996 0 0 0-1.15.11l-10.18 8.91c-.3.26-.72.32-1.08.15l-7.65-3.58c-.27-.13-.58-.13-.84 0s-.47.36-.54.65l-2.14 8.17c-.1.38-.42.67-.81.73l-13.36 2.12c-.42.07-.75.4-.83.82-.07.42.13.84.51 1.04l5.7 3.07c.3.16.5.47.52.82a.98.98 0 0 1-.42.87l-13.14 9.24c-.37.26-.52.75-.35 1.18.17.43.6.69 1.06.62ZM841.82 493.01c-.69-6.36-3.8-12.23-9.51-16.11-18.8-12.76-33.57-2.01-45.66-4.7-12.09-2.69-23.69-9.95-30.89-12.09-15.47-4.58-30.44 7.93-28.68 23.8v8.36c-.48 4.22.22 8.82 2.49 13.5 10.97 22.73 54.19 36.6 81.25 34.25 19.25-1.67 30.15-15.6 31.09-28.95 0 0-.08-17.61-.08-18.06Zm-6.61 8.24c-2.21 8.49-9.92 18.02-24.92 19.33-1.8.16-3.72.24-5.71.24-12.89 0-28.39-3.32-41.47-8.88-14.11-5.99-24.09-13.88-28.11-22.21-2.85-5.9-2.7-11.88.41-16.84 2.97-4.74 8.27-7.68 13.82-7.68 1.6 0 3.21.24 4.8.71 2.39.71 5.8 2.29 9.41 3.97 6.19 2.87 13.89 6.45 21.88 8.23 1.8.4 3.69.59 5.77.59 3.41 0 6.87-.54 10.22-1.06 3.45-.54 7.02-1.09 10.63-1.09 6.19 0 11.58 1.7 16.96 5.35 7.1 4.82 7.91 13.15 6.3 19.34Z" class="cls-3"/><path d="M779.81 483.08c-7.14-2.06-13.72-5.11-19.19-7.64-3.23-1.5-6.57-3.05-8.49-3.62-.97-.29-1.94-.43-2.89-.43-3.26 0-6.38 1.74-8.14 4.53-2.36 3.76-1.33 7.7-.04 10.35 3.26 6.76 12.26 13.67 24.68 18.95 5.46 1.91 14.19 1.91 14.19-4.14 0-6-4.03-11.08-.12-18ZM825.14 486.92c-4.27-2.9-8.34-4.19-13.19-4.19-3.09 0-6.25.49-9.6 1.01-3.43.53-7.32 1.13-11.25 1.13-2.03 0-3.94-.16-5.77-.47-1.38 3.39-1.3 10.22.64 16.68 2.01 6.71 2.01 9.07 7.72 11.42 3.69 1.01 7.49 1.06 10.89 1.06 1.79 0 3.51-.07 5.12-.21 14.5-1.26 18.21-11.29 19-14.33.5-1.93 1.73-8.5-3.57-12.09Zm-19.36 14.83c-7.05.67-8.39-7.72-1.68-9.07 6.07-1.21 11.79 8.1 1.68 9.07ZM1077.94 686.91l-21.01 23.25c-11.84-4.86-30.71-9.96-50.43-4.7-29.51 7.87-43.19 42.79-40.87 49.08 2.31 6.3 35.35 24.05 62.93 10.95 18.43-8.76 29.51-24.86 35.39-36.23l31.07 4.12-16.24-20.39-.84-26.08Zm-88.81 59.04c-2.6.96-5.49-.38-6.45-2.98s.38-5.49 2.98-6.45 5.49.38 6.45 2.98-.38 5.49-2.98 6.45ZM1530.37 120.34c-12.28 4.97-16.83 19.46-12.94 38.04 3.89 18.58 18.01 26.52 26.66 36.84 7.04 8.41 10.41 16.53 11.05 21.05-5.35-8.08-15.16-21.03-15.16-21.03s-12.82-13.1-10.67-8.92c1.71 3.31 14.91 25.01 20.31 33.86-4-2.14-10.47-8.17-15.9-17.77-6.62-11.72-13.47-38.89-29.5-49.06-16.03-10.17-40.71-7.96-44.82 3.39-1.86 5.13-.1 12.83 7.07 19.92 7.7 7.62 13.44 16.1 20.31 20.68 10.92 7.28 29.66 4.98 41.83 14.99 8.59 7.06 14.19 16.88 26.73 14.81.46-.08.75-.29.91-.6 1.38.27 2.31-.34 2.5-1.74.35-.04.66-.24.9-.64 6.35-11.02-.88-19.71-4.47-30.23-5.09-14.91 3-19.29 4.01-32.56.75-9.73-4.94-15.53-9.37-25.42-4.13-9.2-14.3-17.69-19.44-15.61Zm-43.58 52.18c-10.85-8.09-14.84-11.7-12.49-12.62 2.85-1.12 42.88 30.57 45.7 35.71 2.81 5.14-22.37-15-33.21-23.09Zm52.96-15.42c2.95 8.59 9.04 24.94 4.2 21.2-2.36-1.83-8.41-19.7-13.1-42.69-2.67-24.39 5.94 12.9 8.9 21.49Z" class="cls-3"/><path d="M1505.81 148.86c-3.07-4.62-16-24.25-14.88-25.49 1.07-1.19 15.59 18.77 20.84 27.54-2.09-8.26 4.71-23.08 4.71-23.08s-.8-4.41-5.83-5.18c-5.03-.77-18.19-18.6-28.24-3.48-8.52 12.82-3.83 24.46-3.83 24.46 7.66-.8 19.15 2.16 27.24 5.23ZM403.94 299.16l-4.85-.18 4.79 10.78c.65 1.46.23 3.18-1.03 4.18a3.499 3.499 0 0 1-4.3.04l-16.28-12.37-8.66 5.83c-.93.62-2.09.77-3.14.39s-1.86-1.23-2.18-2.3l-3-10-20.43-.76a3.5 3.5 0 0 1-3.3-2.76c-.34-1.57.42-3.16 1.85-3.88l10.54-5.31-3.86-2.94c-9.3 4.43-16.92 12.39-20.67 22.86-7.5 20.99 3.43 44.09 24.42 51.59s44.09-3.43 51.59-24.42c3.74-10.47 2.9-21.46-1.49-30.78Zm-64.34 16c-1.21.08-2.26-.83-2.34-2.04-.15-2.22.14-4.5.94-6.72.73-2.03 1.82-3.85 3.16-5.38.8-.91 2.19-1 3.09-.2.91.8 1 2.19.2 3.09-.99 1.13-1.79 2.46-2.33 3.96-.59 1.64-.8 3.31-.69 4.95a2.2 2.2 0 0 1-2.04 2.34Z" class="cls-3"/><path d="m346.82 273.02 12.46 9.48c.27.21.42.54.39.88-.03.34-.24.64-.54.8l-10.68 5.38c-.41.2-.62.66-.52 1.1.1.44.48.77.94.78l18.36.68c.43.02.79.3.92.71l3.13 10.43c.09.3.32.55.62.65s.63.06.89-.11l9.03-6.08c.35-.24.82-.22 1.16.03l14.64 11.11c.36.27.86.27 1.22-.01s.48-.77.29-1.18l-4.85-10.93a.996.996 0 0 1 .08-.96c.19-.28.52-.45.86-.44l15.64.57c.46.02.87-.28.99-.72.13-.44-.07-.91-.46-1.14l-13.96-7.95a.981.981 0 0 1-.5-.83.99.99 0 0 1 .44-.86l5.39-3.59c.36-.24.52-.67.41-1.09a.982.982 0 0 0-.9-.73l-13.5-.85a.972.972 0 0 1-.87-.65l-2.91-7.93c-.1-.28-.32-.5-.6-.59s-.59-.07-.84.08l-7.27 4.29c-.34.2-.77.18-1.09-.05l-10.98-7.9a.99.99 0 0 0-1.16 0c-.35.25-.5.69-.37 1.1l1.89 6.19c.1.33.02.69-.2.95-.23.26-.58.38-.91.32l-15.84-2.7c-.45-.08-.9.17-1.08.59-.18.42-.05.91.31 1.19ZM62.11 539.17l-11.18-12.14 2.73-8.49c.39-1.21-.12-2.53-1.24-3.16L7.57 489.95c-.7-.4-1.55-.46-2.31-.17-.75.29-1.34.91-1.58 1.68l-2.89 8.97-25.27 14.18c-.59.33-1.04.88-1.24 1.52l-18.38 57.16a2.69 2.69 0 0 0 1.07 3.06L2.9 606.97c.62.41 1.37.55 2.09.38l36.76-8.41c.61.13 1.25.06 1.8-.22.63-.32 1.12-.9 1.33-1.57l17.8-55.35c.3-.92.08-1.93-.58-2.65Zm-6.42.98-27.16 3.12 18.07-12.99 9.09 9.87ZM7.8 496.27l40.06 22.72-1.95 6.05-40.06-22.72 1.95-6.05ZM4.09 601.32l-42.43-28.3 5.75-17.87 43.15 26.08-6.46 20.09Zm-21.3-52.4-3.83 3.6c-.56.52-.94.55-1.42.28-.5-.29-.74-.67-.81-1.54l-.48-6.03-.09-.05-2.23 6.36c-.22.63-.74.77-1.28.46-.55-.31-.83-.9-.61-1.53l3.35-9.57c.26-.75.87-.96 1.56-.56.61.34.77.83.85 1.72l.66 8.08.07.04 5.09-4.82c.56-.54.95-.71 1.56-.36.69.39.96 1.1.7 1.85l-3.35 9.57c-.22.63-.74.76-1.28.46-.56-.31-.83-.9-.61-1.53l2.22-6.36-.09-.05Zm2.38 8.88 3.37-9.65c.23-.65.8-.81 1.39-.48.59.33.88.99.65 1.63l-3.37 9.65c-.23.65-.8.81-1.39.48-.59-.33-.88-.99-.65-1.64Zm7.07 3 4.64 2.63c.64.36.91.97.73 1.49-.18.53-.71.68-1.36.32l-5.76-3.26c-.62-.35-.88-.97-.67-1.58l3.36-9.62c.23-.65.8-.81 1.39-.48.59.33.88.99.65 1.63l-3.05 8.71c-.02.07 0 .12.07.16Zm17.09-1.65c.32-.14.67-.13.98.04.5.28.79.88.61 1.39-.09.26-.25.43-.48.53l-3.86 1.62 1.37 7.33c.05.27.04.55-.03.74-.19.53-.73.73-1.32.4-.41-.24-.67-.64-.76-1.15l-1.16-6.54-2.63 1.19-.78 2.22c-.23.65-.8.81-1.39.48-.59-.33-.88-.99-.65-1.63l3.37-9.65c.23-.65.8-.81 1.39-.48.59.33.88.99.65 1.64l-1.65 4.71 6.32-2.82Zm9.07-2.33-43.15-26.08 3.55-11.03 43.15 26.08-3.55 11.03Zm5.09-13.24-42.64-25.77 23.51-13.19s.03-.02.04-.03l40.81 23.14c0 .08.01.15.02.22l-21.75 15.63Zm16.85 50.18-33.45 7.66 6.29-19.56 32.18-3.69-5.01 15.59Zm12.92-40.18-32.18 3.7 3.49-10.85 32.18-3.69-3.49 10.85ZM208.85 281.91s8.43.49 14.02-5.16 5.01-14.07 5.01-14.07c-.05-.72-.68-1.34-1.4-1.38 0 0-8.43-.49-14.02 5.16s-5.01 14.07-5.01 14.07c.05.72.68 1.34 1.4 1.38Z" class="cls-3"/><path d="M245.64 284.57c-6.51-3.75-13.78-4.79-20.46-2.94-.92.25-1.83.56-2.71.92-4.85 1.96-9.01 5.4-12.17 10.02l-7.26-17.93c-.57-1.42-2.19-2.1-3.61-1.53s-2.1 2.19-1.53 3.61l7.26 17.93c-5.49-1.12-10.86-.7-15.72 1.27-.88.36-1.75.77-2.58 1.22-6.09 3.32-10.59 9.12-12.65 16.35-2.71 9.45-1.15 20.38 4.28 29.99 9.66 17.11 34.28 32.83 49.25 26.77.56-.23 1.11-.48 1.63-.77 2.63-1.43 4.8-3.62 6.46-6.5 3.19.92 6.27.98 9.16.18.57-.16 1.14-.35 1.7-.58 14.96-6.06 21.72-34.48 16.76-53.49-2.79-10.68-9.27-19.62-17.79-24.52ZM1815.86 783.14c-26.19 0-47.5 21.31-47.5 47.5s21.31 47.5 47.5 47.5 47.5-21.31 47.5-47.5-21.31-47.5-47.5-47.5Zm0 90.42c-23.71 0-42.92-19.22-42.92-42.92s19.22-42.92 42.92-42.92 42.92 19.22 42.92 42.92-19.22 42.92-42.92 42.92Zm-1.31-77.94v29.57c0 1.44-.83 1.79-1.85.77l-20.85-20.85c-1.02-1.02-1-2.66.11-3.58a37.494 37.494 0 0 1 19.98-8.35c1.44-.15 2.61.99 2.61 2.44Zm-36.17 31.42c.71-7.51 3.62-14.38 8.08-19.95.9-1.13 2.53-1.15 3.55-.13l20.84 20.84c1.02 1.02.68 1.85-.77 1.85h-29.25c-1.44 0-2.59-1.17-2.46-2.61Zm32.48 7.07-20.52 20.52c-1.02 1.02-2.66 1-3.58-.11a37.434 37.434 0 0 1-8.32-19.65c-.16-1.43.97-2.61 2.41-2.61h29.24c1.44 0 1.79.83.77 1.85Zm6.31-8.93v-29.57c0-1.44 1.17-2.58 2.61-2.44 7.54.78 14.42 3.78 19.98 8.35 1.12.92 1.13 2.56.11 3.58l-20.85 20.85c-1.02 1.02-1.85.68-1.85-.77Zm-2.61 11.54v28.92c0 1.44-1.17 2.58-2.61 2.44a37.46 37.46 0 0 1-19.62-8.05c-1.13-.9-1.15-2.53-.13-3.55l20.51-20.51c1.02-1.02 1.85-.68 1.85.77Zm38.73-1.86a37.434 37.434 0 0 1-8.32 19.65c-.92 1.12-2.56 1.13-3.58.11l-20.52-20.52c-1.02-1.02-.68-1.85.77-1.85h29.23c1.44 0 2.57 1.17 2.41 2.61Zm-32.41-7.07 20.84-20.84c1.02-1.02 2.65-.99 3.55.13a37.437 37.437 0 0 1 8.08 19.95c.14 1.44-1.01 2.61-2.46 2.61h-29.25c-1.44 0-1.79-.83-.77-1.85Zm18.66 28.67c1.02 1.02.99 2.65-.13 3.55a37.46 37.46 0 0 1-19.62 8.05c-1.44.15-2.61-.99-2.61-2.44V836.7c0-1.44.83-1.79 1.85-.77l20.51 20.51ZM251.1 807.34c3.75-4.06 3.5-10.39-.55-14.14-4.06-3.75-10.39-3.5-14.14.55-4.06-3.75-10.39-3.5-14.14.56-3.75 4.06-3.5 10.39.56 14.14a9.942 9.942 0 0 0 5.82 2.6l-3.15 3.41c-10.07-9-23.83-6.88-30.75 4.83l-3.17 5.36 11.91 11.01c.85.79.91 2.12.12 2.97-.58.63-1.46.82-2.22.57-.27-.09-.53-.24-.76-.45l-11.24-10.39-4.95 8.38 9.73 9c.85.79.91 2.12.12 2.97-.58.63-1.46.82-2.22.57-.27-.09-.53-.24-.76-.45l-9.06-8.38-4.95 8.38 7.56 6.99c.85.79.91 2.12.12 2.97-.58.63-1.46.82-2.22.57-.27-.09-.53-.24-.76-.45l-6.89-6.37-23.77 40.22c-6.99 11.84-3.51 15.06 7.74 7.16l69.85-49.04c11.14-7.82 12.17-21.7 2.41-31.04l3.15-3.41a9.974 9.974 0 0 0 3.05 5.6c4.06 3.75 10.39 3.51 14.14-.55s3.5-10.39-.55-14.14ZM475.1 36.34c3.75-4.06 3.5-10.39-.55-14.14-4.06-3.75-10.39-3.5-14.14.55-4.06-3.75-10.39-3.5-14.14.56-3.75 4.06-3.5 10.39.56 14.14a9.942 9.942 0 0 0 5.82 2.6l-3.15 3.41c-10.07-9-23.83-6.88-30.75 4.83l-3.17 5.36 11.91 11.01c.85.79.91 2.12.12 2.97-.58.63-1.46.82-2.22.57-.27-.09-.53-.24-.76-.45l-11.24-10.39-4.95 8.38 9.73 9c.85.79.91 2.12.12 2.97-.58.63-1.46.82-2.22.57-.27-.09-.53-.24-.76-.45l-9.06-8.38-4.95 8.38 7.56 6.99c.85.79.91 2.12.12 2.97-.58.63-1.46.82-2.22.57-.27-.09-.53-.24-.76-.45l-6.89-6.37-23.77 40.22c-6.99 11.84-3.51 15.06 7.74 7.16l69.85-49.04c11.14-7.82 12.17-21.7 2.41-31.04l3.15-3.41a9.974 9.974 0 0 0 3.05 5.6c4.06 3.75 10.39 3.51 14.14-.55s3.5-10.39-.55-14.14ZM1740.71 499.26c-7.23-11.1-22.33-12.78-39.82-5.39-17.49 7.39-22.57 22.77-31.03 33.24-6.9 8.53-14.22 13.4-18.53 14.89 6.9-6.8 17.73-18.92 17.73-18.92s10.39-15.1 6.7-12.18c-2.92 2.31-21.68 19.44-29.33 26.44 1.34-4.34 6-11.84 14.39-19.02 10.23-8.75 35.58-20.69 42.48-38.38 6.9-17.69 0-41.48-11.95-43.33-5.39-.84-12.61 2.37-18.19 10.76-6 9.02-13.21 16.29-16.39 23.91-5.05 12.12.81 30.06-6.67 43.93-5.28 9.79-13.84 17.17-9.39 29.08.16.43.43.68.76.78 0 1.41.77 2.2 2.19 2.12.11.33.36.6.8.76 12.04 4.11 19.17-4.65 28.81-10.2 13.66-7.86 19.51-.77 32.73-2.33 9.7-1.14 14.29-7.83 23.14-14.08 8.23-5.82 14.61-17.43 11.58-22.07Zm-59.58-32.74c5.85-12.2 8.63-16.82 9.99-14.68 1.65 2.58-21.75 47.96-26.26 51.71-4.5 3.75 10.42-24.83 16.27-37.03Zm25.31 49.01c-7.86 4.55-22.74 13.66-19.99 8.2 1.34-2.67 17.72-12.04 39.37-21.06 23.42-7.31-11.52 8.31-19.38 12.87Z" class="cls-3"/><path d="M1707.99 480.64c3.95-3.91 20.72-20.36 22.15-19.5 1.37.82-15.42 18.9-23.02 25.74 7.71-3.63 23.56.19 23.56.19s4.17-1.64 3.96-6.72c-.21-5.08 14.76-21.43-2.01-28.39-14.22-5.9-24.74.94-24.74.94 2.26 7.37 1.56 19.21.1 27.73ZM1413.24 64.02l-30.98 4.67c-6.08-11.26-17.44-27.16-36.03-35.59-27.81-12.61-60.52 5.73-62.72 12.06-2.2 6.34 12.1 41.01 41.74 48.35 19.81 4.91 38.58-.53 50.34-5.59l21.42 22.87.37-26.06 15.88-20.7Zm-106.12-10.63a5.022 5.022 0 0 1 3.29-9.49c2.62.91 4.01 3.77 3.1 6.4s-3.77 4.01-6.4 3.1ZM1832.86 317.39l-3.56 3.29 11 4.28c1.49.58 2.4 2.1 2.21 3.69a3.5 3.5 0 0 1-3.03 3.06l-20.27 2.69-2.04 10.24a3.508 3.508 0 0 1-5.11 2.4l-9.18-4.98-15.04 13.85c-.27.25-.57.45-.89.6-1.08.5-2.36.44-3.4-.23a3.5 3.5 0 0 1-1.42-4.06l3.74-11.19-4.81.63c-3.48 9.7-3.28 20.72 1.43 30.78 9.46 20.18 33.49 28.88 53.68 19.42s28.88-33.49 19.42-53.68c-4.72-10.07-13.06-17.27-22.74-20.8Zm-34.41 56.67c-.8.91-2.19 1-3.1.2-1.67-1.47-3.07-3.3-4.07-5.43-.92-1.95-1.42-4.01-1.54-6.05a2.193 2.193 0 1 1 4.38-.26c.09 1.5.46 3 1.14 4.45.74 1.58 1.77 2.92 2.99 4 .91.8 1 2.18.2 3.09Z" class="cls-3"/><path d="m1773.89 339.07 15.52-2.05a.984.984 0 0 1 1.07 1.3l-3.79 11.34c-.14.43.02.9.4 1.15.38.25.88.2 1.21-.1l13.52-12.45c.31-.29.78-.35 1.15-.14l9.57 5.2c.28.15.61.16.9.03s.49-.4.55-.71l2.13-10.68c.08-.42.42-.74.85-.79l18.22-2.42c.45-.06.8-.42.86-.87.06-.45-.2-.88-.63-1.05l-11.14-4.34a.996.996 0 0 1-.62-.74c-.06-.34.05-.68.3-.92l11.5-10.61a.99.99 0 0 0 .2-1.21c-.22-.4-.69-.6-1.13-.48l-15.51 4.19a.996.996 0 0 1-1.23-1.16l1.29-6.34a.994.994 0 0 0-.48-1.06.996.996 0 0 0-1.15.11l-10.18 8.91c-.3.26-.72.32-1.08.15l-7.65-3.58c-.27-.13-.58-.13-.84 0s-.47.36-.54.65l-2.14 8.17c-.1.38-.42.67-.81.73l-13.36 2.12c-.42.07-.75.4-.83.82-.07.42.13.84.51 1.04l5.7 3.07c.3.16.5.47.52.82a.98.98 0 0 1-.42.87l-13.14 9.24c-.37.26-.52.75-.35 1.18.17.43.6.69 1.06.62ZM1850.7 486.02c-2.3-2.74-5.36-3.06-7.55-.89-1.83 1.81-1.69 4.33.49 6.98 5.44 6.62 10.92 13.2 16.38 19.8.55.67 1.14 1.35 1.53 2.1.79 1.54.57 2.93-.72 3.73-1.19.74-2.51.48-3.68-.72-.4-.42-.75-.88-1.12-1.33-5.56-6.71-11.1-13.43-16.68-20.12-2.41-2.88-5.7-3.15-7.83-.73-1.58 1.79-1.33 4.2.88 6.9 5.34 6.51 10.73 12.98 16.09 19.47.55.67 1.15 1.34 1.55 2.09.81 1.49.8 2.92-.49 3.8-1.32.91-2.72.57-3.98-.8-.39-.43-.75-.89-1.12-1.33-5.46-6.6-10.92-13.2-16.4-19.79-2.29-2.76-5.05-3.33-7.26-1.56-2.26 1.81-2.36 4.59-.06 7.37 7.98 9.7 16 19.36 24.03 29.02 1.58 1.9 3.52 3.14 5.84 3.7 3.27.78 6.52 1.8 9.79 2.5 5.44 1.16 9.85 4.11 13.54 8.65 3.97 4.91 8.04 9.74 12.08 14.6 4.35 5.26 8.69 10.52 13.06 15.76 2.38 2.85 4.56 3.26 7.2 1.37.87-.62 1.7-1.31 2.49-2.03 2.73-2.49 2.74-4.87.04-8.13-8.66-10.46-17.31-20.92-25.98-31.36-2.91-3.5-4.43-7.4-4.74-11.66-.29-3.91-.5-7.82-.74-11.73-.15-2.49-1.01-4.75-2.73-6.8-3.87-4.62-7.69-9.28-11.54-13.92-4.12-4.98-8.22-9.97-12.37-14.92ZM1682.29 136.64c-10.94-14.81-27.21-21.34-36.35-14.59s-7.69 24.23 3.25 39.04c8.4 11.38 19.95 17.84 29 17.17 2.5 1.65 4.69 3.82 6.61 6.48 3.7 5.12 7.49 10.17 11.25 15.25 4.05 5.49 8.09 10.99 12.17 16.46 2.22 2.98 4.37 3.5 7.11 1.77.9-.57 1.77-1.21 2.6-1.89 2.87-2.33 3.01-4.71.49-8.12-8.06-10.92-16.12-21.85-24.19-32.76-1.76-2.38-2.92-4.9-3.54-7.55 2.45-8.44-.47-20.54-8.39-31.27ZM1808.76 638.98s8.43.49 14.02-5.16 5.01-14.07 5.01-14.07c-.05-.72-.68-1.34-1.4-1.38 0 0-8.43-.49-14.02 5.16s-5.01 14.07-5.01 14.07c.05.72.68 1.34 1.4 1.38Z" class="cls-3"/><path d="M1845.56 641.65c-6.51-3.75-13.78-4.79-20.46-2.94-.92.25-1.83.56-2.71.92-4.85 1.96-9.01 5.4-12.17 10.02l-7.26-17.93c-.57-1.42-2.19-2.1-3.61-1.53s-2.1 2.19-1.53 3.61l7.26 17.93c-5.49-1.12-10.86-.7-15.72 1.27-.88.36-1.75.77-2.58 1.22-6.09 3.32-10.59 9.12-12.65 16.35-2.71 9.45-1.15 20.38 4.28 29.99 9.66 17.11 34.28 32.83 49.25 26.77.56-.23 1.11-.48 1.63-.77 2.63-1.43 4.8-3.62 6.46-6.5 3.19.92 6.27.98 9.16.18.57-.16 1.14-.35 1.7-.58 14.96-6.06 21.72-34.48 16.76-53.49-2.79-10.68-9.27-19.62-17.79-24.52ZM1828.07 13.69c-.69-6.36-3.8-12.23-9.51-16.11-18.8-12.76-33.57-2.01-45.66-4.7-12.09-2.69-23.69-9.95-30.89-12.09-15.47-4.58-30.44 7.93-28.68 23.8v8.36c-.48 4.22.22 8.82 2.49 13.5 10.97 22.73 54.19 36.6 81.25 34.25 19.25-1.67 30.15-15.6 31.09-28.95 0 0-.08-17.61-.08-18.06Zm-6.61 8.24c-2.21 8.49-9.92 18.02-24.92 19.33-1.8.16-3.72.24-5.71.24-12.89 0-28.39-3.32-41.47-8.88-14.11-5.99-24.09-13.88-28.11-22.21-2.85-5.9-2.7-11.88.41-16.84 2.97-4.74 8.27-7.68 13.82-7.68 1.6 0 3.21.24 4.8.71 2.39.71 5.8 2.29 9.41 3.97 6.19 2.87 13.89 6.45 21.88 8.23 1.8.4 3.69.59 5.77.59 3.41 0 6.87-.54 10.22-1.06 3.45-.54 7.02-1.09 10.63-1.09 6.19 0 11.58 1.7 16.96 5.35 7.1 4.82 7.91 13.15 6.3 19.34Z" class="cls-3"/><path d="M1766.06 3.75c-7.14-2.06-13.72-5.11-19.19-7.64-3.23-1.5-6.57-3.05-8.49-3.62-.97-.29-1.94-.43-2.89-.43-3.26 0-6.38 1.74-8.14 4.53-2.36 3.76-1.33 7.7-.04 10.35 3.26 6.76 12.26 13.67 24.68 18.95 5.46 1.91 14.19 1.91 14.19-4.14 0-6-4.03-11.08-.12-18ZM1811.4 7.6c-4.27-2.9-8.34-4.19-13.19-4.19-3.09 0-6.25.49-9.6 1.01-3.43.53-7.32 1.13-11.25 1.13-2.03 0-3.94-.16-5.77-.47-1.38 3.39-1.3 10.22.64 16.68 2.01 6.71 2.01 9.07 7.72 11.42 3.69 1.01 7.49 1.06 10.89 1.06 1.79 0 3.51-.07 5.12-.21 14.5-1.26 18.21-11.29 19-14.33.5-1.93 1.73-8.5-3.57-12.09Zm-19.36 14.83c-7.05.67-8.39-7.72-1.68-9.07 6.07-1.21 11.79 8.1 1.68 9.07Z" class="cls-3"/><circle cx="1844.72" cy="179.63" r="60.52" class="cls-3"/><circle cx="1844.72" cy="179.63" r="46.8" class="cls-1"/><path d="M987.7 180.71c-7.9-10.63-23.07-11.38-40.08-2.94-17 8.44-21.13 24.11-28.94 35.08-6.36 8.94-13.37 14.24-17.59 15.99 6.47-7.21 16.53-19.97 16.53-19.97s9.45-15.71 5.94-12.57c-2.78 2.49-20.45 20.73-27.66 28.19 1.07-4.41 5.26-12.19 13.19-19.86 9.68-9.36 34.24-22.83 40.05-40.91 5.8-18.08-2.55-41.4-14.58-42.52-5.43-.51-12.44 3.14-17.5 11.86-5.44 9.37-12.19 17.07-14.89 24.87-4.29 12.41 2.65 29.96-3.96 44.26-4.67 10.09-12.76 17.98-7.6 29.6.19.42.47.65.81.73.09 1.41.91 2.15 2.31 1.98.13.33.39.58.85.7 12.26 3.37 18.85-5.82 28.13-11.95 13.15-8.68 19.42-1.96 32.52-4.33 9.61-1.73 13.79-8.69 22.24-15.47 7.86-6.31 13.51-18.29 10.21-22.74Zm-61.47-29.03c5.09-12.53 7.58-17.31 9.07-15.26 1.8 2.48-18.77 49.2-23.04 53.22-4.27 4.02 8.88-25.43 13.97-37.96Zm28.26 47.37c-7.57 5.02-21.86 15.03-19.45 9.41 1.17-2.75 16.95-13.1 38.01-23.44 22.93-8.73-10.99 9-18.56 14.03Z" class="cls-3"/><path d="M953.91 164.13c3.7-4.14 19.43-21.59 20.92-20.82 1.42.73-14.23 19.81-21.4 27.1 7.47-4.1 23.52-1.25 23.52-1.25s4.06-1.89 3.54-6.95c-.52-5.06 13.42-22.29-3.75-28.21-14.55-5.02-24.64 2.46-24.64 2.46 2.71 7.21 2.73 19.08 1.8 27.67ZM1161.7 174.33c-3.4-4.35-9.69-5.13-14.05-1.72-4.35 3.4-5.13 9.69-1.73 14.05-4.36 3.4-5.13 9.69-1.72 14.05 3.4 4.35 9.69 5.13 14.04 1.72a9.966 9.966 0 0 0 3.5-5.33l2.86 3.66c-10.5 8.49-10.62 22.41-.17 31.13l4.78 3.99 12.78-9.98a2.1 2.1 0 0 1 2.95.36c.53.67.58 1.57.2 2.28-.13.26-.32.49-.57.68l-12.06 9.42 7.48 6.23 10.44-8.16a2.1 2.1 0 0 1 2.95.36 2.09 2.09 0 0 1-.37 2.95l-9.73 7.6 7.48 6.24 8.11-6.34a2.1 2.1 0 0 1 2.95.36c.53.68.58 1.57.2 2.28-.14.26-.32.49-.57.68l-7.39 5.78 35.88 29.92c10.56 8.81 14.3 5.88 8.31-6.49l-37.18-76.82c-5.93-12.25-19.47-15.5-30.25-7.36l-2.86-3.66c2.11-.03 4.22-.71 6.01-2.11 4.36-3.4 5.13-9.69 1.73-14.05-3.4-4.35-9.69-5.13-14.05-1.72ZM29.96 777.92C17.69 764.19.88 759.21-7.59 766.78c-8.47 7.57-5.4 24.84 6.87 38.56 9.43 10.55 21.52 15.9 30.47 14.4 2.64 1.41 5.02 3.36 7.19 5.84 4.16 4.75 8.41 9.43 12.62 14.14 4.55 5.09 9.08 10.19 13.65 15.26 2.49 2.76 4.68 3.08 7.25 1.1.85-.65 1.65-1.37 2.41-2.12 2.64-2.59 2.55-4.97-.26-8.13-9.04-10.12-18.08-20.25-27.14-30.36-1.98-2.21-3.37-4.61-4.23-7.19 1.66-8.63-2.38-20.41-11.26-30.35ZM1215.42 811.32c-6.14-11.74-21.01-14.85-39.12-9.16-18.11 5.68-24.64 20.51-34.06 30.13-7.68 7.83-15.44 11.98-19.87 13.05 7.52-6.11 19.45-17.14 19.45-17.14s11.79-14.04 7.83-11.49c-3.13 2.02-23.44 17.28-31.72 23.52 1.74-4.19 7.11-11.22 16.14-17.56 11.02-7.74 37.39-17.2 45.95-34.14 8.56-16.95 3.95-41.29-7.75-44.27-5.28-1.35-12.78 1.16-19.14 8.98-6.84 8.4-14.71 14.95-18.59 22.23-6.18 11.58-2.06 30-10.83 43.09-6.19 9.24-15.42 15.77-12.13 28.05.12.45.37.71.68.84-.13 1.4.56 2.26 1.98 2.32.08.34.3.63.73.83 11.59 5.24 19.53-2.8 29.65-7.4 14.34-6.52 19.49 1.1 32.8.81 9.76-.21 14.98-6.43 24.38-11.81 8.75-5 16.21-15.96 13.64-20.87Zm-56.18-38.28c6.99-11.58 10.19-15.91 11.34-13.66 1.39 2.73-26.23 45.66-31.08 48.97-4.84 3.3 12.74-23.73 19.73-35.31Zm20.51 51.2c-8.26 3.78-23.94 11.43-20.69 6.25 1.59-2.53 18.79-10.29 41.21-17.21 24.01-5.04-12.26 7.18-20.52 10.96Z" class="cls-3"/><path d="M1184.63 789.66c4.3-3.51 22.57-18.29 23.92-17.3 1.28.95-17.15 17.34-25.37 23.42 8.02-2.88 23.43 2.44 23.43 2.44s4.31-1.23 4.58-6.31c.28-5.08 16.74-19.92.71-28.45-13.59-7.23-24.72-1.42-24.72-1.42 1.55 7.55-.28 19.27-2.55 27.62ZM1282.35 848.45c-3.4-4.35-9.69-5.13-14.05-1.72-4.35 3.4-5.13 9.69-1.73 14.05-4.36 3.4-5.13 9.69-1.72 14.05 3.4 4.35 9.69 5.13 14.04 1.72a9.966 9.966 0 0 0 3.5-5.33l2.86 3.66c-10.5 8.49-10.62 22.41-.17 31.13l4.78 3.99 12.78-9.98a2.1 2.1 0 0 1 2.95.36c.53.67.58 1.57.2 2.28-.13.26-.32.49-.57.68l-12.06 9.42 7.48 6.23 10.44-8.16a2.1 2.1 0 0 1 2.95.36 2.09 2.09 0 0 1-.37 2.95l-9.73 7.6 7.48 6.24 8.11-6.34a2.1 2.1 0 0 1 2.95.36c.53.68.58 1.57.2 2.28-.14.26-.32.49-.57.68l-7.39 5.78 35.88 29.92c10.56 8.81 14.3 5.88 8.31-6.49l-37.18-76.82c-5.93-12.25-19.47-15.5-30.25-7.36l-2.86-3.66c2.11-.03 4.22-.71 6.01-2.11 4.36-3.4 5.13-9.69 1.73-14.05-3.4-4.35-9.69-5.13-14.05-1.72Z" class="cls-3"/><circle cx="988.19" cy="899.4" r="60.52" class="cls-3"/><circle cx="988.19" cy="899.4" r="46.8" class="cls-1"/><path d="M718.86 892.75s8.43.49 14.02-5.16 5.01-14.07 5.01-14.07c-.05-.72-.68-1.34-1.4-1.38 0 0-8.43-.49-14.02 5.16s-5.01 14.07-5.01 14.07c.05.72.68 1.34 1.4 1.38Z" class="cls-3"/><path d="M755.66 895.41c-6.51-3.75-13.78-4.79-20.46-2.94-.92.25-1.83.56-2.71.92-4.85 1.96-9.01 5.4-12.17 10.02l-7.26-17.93c-.57-1.42-2.19-2.1-3.61-1.53s-2.1 2.19-1.53 3.61l7.26 17.93c-5.49-1.12-10.86-.7-15.72 1.27-.88.36-1.75.77-2.58 1.22-6.09 3.32-10.59 9.12-12.65 16.35-2.71 9.45-1.15 20.38 4.28 29.99 9.66 17.11 34.28 32.83 49.25 26.77.56-.23 1.11-.48 1.63-.77 2.63-1.43 4.8-3.62 6.46-6.5 3.19.92 6.27.98 9.16.18.57-.16 1.14-.35 1.7-.58 14.96-6.06 21.72-34.48 16.76-53.49-2.79-10.68-9.27-19.62-17.79-24.52ZM132.17 191.45c-.69-6.36-3.8-12.23-9.51-16.11-18.8-12.76-33.57-2.01-45.66-4.7-12.09-2.69-23.69-9.95-30.89-12.09-15.47-4.58-30.44 7.93-28.68 23.8v8.36c-.48 4.22.22 8.82 2.49 13.5 10.97 22.73 54.19 36.6 81.25 34.25 19.25-1.67 30.15-15.6 31.09-28.95 0 0-.08-17.61-.08-18.06Zm-6.61 8.24c-2.21 8.49-9.92 18.02-24.92 19.33-1.8.16-3.72.24-5.71.24-12.89 0-28.39-3.32-41.47-8.88-14.11-5.99-24.09-13.88-28.11-22.21-2.85-5.9-2.7-11.88.41-16.84 2.97-4.74 8.27-7.68 13.82-7.68 1.6 0 3.21.24 4.8.71 2.39.71 5.8 2.29 9.41 3.97 6.19 2.87 13.89 6.45 21.88 8.23 1.8.4 3.69.59 5.77.59 3.41 0 6.87-.54 10.22-1.06 3.45-.54 7.02-1.09 10.63-1.09 6.19 0 11.58 1.7 16.96 5.35 7.1 4.82 7.91 13.15 6.3 19.34Z" class="cls-3"/><path d="M70.16 181.52c-7.14-2.06-13.72-5.11-19.19-7.64-3.23-1.5-6.57-3.05-8.49-3.62-.97-.29-1.94-.43-2.89-.43-3.26 0-6.38 1.74-8.14 4.53-2.36 3.76-1.33 7.7-.04 10.35 3.26 6.76 12.26 13.67 24.68 18.95 5.46 1.91 14.19 1.91 14.19-4.14 0-6-4.03-11.08-.12-18ZM115.5 185.36c-4.27-2.9-8.34-4.19-13.19-4.19-3.09 0-6.25.49-9.6 1.01-3.43.53-7.32 1.13-11.25 1.13-2.03 0-3.94-.16-5.77-.47-1.38 3.39-1.3 10.22.64 16.68 2.01 6.71 2.01 9.07 7.72 11.42 3.69 1.01 7.49 1.06 10.89 1.06 1.79 0 3.51-.07 5.12-.21 14.5-1.26 18.21-11.29 19-14.33.5-1.93 1.73-8.5-3.57-12.09Zm-19.36 14.83c-7.05.67-8.39-7.72-1.68-9.07 6.07-1.21 11.79 8.1 1.68 9.07Z" class="cls-3"/><circle cx="147.97" cy="43.4" r="60.52" class="cls-3"/><circle cx="147.97" cy="43.4" r="46.8" class="cls-1"/><path d="M372.21-32.78c-10.81-7.66-25.47-3.67-39.01 9.63-13.55 13.3-12.61 29.48-16.64 42.32-3.28 10.47-8.3 17.69-11.76 20.66 3.92-8.86 9.53-24.12 9.53-24.12s4.11-17.86 1.75-13.79c-1.87 3.22-13.02 26.05-17.55 35.37-.35-4.53 1.23-13.22 6.39-22.98 6.3-11.9 25.48-32.32 25.39-51.3-.09-18.99-15.26-38.57-27.04-35.91-5.32 1.2-10.85 6.84-12.96 16.7-2.27 10.59-6.3 20-6.45 28.26-.24 13.12 11.81 27.66 9.95 43.31-1.31 11.04-6.56 21.05 1.96 30.5.31.34.65.47.99.44.52 1.31 1.53 1.76 2.82 1.17.22.27.55.43 1.03.41 12.7-.6 16.12-11.38 23.04-20.08 9.81-12.33 17.86-7.89 29.58-14.19 8.6-4.62 10.41-12.54 16.34-21.61 5.52-8.44 7.18-21.58 2.66-24.79Zm-67.44-8.54c.96-13.49 1.84-18.81 3.89-17.32 2.48 1.8-2.6 52.6-5.41 57.74-2.81 5.14.56-26.92 1.52-40.42Zm41.56 36.27c-5.64 7.12-16.12 21.06-15.58 14.97.26-2.98 12.05-17.71 28.87-34.07 19.09-15.41-7.66 11.97-13.29 19.09ZM491.97 363.9c-26.19 0-47.5 21.31-47.5 47.5s21.31 47.5 47.5 47.5 47.5-21.31 47.5-47.5-21.31-47.5-47.5-47.5Zm0 90.42c-23.71 0-42.92-19.22-42.92-42.92s19.22-42.92 42.92-42.92 42.92 19.22 42.92 42.92-19.22 42.92-42.92 42.92Zm-1.31-77.94v29.57c0 1.44-.83 1.79-1.85.77l-20.85-20.85c-1.02-1.02-1-2.66.11-3.58a37.494 37.494 0 0 1 19.98-8.35c1.44-.15 2.61.99 2.61 2.44Zm-36.17 31.42c.71-7.51 3.62-14.38 8.08-19.95.9-1.13 2.53-1.15 3.55-.13l20.84 20.84c1.02 1.02.68 1.85-.77 1.85h-29.25c-1.44 0-2.59-1.17-2.46-2.61Zm32.48 7.07-20.52 20.52c-1.02 1.02-2.66 1-3.58-.11a37.434 37.434 0 0 1-8.32-19.65c-.16-1.43.97-2.61 2.41-2.61h29.24c1.44 0 1.79.83.77 1.85Zm6.31-8.93v-29.57c0-1.44 1.17-2.58 2.61-2.44 7.54.78 14.42 3.78 19.98 8.35 1.12.92 1.13 2.56.11 3.58l-20.85 20.85c-1.02 1.02-1.85.68-1.85-.77Zm-2.61 11.54v28.92c0 1.44-1.17 2.58-2.61 2.44a37.46 37.46 0 0 1-19.62-8.05c-1.13-.9-1.15-2.53-.13-3.55l20.51-20.51c1.02-1.02 1.85-.68 1.85.77Zm38.73-1.86a37.434 37.434 0 0 1-8.32 19.65c-.92 1.12-2.56 1.13-3.58.11l-20.52-20.52c-1.02-1.02-.68-1.85.77-1.85h29.23c1.44 0 2.57 1.17 2.41 2.61Zm-32.41-7.07 20.84-20.84c1.02-1.02 2.65-.99 3.55.13a37.437 37.437 0 0 1 8.08 19.95c.14 1.44-1.01 2.61-2.46 2.61h-29.25c-1.44 0-1.79-.83-.77-1.85Zm18.66 28.67c1.02 1.02.99 2.65-.13 3.55a37.46 37.46 0 0 1-19.62 8.05c-1.44.15-2.61-.99-2.61-2.44v-28.92c0-1.44.83-1.79 1.85-.77l20.51 20.51ZM1672.58 918.21c-6.14-11.74-21.01-14.85-39.12-9.16-18.11 5.68-24.64 20.51-34.06 30.13-7.68 7.83-15.44 11.98-19.87 13.05 7.52-6.11 19.45-17.14 19.45-17.14s11.79-14.04 7.83-11.49c-3.13 2.02-23.44 17.28-31.72 23.52 1.74-4.19 7.11-11.22 16.14-17.56 11.02-7.74 37.39-17.2 45.95-34.14 8.56-16.95 3.95-41.29-7.75-44.27-5.28-1.35-12.78 1.16-19.14 8.98-6.84 8.4-14.71 14.95-18.59 22.23-6.18 11.58-2.06 30-10.83 43.09-6.19 9.24-15.42 15.77-12.13 28.05.12.45.37.71.68.84-.13 1.4.56 2.26 1.98 2.32.08.34.3.63.73.83 11.59 5.24 19.53-2.8 29.65-7.4 14.34-6.52 19.49 1.1 32.8.81 9.76-.21 14.98-6.43 24.38-11.81 8.75-5 16.21-15.96 13.64-20.87Zm-56.18-38.28c6.99-11.58 10.19-15.91 11.34-13.66 1.39 2.73-26.23 45.66-31.08 48.97-4.84 3.3 12.74-23.73 19.73-35.31Zm20.51 51.2c-8.26 3.78-23.94 11.43-20.69 6.25 1.59-2.53 18.79-10.29 41.21-17.21 24.01-5.04-12.26 7.18-20.52 10.96Z" class="cls-3"/><path d="M1641.79 896.55c4.3-3.51 22.57-18.29 23.92-17.3 1.28.95-17.15 17.34-25.37 23.42 8.02-2.88 23.43 2.44 23.43 2.44s4.31-1.23 4.58-6.31c.28-5.08 16.74-19.92.71-28.45-13.59-7.23-24.72-1.42-24.72-1.42 1.55 7.55-.28 19.27-2.55 27.62ZM1937.25-2.99 1933.69.3l11 4.28c1.49.58 2.4 2.1 2.21 3.69a3.5 3.5 0 0 1-3.03 3.06l-20.27 2.69-2.04 10.24a3.508 3.508 0 0 1-5.11 2.4l-9.18-4.98-15.04 13.85c-.27.25-.57.45-.89.6-1.08.5-2.36.44-3.4-.23a3.5 3.5 0 0 1-1.42-4.06l3.74-11.19-4.81.63c-3.48 9.7-3.28 20.72 1.43 30.78 9.46 20.18 33.49 28.88 53.68 19.42s28.88-33.49 19.42-53.68C1955.26 7.73 1946.92.53 1937.24-3Zm-34.41 56.67c-.8.91-2.19 1-3.1.2-1.67-1.47-3.07-3.3-4.07-5.43-.92-1.95-1.42-4.01-1.54-6.05a2.193 2.193 0 1 1 4.38-.26c.09 1.5.46 3 1.14 4.45.74 1.58 1.77 2.92 2.99 4 .91.8 1 2.18.2 3.09Z" class="cls-3"/><path d="m1878.29 18.69 15.52-2.05a.984.984 0 0 1 1.07 1.3l-3.79 11.34c-.14.43.02.9.4 1.15.38.25.88.2 1.21-.1l13.52-12.45c.31-.29.78-.35 1.15-.14l9.57 5.2c.28.15.61.16.9.03s.49-.4.55-.71l2.13-10.68c.08-.42.42-.74.85-.79l18.22-2.42c.45-.06.8-.42.86-.87.06-.45-.2-.88-.63-1.05l-11.14-4.34a.996.996 0 0 1-.62-.74c-.06-.34.05-.68.3-.92l11.5-10.61a.99.99 0 0 0 .2-1.21c-.22-.4-.69-.6-1.13-.48l-15.51 4.19a.996.996 0 0 1-1.23-1.16l1.29-6.34a.994.994 0 0 0-.48-1.06.996.996 0 0 0-1.15.11l-10.18 8.91c-.3.26-.72.32-1.08.15l-7.65-3.58c-.27-.13-.58-.13-.84 0s-.47.36-.54.65l-2.14 8.17c-.1.38-.42.67-.81.73l-13.36 2.12c-.42.07-.75.4-.83.82-.07.42.13.84.51 1.04l5.7 3.07c.3.16.5.47.52.82a.98.98 0 0 1-.42.87l-13.14 9.24c-.37.26-.52.75-.35 1.18.17.43.6.69 1.06.62Z" class="cls-3"/></g></svg>